<?xml version="1.0" standalone="no"?>
<!DOCTYPE svg PUBLIC "-//W3C//DTD SVG 1.1//EN" "http://www.w3.org/Graphics/SVG/1.1/DTD/svg11.dtd" >
<svg xmlns="http://www.w3.org/2000/svg" xmlns:xlink="http://www.w3.org/1999/xlink" version="1.1">
<metadata>
Created by FontForge 20170731 at Tue Jan  7 21:13:48 2014
 By Aleksey,,,
Copyright (c) 2013 by Emil Bertell. All rights reserved.
</metadata>
<defs>
<font id="TheCarpenter-Bold" horiz-adv-x="296" >
  <font-face 
    font-family="The Carpenter"
    font-weight="700"
    font-stretch="normal"
    units-per-em="1000"
    panose-1="0 0 0 0 0 0 0 0 0 0"
    ascent="632"
    descent="-368"
    x-height="308"
    cap-height="641"
    bbox="-861.882 -648 1426.12 1054.36"
    underline-thickness="50"
    underline-position="-200"
    unicode-range="U+0020-FB00"
  />
<missing-glyph horiz-adv-x="158" 
 />
    <glyph glyph-name="ff" unicode="ff" horiz-adv-x="417" 
d="M318 -429q-122 82 -31 673l1 10l-3 6l-83 6q-48 4 -59 4l-5 -29l-13 -86q45 -95 68 -215q23 -118 15 -210q-3 -41 -12.5 -73.5t-21.5 -51.5t-27 -31t-29.5 -11t-28.5 8q-120 79 -36 643q-20 33 -46 61q-3 3 -2 8l2 3l5 3q17 6 22 7l32 3q44 255 105 437q3 10 80 15l4 -1
q13 -8 12 -10q-77 -201 -118 -436l76 5l74 6q40 239 102 421q5 15 83 15q6 0 10 -3t2 -8q-76 -199 -115 -419q40 3 58 6q17 2 21 -1.5t1 -17.5q-3 -22 -10 -39.5t-12 -17.5q-24 0 -69 4l-2 -14l-5 -32l-6 -36q42 -100 68 -230q25 -127 18 -213q-3 -40 -13 -73t-23 -52
t-29 -31t-31 -11t-29 8zM379 -241q9 155 -33 336q-63 -433 -25 -471q19 -19 37 24q16 40 21 111zM143 -241q11 167 -30 312q-30 -215 -36 -317q-4 -103 15 -130q21 -21 36 33q10 37 15 102zM254 751h-3h3z" />
    <glyph glyph-name="Vr" unicode="Vr" horiz-adv-x="691" 
d="M283 112q23 -38 60.5 -40t74.5 37t55 112q-12 12 -16 39t0 55q2 20 9 36t15 23t12 4q7 -4 12.5 -23t4.5 -39q0 -8 -4 -36q38 2 90 54q1 1 12.5 -2t25 -8.5t18.5 -10.5q0 -2 -7 -13q-26 -53 -38 -165q-9 -97 17 -102q11 -4 26 13t32 62t28 108q5 15 12 11q5 -2 3 -11
q-14 -100 -47.5 -158t-77.5 -64q-39 -7 -57 25.5t-12 95.5q6 87 31 135q-34 -34 -68 -36q-16 -57 -45 -96.5t-61 -54t-65.5 -7.5t-58.5 36q-60 -64 -117 -94q-58 -32 -88 -19q-37 14 -56 97q-11 51 -14 116q-6 148 44 429q1 10 83 21q14 0 12 -12q-109 -574 -29 -602
q24 -10 61 19.5t76 88.5q-46 92 -49 208q-2 118 34 202q36 86 93 104q57 17 92 -20q71 -71 21 -267q-39 -133 -144 -251zM303 620q-36 -12 -62 -84q-26 -71 -24 -176q1 -103 38 -193q51 87 78 190q68 256 -4 266q-11 2 -26 -3z" />
    <glyph glyph-name="Vs" unicode="Vs" horiz-adv-x="705" 
d="M527 340l-7 -34q70 -60 102.5 -104t33.5 -85h40q11 -2 12 -8q0 -4 -5 -6h-6q-9 1 -41 -1v-1q-6 -51 -47 -85q-40 -33 -88 -31q-51 2 -55.5 38t45.5 61q24 13 69 23q1 39 -16 70t-58 70q-21 -71 -53 -120t-66 -65q-33 -15 -66 -8t-57 37q-58 -61 -117 -93q-58 -32 -88 -19
q-37 14 -56 97q-11 51 -14 116q-6 148 44 429q1 10 82 21q6 0 10 -3t3 -9q-52 -272 -61 -419q-7 -174 31 -183q24 -10 61.5 20t76.5 88q-47 93 -48 208q-2 116 33 202q36 86 93 104q56 17 91.5 -19.5t40 -106.5t-19.5 -161q-38 -133 -143 -251q38 -59 92 -34q64 28 102 154
q4 11 10 35q-29 35 -30 72q-2 30 28 44q27 13 39 -8q7 -13 3 -35zM312 617l-9 -3q-37 -12 -63 -83q-25 -68 -23 -173q1 -101 38 -191q51 87 78 190q74 280 -21 260zM523 20q22 2 38 20.5t19 50.5q-20 -4 -54 -17q-20 -9 -27 -22t0 -22.5t24 -9.5z" />
    <glyph glyph-name="or" unicode="or" horiz-adv-x="507" 
d="M98 16q34 4 56 70l-17 13q-26 23 -32.5 66.5t11.5 82t54 47.5q46 14 68 -28q24 -41 15 -101q-6 -38 -22 -67q46 31 64 124q-11 13 -16.5 40.5t-2.5 51.5q3 26 10 42t14 20.5t13 0.5q18 -10 16 -63l-3 -35q41 3 89 57q4 4 24 -6.5t32 -23.5q0 -1 -7 -14q-24 -46 -37 -158
q-11 -99 15 -102q12 -4 27 12.5t32 61t29 109.5q0 7 4 10t7 0t3 -10q-15 -100 -48.5 -158t-76.5 -64q-36 -7 -55.5 27t-14.5 94q6 62 29 129l3 7l-1 -1q-4 -9 -23.5 -22.5t-40.5 -13.5q-32 -129 -102 -142q-54 -74 -128 -79q-53 -4 -82 38t-21 104q10 93 68 143
q56 49 128 52q19 0 19 -7.5t-17 -13.5q-8 -3 -12.5 -2.5t-11 2.5t-9.5 2q-61 0 -83 -163q-19 -136 33 -132zM155 105l5 -3l12 57q15 85 -5 100q-4 4 -12 1q-35 -14 -36 -66t36 -89z" />
    <glyph glyph-name="os" unicode="os" horiz-adv-x="517" 
d="M105 16q34 4 52 70q-9 5 -19 13q-27 21 -33.5 65t12 83t54.5 48q45 14 69 -28q24 -41 15 -101q-5 -28 -16 -58q48 42 71 155q-31 33 -33 71q-2 27 25 42q26 16 40 -5q7 -11 5 -33l-5 -34q129 -102 132 -187h39q11 -1 12 -8q1 -4 -4 -6h-6q-7 1 -42 -1v-1q-4 -51 -49 -85
q-43 -33 -93 -31q-51 2 -56 37q-5 37 46 62q32 15 76 23q1 40 -14.5 71.5t-51.5 64.5q-33 -135 -105 -162q-50 -84 -132 -88q-61 -3 -89 36t-20 106q10 94 67 143q56 49 128 52q13 0 17.5 -3.5t0 -8.5t-15.5 -9q-8 -3 -12.5 -2.5t-10.5 2.5t-9 2q-25 0 -48.5 -45t-34.5 -118
q-9 -52 0 -94q9 -41 38 -38zM156 105l5 -5q13 58 13 59q15 86 -6 101q-4 3 -12 0q-33 -14 -35 -65q-1 -50 35 -90zM340 20q22 2 37.5 21.5t19.5 49.5v1q-36 -8 -60 -18t-31 -23t2.5 -22t31.5 -9z" />
    <glyph glyph-name="wr" unicode="wr" horiz-adv-x="649" 
d="M279 125q-30 28 -36.5 80t11 95t48.5 47q48 10 72.5 -25t13.5 -106q-7 -51 -35 -98q54 16 81 111q-23 35 -15 86q2 19 10 35.5t16 23.5t13 4q8 -6 13.5 -25.5t3.5 -37.5l-5 -35q38 -2 85 58q1 1 13 -4.5t26.5 -13.5t19.5 -13l-7 -11q-27 -50 -38 -161q-9 -99 16 -102
q12 -4 27 13t32 61.5t29 108.5q2 11 9 11t5 -11q-15 -103 -49.5 -161.5t-81.5 -66.5q-35 -7 -52 28t-12 99q6 70 32 136q-33 -41 -69 -36h-3q-20 -55 -49.5 -85.5t-63.5 -32.5q-33 -46 -77 -72q-43 -25 -70 -19q-27 5 -44 50q-54 -60 -103 -50q-28 6 -44 52.5t-10 120.5
q8 101 20 121q4 8 33 13q24 4 45 2q9 -1 12.5 -3.5t0.5 -8.5q-22 -37 -33 -106q-12 -84 -13 -117q-1 -48 18 -49q13 -2 32 11t36 37q-11 41 -6 106q3 43 20 71.5t39 32.5q12 3 18 -2.5t5 -17.5q2 -15 -3 -53q-6 -42 -20 -80q-6 -102 23 -105q18 -2 39 19t38 61q-11 8 -16 14
zM296 304q-33 -13 -31 -80q3 -64 35 -93l1 -1q12 32 18 77q15 102 -16 99q-3 0 -7 -2z" />
    <glyph glyph-name="ws" unicode="ws" horiz-adv-x="657" 
d="M279 116q-46 49 -40 126q6 78 59 96q44 14 72 -18q29 -32 17 -113q-8 -57 -39 -103q31 2 58 42.5t42 114.5q-27 30 -31 73q-1 27 25 43q28 15 40 -6q6 -11 4 -32q-3 -29 -5 -41q127 -100 130 -181h39q11 -2 12 -8q1 -4 -4 -6h-6q-7 1 -42 -1v-1q-6 -52 -52 -88
q-46 -35 -95 -34q-51 2 -56 40q-5 39 45 65q30 15 83 24q1 41 -14.5 71t-51.5 63q-20 -79 -56.5 -122.5t-78.5 -37.5q-36 -45 -76 -68q-41 -23 -67 -17q-26 4 -43 51q-24 -29 -53 -42.5t-50 -8.5q-28 6 -44.5 52t-10.5 121q11 105 21 121q4 8 33 13q24 4 45 2q18 -2 12 -12
q-21 -34 -32 -106q-14 -102 -14 -119q0 -44 18 -47q15 -2 33.5 13t32.5 44q-8 47 -4 97q6 91 58 104q16 3 20 -7q8 -17 1 -65q-6 -39 -20 -79q-6 -103 24 -107q17 -2 38 19t38 61q-9 5 -15 14zM292 296q-34 -15 -29 -80q5 -64 36 -93l2 -2q12 33 18 77q13 88 -14 99
q-6 2 -13 -1zM472 20q24 1 41.5 21.5t20.5 49.5v1q-40 -8 -66 -18q-31 -14 -28 -34t32 -20z" />
    <glyph glyph-name="vr" unicode="vr" horiz-adv-x="503" 
d="M74 24q17 -2 37 17.5t37 56.5l-8 7q-29 29 -35 84t11.5 100.5t49.5 49.5q39 9 63.5 -27.5t13.5 -102.5q-10 -63 -45 -113q28 0 52.5 34t38.5 96q-23 32 -17 89q4 31 15.5 49.5t23.5 13.5q23 -11 19 -63q-1 -12 -4 -35q15 0 31 10q19 13 48 47q1 1 14 -3.5t28 -12
t20 -12.5q1 -1 -5 -12q-24 -46 -39 -162q-12 -99 15 -102q11 -4 26 13t32.5 62t29.5 108q0 7 4 10t7 0t3 -10q-14 -102 -49.5 -162.5t-80.5 -67.5q-38 -6 -54 28.5t-10 100.5q3 39 10 69q12 50 22 67q-28 -39 -67 -37q-20 -69 -54 -104.5t-71 -30.5q-33 -41 -73.5 -63.5
t-67.5 -17.5q-29 6 -44.5 52.5t-9.5 121.5q7 97 20 121q4 8 33 13q24 4 45 2q11 -2 13.5 -4t-0.5 -8q-22 -37 -33 -106q-12 -83 -13 -118q-1 -47 18 -48zM154 298q-32 -16 -30 -81q3 -65 31 -99q11 31 20 82q13 98 -15 99q-4 0 -6 -1z" />
    <glyph glyph-name="vs" unicode="vs" horiz-adv-x="502" 
d="M74 24q17 -2 39 17.5t39 55.5q-9 6 -18 15q-23 22 -31 59.5t-2.5 72t23.5 62.5t42 33q48 10 71 -25.5t12 -104.5q-7 -53 -36 -97q53 30 80 145q-26 32 -29 77q-3 25 23 42q27 17 41 -3q7 -9 5 -34l-5 -38q127 -97 130 -184h38q12 -1 13 -8q1 -4 -5 -6h-6q-8 1 -41 -1v-1
q-6 -54 -48 -90q-41 -36 -93 -32q-55 4 -58 42q-2 37 48 63q34 14 75 23q0 70 -67 130q-18 -67 -49.5 -105.5t-67.5 -43.5q-33 -44 -80 -70q-42 -25 -72 -20q-29 6 -44.5 52.5t-9.5 121.5q7 97 20 121q4 8 33 13q24 4 45 2q11 -2 13.5 -4t-0.5 -8q-22 -37 -33 -106
q-12 -83 -13 -118q-1 -47 18 -48zM155 118l4 -4q14 38 22 86q14 98 -14 99q-2 1 -7 -1q-33 -15 -35 -84q-1 -68 30 -96zM324 20q23 1 38.5 21t17.5 50v1q-43 -11 -59 -18q-34 -14 -31.5 -34t34.5 -20z" />
    <glyph glyph-name="bs" unicode="bs" horiz-adv-x="498" 
d="M113 107q-24 24 -30 67.5t10 83.5t50 52q42 17 72 -19q30 -35 20 -107q-8 -49 -32 -90q56 28 79 166v1q-26 30 -27 73q-2 35 25 48q24 14 36 -9q6 -11 4 -34q-1 -18 -6 -44q69 -52 101 -93.5t33 -84.5h39q11 -2 12 -8q1 -4 -4 -6h-6q-7 1 -42 -1v-1q-4 -55 -47 -87
q-41 -31 -94 -29q-32 1 -45.5 18.5t-2.5 41t44 39.5q25 12 70 23q3 70 -67 134q-13 -71 -44 -116t-71 -51q-26 -35 -58.5 -55.5t-59.5 -19.5q-49 4 -70.5 42t-18.5 87q10 296 115 608q4 15 83 15q6 0 10 -3t2 -8q-26 -68 -49 -143q-16 -56 -34 -126q-14 -53 -24 -114
q-5 -31 -14 -92q-4 -29 -9 -74q-1 -11 -2.5 -23.5t-2 -18t-0.5 -6.5q-5 -46 -1 -81q5 -38 19 -41q14 -2 27.5 15.5t26.5 54.5q-7 4 -17 16zM137 269q-26 -19 -25 -76q2 -59 24 -81v-2q12 35 18 74q14 76 -6 87q-5 2 -11 -2zM315 14q21 1 36.5 22t19.5 55q-25 -6 -53 -17
q-37 -16 -36 -40q3 -21 33 -20z" />
    <glyph glyph-name="br" unicode="br" horiz-adv-x="491" 
d="M132 93l-6 6q-27 21 -36.5 67t4.5 89t49 55q44 17 73 -17q30 -32 19 -109q-7 -45 -25 -82q46 30 66 126q-28 34 -21 87q8 62 29 67q6 1 11 -4q15 -15 12 -69q0 -26 -1 -30q21 0 46 16.5t42 38.5q1 1 12.5 -2t25 -8.5t17.5 -10.5q1 -1 -6 -13q-26 -53 -38 -165
q-11 -99 16 -102q10 -5 25 12t32.5 62.5t29.5 108.5q2 11 8.5 11t5.5 -11q-15 -104 -50 -162.5t-80 -65.5q-35 -7 -52 28t-12 99q6 71 31 135q-5 -12 -23 -25t-39 -10h-3q-13 -55 -39.5 -93t-58.5 -46q-25 -38 -58 -58.5t-66 -18.5q-49 4 -70.5 42t-18.5 87q10 296 115 608
q4 15 83 15q6 0 10 -3t2 -8q-125 -326 -135 -597q-4 -33 -2 -80q1 -39 20 -42q17 -3 30.5 15.5t25.5 56.5zM131 257q-23 -17 -20 -65q5 -48 28 -77q9 35 15 69q13 77 -10 77q-5 0 -13 -4z" />
    <glyph glyph-name="ss" unicode="ss" horiz-adv-x="451" 
d="M35 94q6 6 21 20q20 19 57 49q-19 35 -72 81l-13 -56q-1 -12 -8 -13q-4 -1 -6 6v10q10 58 11 68q-30 30 -34 75q-3 29 24 46t40 -5q7 -12 6 -36q0 -1 -1.5 -9l-3 -16t-2.5 -13q76 -56 111 -92q35 35 54 69q-17 30 -19 56q-3 31 25 47q26 15 40 -3q9 -13 4 -39
q-4 -20 -11 -35q140 -102 145 -186q30 0 38 -1q12 -2 13 -7q0 -4 -5 -6q-2 -1 -6 -1h-41v-2q-7 -60 -46.5 -92t-95.5 -30q-50 2 -55 44q-5 43 46 68q27 13 75 20q-3 71 -81 136q-6 4 -11 12q-19 -29 -56 -66q35 -45 31 -86q-7 -65 -54 -99q-44 -34 -100 -32q-43 2 -51 39
q-7 37 31 79zM132 91q3 23 -9 55q-54 -44 -67 -57q-26 -31 -20.5 -51.5t34.5 -20.5q26 0 42 20t20 54zM325 91v5q-32 -5 -59 -15q-36 -17 -33 -39q3 -23 36 -22q24 1 39 20.5t17 50.5z" />
    <glyph glyph-name="tt" unicode="tt" horiz-adv-x="308" 
d="M225 104q-5 -69 11 -70q14 -4 30 13t33 61t29 108q2 11 9 11t5 -11q-15 -99 -47.5 -154.5t-75.5 -62.5q-34 -6 -50.5 14t-17.5 61q-35 -68 -84 -75q-36 -6 -52.5 18t-14.5 71q4 147 27 285q-9 0 -18 -0.5t-13.5 -1t-5.5 -0.5q-5 0 -12 16q-9 17 -11 25q-4 24 21 25
q32 0 51 -1q13 58 27 106q4 16 79 16q11 0 16 -3t3 -9q-22 -58 -37 -111q8 0 32.5 -1t30.5 -1q15 74 30 122q4 15 80 15q22 0 18 -11q-19 -54 -41 -129l77 -2q94 -4 94 -10q0 -1 -2 -3q-13 -9 -103 -21q-45 -6 -77 -8q-33 -137 -41 -282zM74 104q-5 -69 11 -70q16 -2 34 20
t33 65q4 122 29 261l-69 -4q-30 -122 -38 -272z" />
    <glyph glyph-name="oz" unicode="oz" horiz-adv-x="513" 
d="M295 -38q-5 17 -13 29q-3 6 15 16q56 38 86 112q31 72 31 155v10q0 -2 -6 -14q-29 -53 -74 -47q-5 0 -6 1q-35 -148 -115 -164q-49 -64 -120 -67q-53 -3 -87 39q-33 42 -26 103q10 93 69 143q58 49 130 52q13 0 17.5 -3.5t0 -8.5t-15.5 -9q-8 -3 -12.5 -2.5t-11 2.5
t-9.5 2q-59 0 -83 -163q-16 -137 39 -132q31 3 47 55q-11 5 -20 15q-28 22 -34 68.5t14 89t59 51.5q45 13 70 -28q25 -40 16 -101q-4 -40 -25 -77q54 37 77 147q-27 30 -18 86q2 18 11.5 35t19 24.5t13.5 4.5q13 -8 8 -64q0 -5 -2 -23q31 -4 49 8.5t31 42.5q1 2 16.5 -1
t33.5 -9t24 -12q2 -2 0 -52q-5 -67 -44 -134q-41 -70 -101 -121l15 -30q12 -25 16 -57q66 23 129 29q11 2 11 -7q-2 -9 -11 -11q-74 -11 -126 -35q9 -78 -11 -189q-14 -74 -53.5 -111t-89.5 -34q-45 3 -75 42q-30 37 -19 92q23 120 181 197q-7 24 -21 55zM341 -281
q12 69 -16 159q-86 -61 -103 -148q-10 -48 -1 -84t32 -39q28 -5 53 26.5t35 85.5zM155 93l2 -2q9 29 15 68q15 85 -5 100q-4 4 -12 1q-34 -14 -35 -72q-1 -57 35 -95z" />
    <glyph glyph-name="bz" unicode="bz" horiz-adv-x="495" 
d="M292 -92l-20 54q-12 26 -14 29q-2 4 1 6.5t16 9.5q56 38 86 112q30 73 30 155v11l-6 -14q-33 -54 -81 -48h-4q-17 -69 -47 -109.5t-66 -46.5q-47 -70 -110 -68q-46 3 -70.5 43.5t-22.5 97.5q11 287 115 596q5 15 83 15q6 0 10 -3t2 -8q-53 -139 -84 -256
q-31 -121 -38 -180q-9 -78 -13 -149q-9 -129 23 -134q15 -3 27 12.5t21 46.5q-8 6 -22 20q-24 25 -29 70t12.5 86.5t51.5 53.5q44 17 75 -19q32 -36 18 -107q-14 -57 -32 -89q51 21 75 141q-26 30 -19 86q2 18 11 35t18.5 24.5t13.5 4.5q12 -7 10 -64l-2 -21q57 -13 86 49
q1 2 16.5 -1t33.5 -9t24 -12q1 -1 1 -7.5t-0.5 -19t-1.5 -25.5q-4 -63 -42 -130.5t-99 -121.5l15 -30q9 -18 17 -58q69 22 125 27q11 1 11 -5.5t-11 -8.5q-65 -8 -122 -33q12 -92 -9 -188q-17 -75 -59 -115t-91 -37q-45 3 -77 41q-30 37 -19 93q11 59 59 110t124 88z
M318 -281q10 68 -17 163q-89 -62 -109 -152q-10 -48 -1.5 -84t32.5 -39q30 -5 58 27t37 85zM137 112q0 -1 2 -3q10 44 16 75q5 23 7 40t1 28t-5 16.5t-11 4.5q-6 -2 -9 -4q-26 -19 -25 -77q2 -59 24 -80z" />
    <glyph glyph-name="Wr" unicode="Wr" horiz-adv-x="1006" 
d="M178 -21q-147 60 -38 642q1 10 82 21q6 0 10 -3t3 -9q-54 -276 -62 -420q-6 -167 44 -182q51 -18 99 54t78 206q0 26 3 56q5 68 30 125q27 58 56 66q14 4 23.5 -5.5t13.5 -31.5q10 -62 -23 -149q-4 -12 -7 -18q0 -1 -4 -9l-3 -9q-13 -104 -5 -170q8 -60 20.5 -83
t36.5 -32q56 -20 120 88l-8 11q-73 112 -60 254q9 100 47 176t91 93q95 29 128 -57q34 -85 -9 -230q-42 -145 -146 -269q42 -41 85.5 -31t77.5 68q24 41 35 92q-27 29 -18 92q2 20 9 36t15 23t12 4q7 -4 12 -23.5t4 -38.5q0 -1 -2 -27l2 -2q44 -5 87 47q1 1 12.5 -2t25 -8.5
t17.5 -10.5q1 -1 -6 -13q-26 -53 -38 -165q-9 -97 17 -102q11 -5 26 12.5t32 62.5t28 108q1 7 4.5 10t7 0t3.5 -10q-14 -100 -48.5 -161t-76.5 -67q-38 -7 -56.5 28t-12.5 99q6 87 31 135q-40 -40 -70 -35q-18 -59 -38 -92q-40 -65 -90 -76.5t-99 33.5q-55 -60 -106 -87.5
t-84 -13.5q-74 30 -95 161q-54 -85 -118 -133q-61 -46 -105 -28zM721 620q-31 -11 -56 -60q-27 -52 -40 -118t-4 -152q11 -87 47 -152q49 93 83 219q68 256 -4 266q-11 2 -26 -3z" />
    <glyph glyph-name="Ws" unicode="Ws" horiz-adv-x="1020" 
d="M646 105l-3 7q-45 94 -47 217q-1 120 37 212q37 91 96 109q56 17 92 -19.5t40.5 -106.5t-19.5 -161q-46 -157 -154 -277q25 -33 56.5 -34.5t57 19.5t44.5 54q37 67 56 143q-26 27 -30 66q-2 29 25 45q25 15 39 -5q8 -12 6 -35q0 -1 -2.5 -16t-4.5 -22q137 -102 140 -184
h39q11 -2 12 -8q1 -4 -4 -6h-6q-9 1 -41 -1v-1q-6 -55 -45.5 -89.5t-96.5 -32.5q-50 2 -55 41t46 64q31 15 74 23q-5 77 -76 142q-20 -67 -57 -132q-40 -68 -94 -83t-100 33q-51 -53 -98.5 -77t-78.5 -11q-74 29 -95 161q-54 -85 -119 -133q-61 -46 -104 -28
q-146 60 -39 642q1 10 83 21q6 0 10 -3t3 -9q-54 -276 -62 -420q-6 -167 44 -182q51 -20 99 54t78 208q0 26 3 54q5 68 30 125q27 58 56 66q14 4 23.5 -5.5t13.5 -31.5q10 -62 -23 -149q-4 -12 -7 -18l-7 -15v-2q-1 -1 -1 -2q-12 -108 -4 -169.5t21 -84t36 -30.5
q51 -19 113 77zM719 620q-29 -10 -54 -60t-37 -120t-5 -154t39 -155q52 94 87 226q68 259 -5 266q-11 2 -25 -3zM998 84q0 2 0.5 4t0.5 4q-42 -10 -60 -18q-20 -9 -27 -21t1.5 -21.5t28.5 -11.5q21 -1 37 17.5t19 46.5z" />
    <glyph glyph-name="Fl" unicode="Fl" horiz-adv-x="612" 
d="M290 216l-16 2q-91 9 -91 14q6 6 94 20l19 3l7 72q5 78 5 203q0 12 81 22q13 0 13 -11q0 -130 -10 -204q-5 -39 -11 -69q14 2 56 5q23 0 19 -19q-14 -44 -24 -48q-10 -2 -66 3q-40 -138 -122 -206q-80 -67 -163 -50q-34 8 -57.5 32t-28.5 55q-11 48 22 95t106 63
q39 8 68 5q16 -4 14 -17t-12 -28t-14 -14q-37 5 -60 2q-59 -7 -88 -46q-28 -36 -11 -76q18 -37 74 -48q67 -12 119.5 50.5t76.5 189.5zM202 537q-92 -29 -133 -70.5t-27 -87.5t68 -67.5t132 -13.5q7 0 10.5 -4.5t1.5 -9.5t-9 -6q-80 -11 -140 14t-81 76q-7 24 -9.5 52
t11.5 60t37.5 60.5t68 54.5t102.5 42q182 48 480 18q18 -1 -8 -51l-2 -4q-18 -33 -27 -33q-308 21 -475 -30zM546 116q-3 -73 19 -77q12 -4 26 11t29.5 58t27.5 108q0 7 4 10t7 0t3 -10q-14 -102 -47 -159t-77 -63q-37 -6 -52.5 21.5t-14.5 84.5q2 120 22 251q21 136 48 184
q5 7 36 12q28 4 47 4q6 0 10.5 -3.5t2.5 -8.5q-87 -165 -91 -423z" />
    <glyph glyph-name="Fh" unicode="Fh" horiz-adv-x="766" 
d="M695 175l-4 -40q-13 -107 10 -108q14 -5 30.5 14t33.5 64.5t29 110.5q2 11 8.5 11t5.5 -11q-14 -99 -48 -157t-77 -65q-36 -7 -55 26.5t-14 94.5q1 27 8 78q5 48 -1 49q-4 1 -11 -3q-44 -23 -74 -139q-4 -53 -18 -73q-13 -19 -41 -30q-14 -6 -17 4q-2 11 3 93
q0 125 18 242q20 120 46 195q6 15 83 15q6 0 10.5 -3.5t2.5 -8.5q-58 -113 -82 -365q28 71 63 110t70 35q23 -3 26 -28q3 -23 -5 -111zM202 537q-92 -29 -133 -70.5t-27 -87.5t68 -67.5t132 -13.5q7 0 10.5 -4.5t1.5 -9.5t-9 -6q-80 -11 -140 14t-81 76q-7 24 -9.5 52
t11.5 60t37.5 60.5t68 54.5t102.5 42q182 48 480 18q18 -1 -8 -51l-2 -4q-18 -33 -27 -33q-308 21 -475 -30zM290 216l-16 2q-91 9 -91 14q6 6 94 20l19 3l7 72q5 78 5 203q0 12 81 22q13 0 13 -11q0 -130 -10 -204q-4 -41 -11 -68q4 0 13 1t18.5 2t18.5 1q23 0 19 -19
q-14 -44 -24 -48q-9 -2 -60 3q-40 -138 -122 -206q-80 -67 -163 -50q-34 8 -57.5 32t-28.5 55q-11 48 22 95t106 63q39 8 68 5q16 -4 14 -17t-12 -28t-14 -14q-37 5 -60 2q-59 -7 -88 -46q-28 -36 -11 -76q18 -37 74 -48q67 -12 119.5 50.5t76.5 189.5z" />
    <glyph glyph-name="Tl" unicode="Tl" horiz-adv-x="631" 
d="M303 327q5 78 5 203q0 12 81 22q13 0 13 -11q0 -130 -10 -204q-12 -101 -44.5 -182t-77.5 -128q-92 -94 -189 -74q-34 8 -57.5 32t-28.5 55q-11 48 22 95t106 63q39 8 68 5q16 -4 14 -17t-12 -28t-14 -14q-37 5 -60 2q-59 -7 -88 -46q-28 -36 -11 -76q18 -37 74 -48
q80 -14 138 76q61 91 71 275zM202 537q-92 -29 -133 -70.5t-27 -87.5t68 -67.5t132 -13.5q7 0 10.5 -4.5t1.5 -9.5t-9 -6q-80 -11 -140 14t-81 76q-7 24 -9.5 52t11.5 60t37.5 60.5t68 54.5t102.5 42q182 48 480 18q18 -1 -8 -51l-2 -4q-18 -33 -27 -33q-308 21 -475 -30z
M533 116q-1 -32 5 -53.5t15 -23.5q11 -4 25 11t30 58t28 108q0 7 4 10t7 0t3 -10q-30 -209 -125 -222q-37 -6 -52 20.5t-15 85.5q1 110 22 253q21 137 49 182q5 7 36 12q28 4 47 4q6 0 10.5 -3.5t1.5 -8.5q-83 -162 -91 -423z" />
    <glyph glyph-name="Th" unicode="Th" horiz-adv-x="760" 
d="M689 175l-4 -40q-13 -107 9 -108q14 -5 30.5 14.5t34 65t28.5 109.5q5 15 12 11q5 -2 3 -11q-14 -99 -48 -157t-77 -65q-37 -7 -55.5 26.5t-13.5 94.5q1 27 8 78q5 48 -1 49q-4 1 -11 -3q-44 -23 -74 -139q-4 -52 -19 -73q-14 -20 -40 -30q-14 -6 -17 4q-2 16 2 93
q0 245 65 437q6 15 83 15q7 0 11 -3.5t1 -8.5q-57 -116 -81 -365q28 71 63 110t70 35q23 -3 26 -28q3 -23 -5 -111zM202 537q-92 -29 -133 -70.5t-27 -87.5t68 -67.5t132 -13.5q7 0 10.5 -4.5t1.5 -9.5t-9 -6q-80 -11 -140 14t-81 76q-7 24 -9.5 52t11.5 60t37.5 60.5
t68 54.5t102.5 42q182 48 480 18q18 -1 -8 -51l-2 -4q-18 -33 -27 -33q-308 21 -475 -30zM303 327q5 78 5 203q0 12 81 22q13 0 13 -11q0 -130 -10 -204q-12 -101 -44.5 -182t-77.5 -128q-92 -94 -189 -74q-34 8 -57.5 32t-28.5 55q-11 48 22 95t106 63q39 8 68 5
q16 -4 14 -17t-12 -28t-14 -14q-37 5 -60 2q-59 -7 -88 -46q-28 -36 -11 -76q18 -37 74 -48q80 -14 138 76q61 91 71 275z" />
    <glyph glyph-name="gr" unicode="gr" horiz-adv-x="505" 
d="M149 308q23 -5 29 -28q13 19 36 30t40 11q17 -1 6 -12q-19 -24 -34 -130q-7 -52 -25 -144q67 82 97 207q-15 35 -8 77q3 20 10.5 36t15.5 22.5t13 3.5q6 -5 10.5 -24.5t3.5 -38.5q-1 -15 -6 -32v-1l-1 -2q32 1 81 51q1 1 12.5 -2t25.5 -8.5t18 -10.5q0 -2 -7 -13
q-26 -53 -38 -165q-11 -107 10 -108q14 -5 30.5 14.5t34 65t28.5 109.5q2 11 9 11t5 -11q-14 -104 -48 -161.5t-82 -66.5q-36 -7 -52.5 27.5t-11.5 99.5q8 79 32 135l-2 -3q-21 -36 -58 -30q-2 0 -3 1q-37 -127 -127 -227q-44 -222 -92 -317q-48 -98 -107 -106
q-39 -5 -67 35q-29 40 -19 94q11 58 53 106q43 51 139 135q15 12 22 19l14 109q-21 -61 -59 -66q-37 -4 -65 33q-28 39 -21 96q11 93 59 140q50 49 99 39zM9 -381q57 3 105 290q-109 -115 -124 -195q-21 -98 19 -95zM95 38q26 6 59 172l4 22v2q4 25 -2 42t-20 18
q-40 3 -63 -152q-5 -33 -4 -57t8 -37t18 -10z" />
    <glyph glyph-name="gs" unicode="gs" horiz-adv-x="513" 
d="M149 308q23 -5 29 -28q13 19 36 30t40 11q17 -1 6 -12q-19 -24 -34 -130q-7 -52 -25 -144q71 86 101 224q-23 29 -20 78q2 25 27 39q26 14 35 -7q5 -14 1 -33q-6 -27 -10 -38q68 -57 100 -99t36 -82h39q12 -2 13 -8q0 -4 -5 -6h-6q-8 1 -41 -1v-7q-7 -56 -47.5 -87
t-94.5 -29q-32 1 -45.5 20t-2 44t44.5 41q25 13 68 23q-4 55 -73 131q-35 -146 -128 -247q-44 -222 -92 -317q-48 -98 -107 -106q-39 -5 -67 35q-29 40 -19 94q11 58 53 106q43 51 139 135q15 12 22 19l14 109q-21 -61 -59 -66q-37 -4 -65 33q-28 39 -21 96q11 93 59 140
q50 49 99 39zM9 -381q57 3 105 290q-109 -115 -124 -195q-21 -98 19 -95zM95 38q26 6 59 172l4 22v2q4 25 -2 42t-20 18q-40 3 -63 -152q-5 -33 -4 -57t8 -37t18 -10zM338 20q50 3 56 64v3q1 3 1 4q-32 -7 -54 -17q-37 -16 -36 -36t33 -18z" />
    <glyph glyph-name="Os" unicode="Os" horiz-adv-x="634" 
d="M398 335q-18 -129 -98 -233q42 8 79 49t64 109q-21 28 -19 77q2 25 27 39q26 14 35 -7q5 -14 1 -33q-8 -35 -9 -38q117 -100 120 -181h39q11 -2 12 -8q1 -4 -4 -6h-6q-9 1 -41 -1q-1 -1 -1 -7q-6 -56 -46.5 -87t-94.5 -29q-32 1 -46 20t-2.5 44t44.5 41q26 13 70 23
q0 67 -64 137q-32 -75 -79 -118t-98 -46q-71 -76 -144 -81q-86 -5 -133 88q-46 91 -31 217q18 155 110 255q93 99 196 103q17 0 23.5 -4.5t2 -11t-17.5 -11.5q-6 -5 -20 0t-15 5q-55 0 -112 -93q-57 -95 -76 -230q-9 -80 -8 -143q1 -69 26 -112t69 -38q50 5 85 62
q-40 14 -67 46q-43 48 -57 123q-14 79 -1 144q14 69 49 124q36 55 85 67q76 18 123 -62q46 -79 30 -193zM190 148q24 -31 56 -42q32 63 61 222q16 109 -5 177.5t-69 55.5q-47 -14 -78 -86q-31 -71 -25 -168q6 -95 60 -159zM464 20q51 3 57 64q0 6 1 7q-36 -9 -54 -17
q-37 -15 -37 -35q1 -19 33 -19z" />
    <glyph glyph-name="Or" unicode="Or" horiz-adv-x="626" 
d="M398 335q-20 -131 -97 -231q74 21 124 140q-15 35 -8 75q3 20 10.5 36t15.5 22.5t13 3.5q6 -5 10.5 -24.5t3.5 -38.5q-1 -15 -6 -32l-1 -3q31 1 81 51q1 1 12.5 -2t25.5 -8.5t18 -10.5q0 -2 -7 -13q-25 -51 -37 -165q-14 -107 9 -108q14 -5 31 14t34 64.5t29 110.5
q1 10 8 11q2 1 3.5 -0.5t1.5 -4.5q2 -3 0 -6q-29 -209 -130 -228q-35 -7 -52 28t-12 99q8 79 32 135l-2 -3q-21 -36 -58 -30q-8 1 -13 7q-30 -65 -70.5 -102.5t-85.5 -41.5q-67 -76 -144 -81q-86 -5 -133 88q-46 91 -31 217q18 155 110 255q93 99 196 103q17 0 23.5 -4.5
t2 -11t-17.5 -11.5q-6 -5 -20 0t-15 5q-55 0 -112 -93q-57 -95 -76 -230q-9 -80 -8 -143q1 -69 26 -112t69 -38q50 5 84 62q-38 13 -66 46q-43 48 -57 123q-14 79 -1 144q14 69 49 124q36 55 85 67q76 18 123 -62q46 -79 30 -193zM190 148q24 -31 56 -42q32 63 61 222
q16 109 -5 177.5t-69 55.5q-47 -14 -78 -86q-31 -71 -25 -168q6 -95 60 -159z" />
    <glyph glyph-name="fy" unicode="fy" horiz-adv-x="468" 
d="M92 -429q-121 80 -32 665q-10 15 -32 41q-4 4 -4 6q-6 10 13 13h3q4 1 12.5 2.5t17.5 2.5q40 245 105 435q5 15 83 15q6 0 10 -3t2 -8q-75 -198 -115 -421q23 5 56 8q4 0 13 -19q10 -19 9 -25q-1 -21 -21 -24q-8 -1 -66 6l-4 -24l-12 -82q67 -135 90 -302q54 48 128 76
q13 70 24 155l3 29q-47 -130 -96 -119q-55 14 -42 174q10 104 21 121q4 8 33 13q24 4 45 2q17 -2 11 -12q-22 -37 -32 -106q-12 -79 -13 -109q-1 -37 11 -39q20 -5 47 82q26 79 41 156q0 2 2 4v2q4 16 77 16q7 0 11 -2.5t2 -8.5q-17 -42 -41 -184q-15 -87 -32 -151
q48 12 77 13q7 0 10 -3t0 -6.5t-10 -4.5q-57 -9 -82 -18q-66 -237 -173 -251q-14 0 -24 2q-17 -77 -55 -108q-38 -32 -71 -9zM147 -241q11 204 -26 339q-64 -436 -26 -474q19 -20 36 30q11 36 16 105zM262 -276q45 2 81 184q-83 -45 -100 -117q-7 -35 -2 -51.5t21 -15.5z
" />
    <glyph glyph-name="it" unicode="it" horiz-adv-x="334" 
d="M246 104q-5 -69 11 -70q13 -4 29 13t33.5 61.5t28.5 107.5q5 15 12 11q5 -2 3 -11q-15 -100 -47.5 -155t-76.5 -62q-36 -6 -52.5 18t-14.5 71v28q-34 -107 -99 -118q-36 -5 -57.5 21t-21.5 69q0 131 20 197q5 15 77 15q7 0 11 -3.5t1 -8.5q-24 -33 -34 -184
q-5 -71 22 -74q12 -4 27 13t32 61t29 106q6 72 20 163l-31 -2q-4 0 -13 17q-7 16 -9 24q-4 24 21 25q28 0 44 -1q13 58 27 106q4 16 79 16q11 0 16 -3t3 -9q-16 -44 -38 -115l76 -3q94 -4 94 -10q0 -1 -2 -3q-10 -9 -103 -21l-77 -11q-32 -134 -40 -279zM42 329
q-12 2 -18.5 17t-2.5 38q11 62 79 56q25 -3 33.5 -20t-5.5 -44q-17 -26 -43.5 -39.5t-42.5 -7.5z" />
    <glyph glyph-name=".notdef" horiz-adv-x="158" 
 />
    <glyph glyph-name=".null" horiz-adv-x="0" 
 />
    <glyph glyph-name="nonmarkingreturn" horiz-adv-x="333" 
 />
    <glyph glyph-name="space" unicode=" " horiz-adv-x="158" 
 />
    <glyph glyph-name="exclam" unicode="!" horiz-adv-x="205" 
d="M55 154q38 338 80 473q6 17 85 17q6 0 10.5 -3.5t2.5 -8.5q-61 -156 -97 -265q-35 -107 -56 -208q-9 -38 -19 -42q-3 -1 -4.5 -0.5t-2.5 3t-1 5.5q-1 8 2 29zM18 -18q-28 7 -20 55q11 62 79 56q25 -2 33.5 -20t-5.5 -44q-17 -26 -43 -38.5t-44 -8.5z" />
    <glyph glyph-name="quotedbl" unicode="&#x22;" horiz-adv-x="177" 
d="M30 410q2 15 29 5q32 -12 36 -31v-10q-11 -35 -66 -101q-11 -13 -15 -9q-1 1 -1 3q25 45 17 143zM110 422q-2 15 26 6q33 -12 39 -33l1 -9q-4 -34 -82 -124q-14 -12 -17 -5q45 71 33 165z" />
    <glyph glyph-name="numbersign" unicode="#" horiz-adv-x="299" 
d="M55 -14q8 52 10 74l-19 2q-39 4 -40 7q0 1 4 4q13 10 40 13h3q3 0 7.5 0.5t7.5 0.5l9 100h-1q-39 5 -39 7l3 4q25 12 39 13q8 67 18 118q3 14 77 14q14 0 10 -10q-20 -63 -41 -117l64 5q10 71 17 108q2 14 75 14q6 0 9.5 -2.5t2.5 -7.5q-20 -58 -38 -106l29 3q5 2 14 -12
q8 -13 7 -20q-2 -7 -10 -14t-14 -8q-1 -1 -44 1l-26 -75l30 3q5 0 14 -12.5t7 -18.5q-3 -7 -10 -15t-13 -8q-1 -1 -44 1l-7 -26l-9 -37q-6 -31 -13 -35q-6 -2 -6 6q0 6 3 26q6 38 9 67l-101 6q-11 -40 -18 -70q-3 -10 -5 -19.5t-3 -11.5t-5 -4q-6 -2 -6 6q0 6 3 26zM99 90
l96 9l8 81l-72 4q-25 -71 -32 -94z" />
    <glyph glyph-name="dollar" unicode="$" horiz-adv-x="242" 
d="M108 17q15 -1 27 6t17.5 19.5t4.5 28t-14.5 35t-38.5 36.5q-37 26 -48.5 57t-1 57.5t34 46.5t54.5 27l1 28q1 5 13.5 10.5t17.5 3.5q14 -7 21 -12.5t6 -9.5l-9 -21q33 -7 45.5 -33t1.5 -52t-38 -35q-17 -6 -38.5 1t-34.5 19t-9 18q0 2 38 0t44 20q8 22 -16 34.5t-54 6.5
q-23 -5 -33.5 -21.5t0.5 -41.5t47 -50q43 -28 58 -64.5t5 -67t-38 -51.5t-64 -21l-6 -18q-7 -16 -11 -16q-2 0 -2 2q-1 4 1 16l4 18q-37 3 -62 32t-23.5 62t31.5 47q19 8 38 1.5t32.5 -19.5t9.5 -19l-15 2q-41 6 -53 -25q-8 -18 10 -37t47 -20z" />
    <glyph glyph-name="percent" unicode="%" horiz-adv-x="495" 
d="M144 352q40 -1 66 -30.5t20 -72.5q-8 -51 -58 -81q-49 -28 -97 -30q-45 0 -76 26.5t-27 66.5q8 59 59 90q54 32 113 31zM154 242q8 39 0.5 64.5t-28.5 26.5q-25 0 -48.5 -25.5t-29.5 -63.5q-6 -40 3 -61.5t35 -20.5q54 5 68 80zM193 -22l17 85q4 20 9.5 46t8.5 41t5 24
l21 87q12 51 26 85q3 9 30 14.5t59 1.5q13 -1 8 -12l-27 -54q-18 -37 -33 -65l-29 -60q-26 -55 -31 -69q-29 -68 -45 -120q-7 -28 -12 -31l-6 -2q-2 -1 -3.5 0t-1.5 5q0 8 4 24zM452 201q39 -1 65 -30.5t20 -72.5q-8 -50 -58.5 -81t-96.5 -30q-42 -1 -75 25q-32 28 -28 68
q7 58 59 89q53 32 114 32zM462 91q15 89 -29 91q-24 0 -47.5 -25.5t-29.5 -63.5q-6 -41 2.5 -62t34.5 -20q54 1 69 80z" />
    <glyph glyph-name="ampersand" unicode="&#x26;" horiz-adv-x="484" 
d="M311 532q43 -6 68 -29.5t21 -58.5q-5 -37 -33 -71q-29 -35 -65 -45q-23 -9 -52.5 11t-45.5 45.5t-6 31.5h2q2 -1 6.5 -2t10.5 -2.5t13.5 -3t15.5 -2.5t16.5 -1.5t16.5 -0.5q62 2 71 44q7 55 -57 62q-110 9 -126 -91q-8 -42 2.5 -78t35.5 -55q47 8 77 5q15 -2 22.5 -5.5
t6.5 -10.5q-1 -16 -37 -21h-4q-39 -6 -74 0q-86 -29 -97 -110q-10 -72 34 -110q43 -37 138 -13q51 13 89 61q-44 0 -74 15t-37 39q-12 40 18 76t90 48q66 14 128 8q3 1 5.5 -4t4.5 -12.5t4 -17t3 -18.5t1.5 -14.5t0.5 -6.5q1 -7 -1.5 -12t-7.5 -3q-23 11 -63 10
q-10 -49 -35 -89q36 5 88 22q12 5 15 -3q1 -6 -8 -10q-57 -22 -106 -26q-49 -72 -125 -90q-112 -27 -189 14q-76 41 -68 126q10 91 139 137q-84 41 -71 129q11 72 85 107q73 36 154 25zM363 184q-86 -14 -83 -50q0 -17 25.5 -27.5t66.5 -7.5q27 40 40 89q-16 0 -49 -4z" />
    <glyph glyph-name="quotesingle" unicode="'" horiz-adv-x="108" 
d="M30 410q2 15 29 5q32 -12 36 -31v-10q-14 -47 -66 -101q-11 -13 -15 -9q-1 1 -1 3q28 48 17 143z" />
    <glyph glyph-name="parenleft" unicode="(" horiz-adv-x="351" 
d="M46 290q23 83 52.5 150.5t59.5 109.5t61.5 67.5t59.5 27t54 -13.5q19 -13 31 -40q15 -35 5 -38q-2 -1 -5 2t-6 9l-3 6q-8 20 -21 23q-53 17 -104 -53q-50 -66 -103 -260q-51 -184 -49 -291q2 -65 18 -97.5t35 -33.5q14 -2 28 12q17 16 21 9q2 -11 -22 -32
q-21 -18 -45 -22q-37 -6 -68 40q-30 45 -39 149q-8 105 40 276z" />
    <glyph glyph-name="parenright" unicode=")" horiz-adv-x="351" 
d="M340 180q-20 -70 -43.5 -129t-48.5 -100t-51 -70t-51 -42.5t-48.5 -13.5t-44.5 14q-20 13 -31 39q-13 31 -6 38q3 2 6.5 -1.5t7.5 -13.5q1 -1 1 -2q8 -20 21 -23q52 -17 102.5 51.5t104.5 261.5q51 184 49 291q-2 65 -18 97.5t-35 33.5q-14 3 -29 -12q-17 -17 -20 -9
q-3 10 22 32q22 19 44 22q47 7 79 -60q18 -39 25 -89q19 -116 -36 -315z" />
    <glyph glyph-name="asterisk" unicode="*" horiz-adv-x="215" 
d="M127 287l-3 -45q-1 -10 -2 -17t-2 -12t-1.5 -7t-1.5 -2q-3 0 -4 3t-6 39l-3 36l-25 -20q-34 -28 -34 -22q0 2 1 4q2 4 24 33l18 22l-43 4q-39 5 -39 7q0 1 4 4q3 2 39 6l36 3l-41 34q-4 3 -5.5 14t3.5 14q24 8 33 -1q0 -2 23 -25l-4 43q-1 6 5.5 14.5t12.5 6.5
q8 -3 15.5 -10.5t7.5 -13.5l-1 -5q0 -6 -0.5 -17t-0.5 -24l28 34q4 4 14.5 5.5t13.5 -3.5q9 -18 0 -33q-1 -3 -30 -27l45 4q6 1 14.5 -5.5t6.5 -12.5q-2 -7 -9.5 -14.5t-13.5 -8.5l-50 2q9 -11 17 -19q27 -34 21 -34q-2 0 -4 1q-3 0 -32 23z" />
    <glyph glyph-name="plus" unicode="+" horiz-adv-x="201" 
d="M131 99l-8 -42q-8 -32 -10 -33q-3 2 -11 37q-2 8 -4.5 23.5t-3.5 21.5q-19 5 -49 9q-33 8 -32.5 11t35.5 10l40 8q-5 34 -7 63q-1 15 2.5 19t15.5 2q46 -7 48 -23q1 -2 -7 -53l51 6q15 1 19 -2.5t2 -15.5q-7 -48 -23 -48q-2 -1 -58 7z" />
    <glyph glyph-name="comma" unicode="," horiz-adv-x="138" 
d="M113 8q-21 -51 -94 -67q-11 -3 -12 3q-2 5 8 8q1 1 2 1q37 11 44 35q5 12 -5 20t-23.5 19t-15.5 27q-2 23 21 38q23 17 50 3q47 -21 25 -87z" />
    <glyph glyph-name="hyphen" unicode="-" horiz-adv-x="263" 
d="M76 118q-14 3 -21.5 5t-10.5 3.5t1 3.5t11.5 4t22.5 5q118 19 143 22q15 0 19 -3t2 -15q-8 -47 -23 -49q-14 -2 -144 24z" />
    <glyph glyph-name="period" unicode="." horiz-adv-x="126" 
d="M18 -18q-28 7 -20 55q11 62 79 56q25 -2 33.5 -20t-5.5 -44q-17 -26 -43 -38.5t-44 -8.5z" />
    <glyph glyph-name="slash" unicode="/" horiz-adv-x="224" 
d="M10 -122q74 518 141 744q3 15 85 15q6 0 10 -3t2 -8q-62 -162 -130 -390q-66 -226 -89 -353q-1 -6 -2.5 -13.5t-2 -10.5t-1 -6.5t-2 -5l-3 -3t-4.5 -2.5q-4 -2 -6 0t-1 7q0 8 3 29z" />
    <glyph glyph-name="zero" unicode="0" horiz-adv-x="301" 
d="M206 330q55 -1 79 -45.5t14 -118.5q-11 -71 -60 -122q-49 -50 -108 -51q-54 -2 -89 41q-34 42 -26 114q10 85 64 134q54 50 126 48zM211 159q29 152 -24 152q-30 0 -51.5 -40.5t-30.5 -109.5q-20 -147 38 -144q26 1 40.5 33t27.5 109z" />
    <glyph glyph-name="one" unicode="1" horiz-adv-x="192" 
d="M128 297l-11 -17q-6 -10 -27 -30q-19 -19 -40 -24q-9 -2 -15 1t-6 8q0 6 5 33q4 24 10 28l11 2q11 2 22 5.5t26.5 16t26.5 32.5q5 8 48 8q4 0 7 -1t5 -3t1 -6q-37 -130 -51 -258q-6 -55 -22 -77t-48 -26h-9.5t-7 3t-3 9t1 17.5t5 28t9.5 41.5q26 110 62 209z" />
    <glyph glyph-name="two" unicode="2" horiz-adv-x="307" 
d="M109 25q73 7 123 15q17 3 19 2q8 1 12 -30.5t4 -43.5q0 -14 -10 -14q-59 6 -145 23q-81 16 -98 27l-6 5q0 1 -1 3l-1 2q0 28 28 57t94 68q53 32 72 55q21 28 28 56q7 35 -7 57t-54 22q-51 0 -81 -24q-29 -25 -22 -48q7 -33 72 -33l7 1q6 -5 -6 -25.5t-32.5 -36.5
t-35.5 -9q-45 16 -45 70q-1 57 49 97q46 35 112 32q58 -3 88.5 -31t26.5 -73q-9 -89 -139 -164q-44 -24 -97 -43q-34 -9 -35 -24q3 0 15.5 1.5t29.5 3t35 2.5z" />
    <glyph glyph-name="three" unicode="3" horiz-adv-x="354" 
d="M166 131q-7 0 -9 1q-6 0 -11 2.5t-3 6.5t14 7h3q4 1 6 1q24 2 27 2q20 6 36.5 28t23.5 52q9 41 -6 68.5t-49 29.5q-40 3 -77 -20q-35 -23 -26 -58q10 -34 73 -27l7 1q7 -10 -22 -46q-28 -34 -53 -25q-43 16 -46 68q-3 58 45 97q44 37 118 34q58 -3 89 -38t22 -85
q-12 -60 -74 -86q49 -12 72 -48t13 -88q-17 -94 -92 -138q-77 -45 -157 -29q-43 9 -69.5 36.5t-26.5 73.5q0 39 20.5 76.5t53.5 59.5q26 14 56 5t55 -29q23 -19 19 -28l-11 -2q-45 -3 -69 -12q-41 -14 -59 -27t-23 -37q-7 -33 14 -60.5t59 -33.5q46 -7 84.5 29t55.5 104
q25 118 -48 135q-20 -2 -35 0z" />
    <glyph glyph-name="four" unicode="4" horiz-adv-x="334" 
d="M123 177l76 105q42 59 51 68q7 10 25 10h5h5h5h5t4.5 -0.5t3.5 -1.5t2.5 -2t1.5 -2.5v-3.5q-39 -166 -57 -318l53 5q24 0 19 -20q-15 -46 -24 -47q-9 -2 -55 1l-3 -34q-8 -60 -24 -79q-16 -20 -54 -24q-15 -2 -17 8q-1 8 13 91l7 43l-44 4q-47 2 -65 5q-5 0 -20 3h-3
q-23 5 -24 10q-2 12 -1 14q1 3 32 48zM227 276l3 16l-18 -31q-20 -34 -71 -141l-54 -112l37 6l49 8q26 137 54 254z" />
    <glyph glyph-name="five" unicode="5" horiz-adv-x="370" 
d="M169 358q150 10 166 5q5 1 9.5 -18t6 -35.5t1.5 -20.5q0 -14 -10 -14q-102 11 -167 23l-25 -68q-20 -56 -26 -74q107 13 175 -22.5t57 -118.5q-13 -91 -94 -141q-80 -50 -166 -33q-40 7 -67.5 38.5t-27.5 75.5q0 88 67 128q26 13 57 5q31 -7 54 -26q24 -18 19 -27
q0 -1 -11.5 -1.5t-32 -3.5t-37.5 -9q-37 -13 -52.5 -25t-21.5 -35q-10 -36 10 -64t62 -34q56 -9 93.5 28t48.5 111q14 79 -23.5 112.5t-114.5 23.5q-4 0 -9.5 1t-8.5 4t-2 5q8 108 17 162q-26 8 -29 11q-34 21 30 31q21 5 52 6z" />
    <glyph glyph-name="six" unicode="6" horiz-adv-x="383" 
d="M389 166q-7 -76 -68 -131q-62 -54 -136 -50q-84 -5 -122 68q-38 75 -19 186q24 142 105 208q81 67 173 50q34 -6 55.5 -31.5t17.5 -58.5q-3 -25 -21 -47t-47 -34q-31 -10 -63 -4q-20 4 -38 12t-27.5 16.5t-5.5 14.5l11 1q10 2 26.5 5t34 8t33 13.5t21.5 19.5
q38 57 -19 65q-127 18 -167 -228q-1 -1 -1 -5q48 35 112 40t108.5 -26.5t36.5 -91.5zM291 153q5 35 -3.5 59.5t-27 34t-41 10.5t-47 -9t-43.5 -27q-13 -98 5 -154t60 -55q79 0 97 141z" />
    <glyph glyph-name="seven" unicode="7" horiz-adv-x="272" 
d="M188 283q-134 -9 -141 -6q-10 4 -15 61l-1 14q-2 7 0.5 10.5t9.5 2.5q57 -6 144 -23q81 -16 98 -27q7 -7 7 -8q3 -5 -1 -9q-73 -54 -120.5 -142.5t-80.5 -227.5q-14 -61 -33 -77q-17 -17 -56 -19q-16 0 -16 9q-1 12 23 90q36 108 98 204q65 99 131 152q-28 -3 -47 -4z
" />
    <glyph glyph-name="eight" unicode="8" horiz-adv-x="335" 
d="M24 128q19 66 128 137q-36 35 -52 64.5t-13 66.5q5 40 34 65q52 47 124 41q94 -10 79 -93q-12 -67 -87 -118l8 -6q56 -58 74 -96t8 -89q-13 -66 -74 -94t-134 -15q-54 11 -81 50t-14 87zM179 241l-9 8q-85 -57 -100 -121q-10 -42 6 -75t52 -38q47 -7 80 13.5t43 63.5
q17 63 -72 149zM154 407q-2 -30 20 -57q11 -11 19 -21l26 -22q50 41 59 100q11 70 -40 72q-34 2 -58.5 -17.5t-25.5 -54.5z" />
    <glyph glyph-name="nine" unicode="9" horiz-adv-x="370" 
d="M17 171q8 78 68 131q62 54 137 50q84 4 121 -69q38 -74 19 -185q-24 -141 -106 -208q-80 -67 -172 -49q-34 6 -55.5 31.5t-17.5 57.5q3 25 21 47t47 34q30 10 62 4q31 -4 55 -19q23 -14 17 -23q0 -1 -10.5 -2.5t-27 -4.5t-34 -7.5t-33 -13t-21.5 -19.5q-37 -57 19 -66
q61 -9 103.5 45.5t63.5 183.5q0 2 1 3q-49 -35 -112.5 -39.5t-108 27.5t-36.5 91zM115 184q-5 -35 3.5 -59.5t27 -34t41 -10.5t47 9t43.5 27q13 99 -5 155t-60 54q-79 0 -97 -141z" />
    <glyph glyph-name="colon" unicode=":" horiz-adv-x="179" 
d="M34 -18q-29 8 -21 55q11 62 80 56q25 -2 33 -20t-6 -44q-16 -26 -42.5 -38.5t-43.5 -8.5zM71 171q-28 7 -20 55q11 62 79 56q25 -2 33.5 -19.5t-5.5 -44.5q-16 -26 -42.5 -38.5t-44.5 -8.5z" />
    <glyph glyph-name="semicolon" unicode=";" horiz-adv-x="181" 
d="M64 171q-28 7 -20 55q11 62 79 56q25 -2 33.5 -19.5t-5.5 -44.5q-16 -26 -42.5 -38.5t-44.5 -8.5zM113 8q-21 -51 -94 -67q-11 -3 -12 3q-2 5 8 8q1 1 2 1q37 11 44 35q5 12 -5 20t-23.5 19t-15.5 27q-2 23 21 38q23 17 50 3q47 -21 25 -87z" />
    <glyph glyph-name="less" unicode="&#x3c;" horiz-adv-x="245" 
d="M50 152l-29 -6l31 -7q36 -8 130 -24q5 -1 10 -24q5 -21 -1 -27q-19 -16 -32 -13q-9 3 -57 30q-38 22 -63 38q-18 13 -24.5 18.5t-5.5 7.5q-2 0 2 4q7 8 39 26q50 29 140 69q7 2 16.5 -1.5t8.5 -9.5q-8 -50 -19 -54q-6 -2 -146 -27z" />
    <glyph glyph-name="equal" unicode="=" horiz-adv-x="219" 
d="M46 81q-32 8 -33 10q2 3 37 11q112 18 142 21q15 1 19 -2.5t2 -15.5q-2 -18 -9 -32.5t-14 -15.5q-10 -1 -144 24zM58 167q-33 8 -32.5 11t36.5 10q85 17 143 22q15 1 18.5 -2.5t2.5 -15.5q-3 -19 -10 -33.5t-14 -14.5q-12 -1 -144 23z" />
    <glyph glyph-name="greater" unicode="&#x3e;" horiz-adv-x="202" 
d="M172 143l29 5q-1 0 -6 1.5t-12.5 3.5t-12.5 3l-55 10l-76 14q-4 1 -9 23q-4 21 1 28q16 16 32 13q8 -2 55 -29q50 -29 65 -39q20 -15 25 -19.5t4 -6.5q2 -2 -1 -4q-12 -12 -39 -26q-48 -28 -141 -69q-6 -3 -15.5 1t-8.5 10q8 50 19 54q3 1 146 27z" />
    <glyph glyph-name="question" unicode="?" horiz-adv-x="327" 
d="M70 125q-3 -10 -15 -7q-5 2 -4 5q36 163 125 240q97 83 106 161q12 91 -78 91q-48 0 -83 -30q-33 -29 -26 -60q5 -19 30.5 -20.5t42.5 3.5l13 3q6 -5 -12.5 -28.5t-46 -42.5t-41.5 -12q-44 17 -35 73q9 58 65 102q50 36 112 36t106 -32t38 -84q-10 -87 -136 -193
q-46 -39 -66 -58q-72 -68 -95 -147zM18 -18q-28 7 -20 55q11 62 79 56q25 -2 33.5 -20t-5.5 -44q-17 -26 -43 -38.5t-44 -8.5z" />
    <glyph glyph-name="at" unicode="@" horiz-adv-x="522" 
d="M380 104q-5 -68 17 -71q31 -4 71 38q39 42 59 113q15 73 7 135q-7 62 -53.5 100t-122.5 38q-112 0 -190.5 -75t-105.5 -210q-26 -130 27 -216t144 -99q59 -7 117 21q59 29 83 66q7 11 16 10q7 -1 -1 -15q-25 -46 -92 -78t-139 -22q-93 12 -149 104q-55 91 -31 223
q25 140 111 225t218 85q120 0 167 -87q47 -85 9 -213q-20 -73 -65 -120t-97 -56q-27 -5 -50 20.5t-24 63.5q-26 -80 -66 -84q-36 -4 -64 33q-28 38 -22 96q11 86 65 134q56 50 123 50q30 0 49.5 -11.5t21.5 -28.5q2 -14 -53 -18h-16t-11.5 0.5t-6 1.5t-1.5 3q16 31 -6 31
q-59 0 -83 -149q-12 -98 14 -104q4 -1 8 0q16 4 26.5 34t26.5 107l4 21q3 21 6 28q5 15 77 15q7 0 11 -3t1 -8q-22 -28 -30 -128z" />
    <glyph glyph-name="A" unicode="A" horiz-adv-x="522" 
d="M443 611q8 22 28 23q25 5 56 5q10 0 15 -3t3 -9q-98 -283 -106 -472q10 -1 16.5 -2t11 -2t6.5 -2t2 -2q-3 -3 -36 -8v-35q3 -54 26 -59q25 -4 44.5 38.5t35.5 132.5q2 11 9 11t5 -11q-14 -110 -49.5 -169t-82.5 -61q-29 -1 -47.5 28t-20.5 74q-2 27 -1 40l-57 -8l-49 -7
q-102 -146 -182 -132q-50 9 -57 57t30 103t103 82q13 4 16 -1q2 -6 -7 -10q-87 -40 -94 -95q-4 -37 26 -52q6 -3 18 -5q42 -6 94 48l-34 -3q-24 0 -19 20q15 46 24 47q6 2 78 -3q98 146 195 442zM286 167l74 -6q5 88 27 206q-44 -104 -101 -200z" />
    <glyph glyph-name="B" unicode="B" horiz-adv-x="589" 
d="M447 489q11 76 -33.5 108.5t-132.5 18.5q-60 -10 -117 -69q-55 -58 -75 -160q-1 -12 -13 -10q-8 2 -7 10q15 107 82 174q66 66 148 80q65 11 123 -0.5t94 -48.5t29 -92q-12 -98 -114 -153q68 -19 101 -65.5t21 -116.5q-10 -60 -72 -113q-63 -54 -148.5 -70t-193.5 14
q-48 14 -79.5 52t-39.5 81t8 87.5t57 70.5q31 20 61 30q10 3 14 -2.5t2 -19.5q-4 -26 -14 -36q-34 -10 -55 -23q-21 -12 -30.5 -43.5t-5.5 -67.5q6 -37 33 -68.5t69 -42.5q117 -34 198 9t99 130q14 67 -6 112t-66 60q-51 -16 -88 -13q-21 2 -28.5 11.5t2 19t31.5 12.5
q37 4 66 1q68 45 80 133zM152 133q7 105 27 236q20 133 43 211q4 15 83 15q7 0 11 -3.5t1 -8.5q-54 -133 -95 -435q-10 -92 -58 -112q-15 -6 -16 4q-2 15 4 93z" />
    <glyph glyph-name="C" unicode="C" horiz-adv-x="387" 
d="M441 216q-14 -98 -61 -156.5t-111 -73.5q-118 -26 -189 47q-70 73 -54 225q19 176 124 290q103 112 206 92q85 -16 70 -130q-7 -50 -30 -92.5t-58 -65.5q-27 -16 -61 -14q-30 1 -60 13q-26 12 -20 21l5 1q18 2 37 10q103 35 126 135q20 93 -30 101q-67 10 -131 -88
q-62 -98 -80 -260q-15 -134 28 -205q44 -71 127 -53q51 12 92 65t56 138q2 11 9 11t5 -11z" />
    <glyph glyph-name="D" unicode="D" horiz-adv-x="572" 
d="M93 387q15 108 85 173q71 68 151 81q135 23 208 -62q75 -84 51 -240q-26 -164 -152 -265q-125 -100 -264 -80q-85 12 -124 69q-39 59 -23 125q17 68 78 111q36 24 61 31q21 6 16 -21q-5 -29 -14 -38q-34 -10 -55 -23q-53 -31 -63 -85t29 -98.5t111 -49.5q108 -10 193 72
q87 84 115 241q27 146 -21 226q-48 82 -164 62q-54 -7 -114 -63q-65 -63 -84 -166q-1 -12 -13 -10q-8 2 -7 10zM182 133q7 105 27 236q20 133 43 211q6 15 83 15q6 0 10.5 -3.5t2.5 -8.5q-57 -136 -95 -435q-13 -99 -46 -112q-21 -9 -25 13q-4 23 0 84z" />
    <glyph glyph-name="E" unicode="E" horiz-adv-x="408" 
d="M363 640q39 -9 63.5 -40.5t16.5 -68.5q-15 -71 -72 -111q-26 -15 -57 -8q-32 8 -57 24q-25 17 -20 27l22 3q46 5 82.5 26.5t45.5 48.5t-1.5 50t-41.5 28q-52 9 -94.5 -25t-57.5 -102q-11 -48 -1.5 -88.5t35.5 -61.5q39 6 77 3q30 -1 28 -16q-1 -17 -36 -21h-4
q-31 -4 -66 2q-96 -33 -111 -149q-14 -85 36 -129q49 -42 141 -19q52 14 93 66t56 137q1 9 9 11q4 1 6 -5v-6q-13 -101 -64 -159q-50 -56 -109 -71q-122 -29 -200 19.5t-63 145.5q11 64 52 109t103 67q-46 24 -66.5 64.5t-9.5 87.5q21 91 106 137t159 24z" />
    <glyph glyph-name="F" unicode="F" horiz-adv-x="488" 
d="M305 216l-16 2q-91 9 -91 14q6 6 93 20l20 3l7 72q4 63 4 203q0 12 81 22q14 0 14 -11q0 -121 -10 -204q-2 -20 -11 -69q18 2 56 5q22 0 18 -19q-14 -44 -23 -48q-11 -2 -66 3q-40 -138 -123 -206q-80 -67 -162 -50q-41 9 -66 43.5t-24 74.5q2 41 37.5 77t93.5 50
q41 8 69 5q16 -4 13.5 -17t-12.5 -28t-13 -14q-37 5 -60 2q-44 -6 -72.5 -30t-32.5 -54q-3 -30 18 -55t61 -31q67 -12 120.5 50.5t76.5 189.5zM216 537q-91 -29 -132.5 -70.5t-27.5 -87.5q15 -46 69 -67.5t131 -13.5q7 0 11 -4.5t2 -9.5t-9 -6q-80 -11 -140.5 14t-80.5 76
q-28 69 21.5 150t187.5 119q182 48 480 18q18 -1 -8 -51l-2 -4q-16 -33 -26 -33q-309 21 -476 -30z" />
    <glyph glyph-name="G" unicode="G" horiz-adv-x="422" 
d="M271 -110l22 166l2 17q-35 -77 -95 -86q-92 -17 -140 56q-47 73 -25 216q12 81 49.5 157.5t87.5 128.5q49 52 104 78t102 17q33 -6 54 -41t17 -82q-6 -51 -33 -105q-25 -54 -62 -78q-28 -15 -60 -10q-33 6 -57 22q-24 17 -18 26h3q11 3 21 4q123 26 146 131q10 45 1 76.5
t-33 35.5q-68 9 -134 -89q-64 -97 -90 -260q-21 -138 -1 -202t80 -55q37 6 59 44.5t37 114.5q9 56 15 80q4 16 77 16q7 0 11 -3t2 -8q-16 -35 -40 -182q-18 -103 -32 -163q22 6 71 12q9 1 11 -5q0 -9 -12 -10q-39 -5 -74 -16q-81 -354 -193 -369q-45 -6 -68 41t-12 106
q14 74 68 130t139 89zM168 -414q54 3 98 275q-98 -60 -120 -171q-9 -47 -2.5 -76t24.5 -28z" />
    <glyph glyph-name="H" unicode="H" horiz-adv-x="630" 
d="M542 104q3 -62 22 -66q13 -3 27 12t29.5 57.5t27.5 108.5q2 11 9 11t5 -11q-14 -102 -47.5 -158.5t-76.5 -58.5q-30 -2 -52 23t-25 66q-1 7 -1 43q-22 -3 -133 -13q-48 -105 -113 -138q-64 -34 -121 -16q-41 12 -64 53t-21 88q3 50 41 93.5t101 61.5q43 11 73 8
q27 -1 4 -41q-12 -19 -17 -19q-27 10 -66 0q-51 -12 -79.5 -45.5t-31 -69t17 -67.5t55.5 -43q107 -32 159 130q-6 0 -27.5 -1.5t-25.5 -1.5q-23 0 -19 19q13 43 24 48q41 0 65 -1q33 160 29 448q0 13 71 19l11 1q13 0 13 -11q0 -287 -57 -460l111 -7q9 238 84 457
q4 16 73 16q9 0 14.5 -3t4.5 -9q-89 -258 -95 -466q49 -7 49 -10q-5 -2 -49 -10q0 -30 1 -37z" />
    <glyph glyph-name="I" unicode="I" horiz-adv-x="373" 
d="M205 641q85 15 132 -53q46 -67 25 -223q-35 -247 -127 -339q-82 -82 -164 -63q-42 8 -57 55.5t9.5 99.5t83.5 72q42 13 73 12q27 -1 5 -41q-6 -11 -10 -16t-6 -4q-31 7 -67 -3q-54 -17 -67 -69q-14 -47 15 -73q15 -14 37 -15q62 -2 104 67q52 82 76 312q18 144 0 205
t-79 51q-35 -6 -57.5 -37.5t-26.5 -74.5t17.5 -90.5t64.5 -80.5q6 -4 5 -9.5t-6.5 -7t-12.5 0.5q-46 33 -69 85.5t-17 103.5t38 89t81 46z" />
    <glyph glyph-name="J" unicode="J" horiz-adv-x="432" 
d="M97 -476q-47 -2 -66 42q-20 44 -8 105q28 145 230 215q41 192 69 474q15 151 -1 208q-17 58 -78 48q-35 -6 -57 -36.5t-25 -72.5q-2 -42 20.5 -89t64.5 -79q9 -7 3 -16t-16 -2q-65 47 -87 117q-23 71 8 130q31 60 106 73q97 16 138.5 -53t20.5 -223q-37 -267 -89 -457
q63 12 122 16q11 1 10.5 -6t-11.5 -8q-72 -7 -127 -23q-50 -178 -109 -269.5t-118 -93.5zM127 -414q61 9 120 272q-119 -59 -143 -168q-9 -47 -2 -77t25 -27z" />
    <glyph glyph-name="K" unicode="K" horiz-adv-x="463" 
d="M45 73q8 69 13 156q-2 0 -20 2q-33 2 -31 16q0 15 36 26l18 4q5 163 -1 352q0 15 84 15q12 0 12 -11q-3 -177 -17 -358q9 -2 28 -10q71 29 114 128q44 101 57 230q1 16 82 16q10 0 15 -3t4 -9q-28 -139 -93 -235.5t-157 -136.5q45 -26 87 -77q14 -16 31.5 -39t28 -36
t22.5 -26.5t20.5 -19.5t15.5 -6q26 0 47 33t39 132q2 11 9 11t5 -11q-17 -112 -53 -177q-38 -67 -78 -68q-18 -1 -43.5 28.5t-51.5 74.5q-25 43 -61 87t-72 68q-11 -107 -20 -148q-16 -84 -71 -106q-8 -4 -10 5q-1 9 11 93z" />
    <glyph glyph-name="L" unicode="L" horiz-adv-x="542" 
d="M401 -74q-23 1 -55 14q-34 14 -80 40q-54 28 -62 32q-65 -93 -147 -65q-35 11 -42.5 47t14.5 72t62 46q39 12 91 1q19 88 27 214q6 92 31.5 160.5t65.5 102.5q79 68 169 50q40 -9 65 -40.5t21 -76.5q-13 -125 -84 -171q-28 -14 -62 -10q-32 4 -60 20q-26 15 -20 24
q5 0 27 2q108 13 133 124q20 98 -41 107q-114 17 -153 -282q-18 -146 -56 -245q41 -17 77 -38q96 -53 121 -52q45 2 74 51.5t49 162.5q2 11 8.5 11t5.5 -11q-18 -133 -66 -215q-48 -83 -113 -75zM78 -29q43 -15 78 62q-49 19 -75 7q-28 -12 -30 -35.5t27 -33.5z" />
    <glyph glyph-name="M" unicode="M" horiz-adv-x="658" 
d="M587 135q-13 -107 10 -108q13 -5 31 14t37 65.5t31 109.5q2 11 8.5 11t5.5 -11q-14 -101 -54 -161t-83 -67q-36 -7 -52 27.5t-11 99.5q1 27 9 87t16.5 117.5t16 119.5t8 93t-8.5 37q-55 0 -149 -454q-6 -71 -16 -88q-11 -17 -46 -30q-7 -3 -11 1t-5 15q-2 18 3 102
q2 20 7 57.5t10.5 78t12 86.5t11 86t7 73.5t1 53t-7.5 19.5q-25 0 -66 -137q-41 -139 -78 -317q-1 -1 -1 -5q-8 -66 -17 -83q-11 -18 -40 -30q-15 -6 -17 5q-3 10 2 92l11 134l9 115q21 264 -25 283q-15 6 -37 -7q-37 -21 -57 -81q-19 -57 -5 -138q15 -79 68 -141
q5 -6 4 -12.5t-6.5 -7.5t-11.5 3q-60 63 -75 152q-15 88 14 161q28 71 87 94q24 9 46 6.5t43 -18t33.5 -48.5t18 -85t-3.5 -128q41 153 80.5 216.5t82.5 51.5q41 -11 0 -319q46 192 90 263q43 70 92 56q34 -10 21 -145q-3 -43 -13 -124q-12 -100 -17 -133q-9 -62 -13 -107z
" />
    <glyph glyph-name="N" unicode="N" horiz-adv-x="542" 
d="M480 202l-9 -67q-15 -105 10 -108q14 -5 32 14t36.5 65.5t30.5 109.5q0 7 4 10t7 0t3 -10q-13 -99 -55 -161q-40 -60 -82 -67q-39 -5 -55.5 28.5t-8.5 98.5q10 81 19 136l18 123q8 48 12 92q10 86 -13 97q-26 11 -57 -35q-52 -75 -153 -452q-6 -41 -16 -54
q-10 -15 -37 -25q-14 -6 -17 6q-1 13 3 91q3 45 20 249q22 267 -27 283q-14 5 -35 -7q-39 -22 -58 -81q-19 -58 -4 -138q15 -79 68 -141q5 -6 3 -12.5t-7.5 -7.5t-10.5 3q-60 63 -75 152q-15 88 14 161q28 71 88 94q44 16 74.5 -3.5t47.5 -90t-1 -208.5q-9 -73 -14 -134
q24 87 48 156.5t44 115t40 80t36 50.5t31.5 26t28 8t23.5 -5q36 -14 26 -147q-6 -88 -11 -131z" />
    <glyph glyph-name="O" unicode="O" horiz-adv-x="442" 
d="M450 335q-19 -125 -93 -226q40 3 71.5 34t45.5 83q3 9 10 9q6 -1 3 -11q-15 -63 -54 -97.5t-90 -34.5q-73 -88 -154 -93q-86 -5 -133 88q-46 91 -31 217q18 155 110 255q93 99 196 103q17 0 23.5 -6t2 -14t-17.5 -13q-6 -5 -19.5 0t-14.5 5q-56 0 -113 -91
q-57 -92 -76 -226q-9 -80 -8 -143q1 -69 26 -112t69 -38q55 6 92 76q-43 15 -71 49q-57 64 -64 164t32 180q40 80 105 97q76 18 123 -62q46 -79 30 -193zM245 158q26 -29 58 -42q31 67 56 212q19 105 -4 179q-22 73 -70 60q-46 -13 -77 -85q-32 -71 -24 -166q7 -94 61 -158z
" />
    <glyph glyph-name="P" unicode="P" horiz-adv-x="569" 
d="M314 365q4 61 4 239q0 9 33.5 15.5t47.5 6.5q14 2 14 -10q0 -158 -10 -242q-11 -81 -26 -129q85 1 137 55t66 152q15 110 -50 164q-64 55 -172 37q-71 -12 -121 -51.5t-69 -92.5q-29 -75 -10 -155.5t73 -105.5q9 -6 4.5 -14.5t-15.5 -4.5q-58 27 -84.5 92.5t-12.5 139.5
q15 78 79.5 138.5t172.5 78.5q77 13 151 -7q73 -19 117 -76q45 -56 35 -132q-17 -116 -105 -179t-202 -61q-43 -138 -124 -213q-79 -73 -155 -57q-41 9 -63 44t-19 78t36.5 80t87.5 49q33 8 67 5q16 -4 14 -17t-12 -28t-13 -14q-37 5 -60 2q-49 -7 -77.5 -45.5t-16 -79.5
t67.5 -51q77 -14 137 92q61 106 73 297z" />
    <glyph glyph-name="Q" unicode="Q" horiz-adv-x="520" 
d="M517 356q-15 -99 -57 -186.5t-99 -145.5q17 -12 57 -49q72 -67 100 -72q48 -7 82 33q23 27 31 24q7 -1 -14 -29q-81 -109 -150 -88q-33 10 -67 44q-18 17 -29 29q-14 15 -30 37q-22 27 -27 32q-75 -52 -142 -26q-31 13 -39 39.5t9 50.5t52 32q58 12 125 -28
q78 108 107 290q10 85 11 152t-19.5 106.5t-61.5 35.5q-50 -5 -82 -58.5t-55 -156.5q66 -22 103 -79q32 -45 35 -99t-26 -92t-82 -37q-65 0 -107 64q-42 65 -29 160q5 33 16 69q-55 -8 -108 -42q-8 -5 -12 5q-1 7 4 13q61 41 123 47q35 99 98 162q64 66 135 69q83 2 126 -86
q44 -90 22 -220zM300 337q-28 45 -85 64l-11 -56q-16 -92 0.5 -150t56.5 -58q34 -2 54 28.5t17 79t-32 92.5zM193 -17q45 -17 94 32q-49 52 -90 38q-31 -16 -30.5 -38t26.5 -32z" />
    <glyph glyph-name="R" unicode="R" horiz-adv-x="670" 
d="M314 365q4 61 4 239q0 12 81 22q14 2 14 -10q0 -158 -10 -242q-8 -55 -16 -89q30 -9 54 -27q117 43 139 200q13 109 -51 161t-171 34q-87 -13 -141 -73q-52 -59 -59 -125q-8 -66 12 -126t60 -81q7 -3 7.5 -9t-5 -9.5t-12.5 -0.5q-44 20 -70 67.5t-25 105.5q2 62 23 115
q24 59 84.5 103t142.5 58q79 13 151 -6q74 -18 117 -72q45 -55 35 -131q-12 -88 -69.5 -148.5t-144.5 -84.5q27 -27 55 -80q49 -88 64 -103q10 -10 20 -10q60 0 93 177q1 10 8 11q2 1 3.5 -0.5t1.5 -4.5q1 -3 0 -6q-15 -110 -55 -176q-40 -68 -81 -69q-20 -2 -43 30
q-22 31 -42 72t-51 84q-32 44 -66 62q-43 -138 -124 -213q-79 -73 -155 -57q-41 9 -63.5 44t-19.5 78t36.5 80t87.5 49q35 8 68 5q16 -4 14 -17t-12 -28t-13 -14q-37 5 -60 2q-49 -7 -77.5 -45.5t-16 -79.5t67.5 -51q61 -11 113 56t79 194q-4 0 -5 1q-21 4 -28 15t2.5 23
t30.5 18l2 1q1 0 3.5 0.5t4.5 0.5q7 52 8 80z" />
    <glyph glyph-name="S" unicode="S" horiz-adv-x="505" 
d="M375 11q12 49 -6 91q-17 41 -96 167l-22 36q-69 121 -59 202q11 84 78 121q68 39 159 18q44 -11 70 -43.5t26 -72.5q0 -38 -26 -74t-70 -53q-23 -11 -53.5 3.5t-48 35.5t-9.5 29l13 -2q13 -2 31 -3t38 1t37 13t25 30q17 35 3 70q-13 36 -58 46q-45 9 -80 -6.5t-51 -50.5
q-17 -32 -4 -91t54 -123q90 -140 110 -199q21 -62 2 -130q-22 -85 -116 -117q-92 -31 -182 10q-61 27 -96.5 78t-36.5 106q-1 56 23 105t67 73q30 13 64 6q34 -6 62 -23q27 -17 20 -25l-16 -1q-25 0 -52 -6t-58.5 -28t-41.5 -58q-19 -71 5.5 -128.5t86.5 -83.5
q65 -28 130 -4q65 22 78 81z" />
    <glyph glyph-name="T" unicode="T" horiz-adv-x="438" 
d="M318 327q4 63 4 203q0 12 81 22q14 0 14 -11q0 -121 -10 -204q-12 -101 -44.5 -182t-77.5 -128q-92 -94 -189 -74q-41 9 -66 43.5t-24 74.5q2 41 37.5 77t93.5 50q41 8 69 5q16 -4 13.5 -17t-12.5 -28t-13 -14q-37 5 -60 2q-44 -6 -72.5 -30t-32.5 -54q-3 -30 18 -55
t61 -31q79 -13 139 75q61 91 71 276zM216 537q-91 -29 -132.5 -70.5t-27.5 -87.5q15 -46 69 -67.5t131 -13.5q7 0 11 -4.5t2 -9.5t-9 -6q-80 -11 -140.5 14t-80.5 76q-28 69 21.5 150t187.5 119q182 48 480 18q18 -1 -8 -51l-2 -4q-16 -33 -26 -33q-309 21 -476 -30z" />
    <glyph glyph-name="U" unicode="U" horiz-adv-x="443" 
d="M198 -21q-131 53 15 643q3 10 34 14q28 4 50 4q15 0 12 -12q-60 -237 -84 -366q-23 -133 -19 -174q4 -45 31 -54q19 -7 37 11.5t42 71.5q44 97 130 389q15 63 32 112q4 15 74 15q22 0 18 -12q-96 -277 -87 -523q0 -41 2 -54t12 -17q15 -4 31 13.5t32.5 61.5t28.5 109
q0 7 4 10t7 0t3 -10q-14 -103 -51 -165.5t-80 -64.5q-32 -2 -49.5 23t-20.5 78q-7 85 8 218q-64 -194 -115 -267.5t-97 -53.5z" />
    <glyph glyph-name="V" unicode="V" horiz-adv-x="412" 
d="M79 -21q-36 14 -57 97q-11 51 -14 116q-5 151 45 429q1 10 82 21q6 0 10 -3t3 -9q-52 -265 -57 -415q-2 -64 4 -102q11 -65 36 -73t60 18t68 80q-25 10 -47 32q-43 43 -58 104t-2 121q19 86 73 160.5t108 88.5q86 26 120 -61t-3 -220q-34 -115 -117 -217q45 5 83 39.5
t58 88.5q4 10 12 7q4 -1 1 -9q-21 -65 -67.5 -104t-101.5 -41q-64 -77 -135 -120q-69 -42 -104 -28zM232 181q17 -17 37 -27q53 91 83 203q70 265 -9 267q-11 0 -20 -4q-44 -14 -92 -90q-48 -75 -60 -170q-10 -94 61 -179z" />
    <glyph glyph-name="W" unicode="W" horiz-adv-x="742" 
d="M514 -21q-74 29 -95 161q-54 -85 -118 -133q-61 -46 -104 -28q-146 59 -40 642q3 10 83 21q6 0 10 -3t3 -9q-52 -271 -57 -415q-3 -161 52 -175q50 -18 92 47t72 201q0 26 3 56q4 65 31 125q25 58 55 66q14 4 23.5 -5.5t13.5 -31.5q10 -62 -23 -149q-4 -12 -7 -18l-6 -15
q-2 -2 -2 -4q-6 -83 -4.5 -134.5t14.5 -79.5q14 -29 25 -40.5t30 -17.5q58 -21 123 98q-32 15 -54 39q-52 52 -64 129q-10 76 12 144q22 67 68 122q47 56 100 72q56 17 92 -18t41.5 -103.5t-18.5 -159.5q-35 -121 -110 -222q47 0 83.5 31.5t51.5 89.5q4 8 11 8q4 -3 2 -11
q-17 -68 -60 -103t-101 -31q-62 -82 -124 -121q-64 -41 -104 -25zM655 187q21 -21 42 -32q38 79 72 202q68 259 -5 266q-11 2 -25 -3q-53 -16 -100 -92q-46 -73 -51 -166q-4 -90 67 -175z" />
    <glyph glyph-name="X" unicode="X" horiz-adv-x="634" 
d="M549 645l2 10q1 10 41 15q40 4 52 3q14 0 11 -12l-1 -12q-46 -297 -184 -495q33 -74 52 -97q21 -26 46 -30q14 -5 31 14t34 64.5t29 110.5q0 7 4 10t7 0t3 -10q-15 -100 -51.5 -164t-79.5 -71q-31 -5 -60 20t-66 88q-82 -92 -171 -133q-88 -40 -153 -27q-31 7 -53 30
t-27.5 54.5t3.5 66t43 68t87 55.5q36 15 66 16q13 1 15 -8.5t-6 -28.5q-9 -22 -15 -23q-33 0 -59 -8q-40 -13 -67.5 -36t-36.5 -48.5t-6.5 -50t21.5 -42t48 -22.5q62 -12 138 36t144 156q-37 74 -83 180q-99 225 -129 273q-40 59 -73 40q-35 -22 -46 -86q-9 -61 14 -143
q23 -80 77 -142q5 -6 1.5 -12.5t-11 -8t-13.5 2.5q-61 65 -83 154q-22 90 -1 166q22 75 79 100q62 27 126.5 -48t139.5 -265l49 -123q81 174 112 413z" />
    <glyph glyph-name="Y" unicode="Y" horiz-adv-x="414" 
d="M82 -21q-26 10 -37 67q-20 125 47 573q4 13 71 19l11 1q7 0 10.5 -3t2.5 -8q-70 -458 -71 -528q-2 -53 17 -60q22 -9 57 47q20 32 41 85q49 125 100 361q7 41 18 84q3 15 86 15q8 0 11 -2.5t2 -7.5q-12 -32 -39 -189q-54 -319 -108 -523q35 9 79 14q9 1 11 -5
q-1 -7 -11 -10q-44 -6 -84 -18q-93 -354 -196 -367q-44 -6 -68 41q-23 48 -13 106q15 73 74 130t149 90q27 156 59 415q-16 -59 -34.5 -108.5t-35.5 -83.5t-35 -61t-33.5 -41.5t-31 -25t-27.5 -10t-22 2.5zM123 -414q63 4 115 280q-62 -32 -100.5 -78t-48.5 -98
q-9 -42 3 -73.5t31 -30.5z" />
    <glyph glyph-name="Z" unicode="Z" horiz-adv-x="633" 
d="M252 655q67 2 101 -5q17 -2 50 -10q15 -3 52 -11.5t46 -10.5q78 76 150 66q16 -2 27 -13.5t13 -27.5t-2.5 -32.5t-18.5 -31t-35 -20.5q-34 -10 -103 -7q-16 -33 -78 -176q-78 -182 -153 -288q43 -16 92 -37q124 -50 159 -49q45 2 74 51.5t50 162.5q1 10 8 11
q2 1 3.5 -0.5t1.5 -4.5q1 -3 0 -6q-19 -140 -67.5 -218t-116.5 -75q-42 1 -117 36l-72 33l-68 31q-87 -94 -155 -76q-32 7 -43.5 43.5t6 74.5t58.5 47q50 14 129 -5q50 97 122 279q40 103 89 173q-167 17 -241 -3q-90 -25 -132 -77.5t-28 -124.5q13 -65 71.5 -93.5
t141.5 -13.5q7 1 11 -3.5t2.5 -9.5t-9.5 -6q-85 -19 -154 12q-68 32 -87 103q-16 64 5 132q23 70 80 120q58 51 138 60zM106 -33q44 -8 98 74q-66 25 -94 14q-38 -16 -40 -49q0 -32 36 -39zM640 669q-23 2 -41 -11.5t-38 -49.5q41 -3 74 5q22 5 30 18.5t0 25t-25 12.5z" />
    <glyph glyph-name="bracketleft" unicode="[" horiz-adv-x="388" 
d="M40 -193q-28 6 -31 9q-1 0 -2 3t-0.5 12t3.5 22q22 151 69 394q48 243 90 386q3 7 36 12l5 2q71 12 171 22q15 1 18.5 -2t2.5 -16q-3 -19 -10 -33.5t-14 -14.5q-11 -2 -119 14q-62 -164 -137 -408q-70 -229 -93 -351l-8 -35l23 5q75 12 171 22q15 1 19 -2.5t2 -15.5
q-8 -48 -23 -48q-8 -2 -77 9q-55 7 -96 14z" />
    <glyph glyph-name="backslash" unicode="\" horiz-adv-x="137" 
d="M126 -122q0 1 -3 14.5t-9.5 41.5t-13.5 60q-27 114 -36 164l-30 153q-35 185 -40 312q0 14 80 14q6 0 11.5 -4t4.5 -9q-10 -152 8 -373q20 -221 46 -368q6 -36 3 -39q-1 -1 -3 -2q-4 -1 -6 0t-5 9.5t-7 26.5z" />
    <glyph glyph-name="bracketright" unicode="]" horiz-adv-x="388" 
d="M359 645q30 -9 31 -10q1 0 2 -3t0.5 -12t-3.5 -22q-24 -165 -70 -395q-45 -235 -89 -385q-3 -8 -36 -12l-5 -1q-63 -13 -171 -23q-15 0 -18.5 3t-2.5 15q8 48 24 49q9 2 119 -15q69 185 136 404q72 238 95 355q4 30 6 35l-22 -4q-67 -13 -171 -23q-15 0 -19 3t-2 15
q8 47 23 49q8 2 78 -9q18 -3 40.5 -6t35 -5t19.5 -3z" />
    <glyph glyph-name="asciicircum" unicode="^" horiz-adv-x="203" 
d="M12 358l59 20q53 20 81 49h2h1q33 -39 83 -75q9 -7 -18 -19q-40 -17 -51 -4q-15 21 -20 79q-34 -50 -73 -78q-17 -11 -53 10q-24 14 -11 18z" />
    <glyph glyph-name="underscore" unicode="_" horiz-adv-x="325" 
d="M45 -6q-40 4 -40 7q0 1 4 4q8 5 40 6q1 0 122 5q103 4 144 8q6 1 14.5 -5.5t6.5 -12.5q-3 -7 -10 -15t-13 -8q-4 -1 -128 4q-90 3 -140 7z" />
    <glyph glyph-name="grave" unicode="`" horiz-adv-x="146" 
d="M21 410q-5 1 -5.5 5t3 10t11.5 14q30 28 52 24l6 -3q20 -15 44 -53q28 -42 39 -68q3 -8 2.5 -12.5t-2.5 -4.5h-3q-23 30 -54 47q-33 18 -93 41z" />
    <glyph glyph-name="a" unicode="a" horiz-adv-x="283" 
d="M204 104q-5 -69 11 -71t30 14q37 37 61 169q1 9 9 11q4 1 6 -5v-6q-15 -100 -47.5 -154.5t-76.5 -61.5q-27 -5 -47 20t-21 64q-26 -80 -65 -84q-38 -5 -66 34q-30 40 -23 95q9 82 69 133q62 51 122 51q23 0 46 -12.5t25 -27.5q1 -13 -54 -18q-36 -1 -34 5q16 31 -6 31
q-62 0 -83 -149q-5 -33 -4 -57t8 -37t18 -10q25 6 44 100l11 55q4 28 8 35q5 15 77 15q6 0 10.5 -3t1.5 -8q-23 -32 -30 -128z" />
    <glyph glyph-name="b" unicode="b" horiz-adv-x="278" 
d="M66 -1q-40 3 -62 43q-22 39 -20 86q10 296 115 608q5 15 83 15q6 0 10 -3t2 -8q-51 -135 -84 -270q-33 -140 -41 -205q-8 -66 -10 -122q0 -9 -2.5 -35t-2.5 -31q0 -54 17 -56q18 -3 34.5 19t29.5 64q-2 1 -20 14q-26 22 -31 63t13.5 79t52.5 50q43 16 71 -19
q29 -35 15 -107q-8 -39 -24 -67q59 20 80 102q1 9 8 8.5t4 -11.5q-12 -49 -40 -81t-64 -40q-29 -44 -67 -71t-67 -25zM138 131l3 -3q11 42 14 56q20 89 -1 89q-5 0 -10 -4q-25 -16 -27 -68q-1 -51 21 -70z" />
    <glyph glyph-name="c" unicode="c" horiz-adv-x="224" 
d="M261 216q-13 -100 -65 -156q-51 -54 -106 -60q-48 -5 -84 34t-30 95q10 82 69 133t119 51q33 0 34 -11q2 -9 1 -13q0 -3 -2 -12t-5 -20t-4 -17q-6 -30 -6 -46l1 -2q0 -5 -26 -10q-64 -10 -70 -2q6 12 17.5 28.5t20 28t16.5 25t7.5 19t-7.5 10.5q-12 4 -27.5 -12
t-32.5 -52q-15 -34 -23 -85q-7 -46 7 -85q14 -37 43 -32q34 4 79 52q43 46 60 139q2 11 8.5 11t5.5 -11z" />
    <glyph glyph-name="d" unicode="d" horiz-adv-x="292" 
d="M346 740q-118 -308 -138 -636q-5 -70 11 -71q15 -4 31 13t32.5 61t28.5 109q2 11 9 11t5 -11q-15 -99 -47.5 -154t-75.5 -62q-28 -4 -48.5 21t-20.5 63q-26 -80 -65 -84q-36 -4 -66 33q-28 39 -24 96q9 83 57 135q48 55 104 50q8 -2 13 -5q31 229 99 427q5 15 83 15
q6 0 10 -3t2 -8zM79 38h7q14 3 24.5 35t26.5 107q0 9 3 15l2 23q-2 2 0 5q0 5 1.5 20t1.5 19q0 27 -17 29q-26 3 -40.5 -33.5t-23.5 -115.5q-12 -97 15 -104z" />
    <glyph glyph-name="e" unicode="e" horiz-adv-x="256" 
d="M286 216q-13 -99 -69 -155q-53 -55 -111 -61q-50 -6 -95 34q-44 41 -38 95q11 81 75 130t128 54q31 2 47.5 -15t7.5 -46q-21 -66 -171 -159q7 -33 25 -52.5t39 -15.5q32 5 77 44q53 48 71 147q2 11 9 11t5 -11zM58 142q-3 -12 -1 -32q24 19 43 42.5t28.5 44.5t14 39
t2.5 30t-10 15q-24 7 -45.5 -31t-31.5 -108z" />
    <glyph glyph-name="f" unicode="f" horiz-adv-x="174" 
d="M92 -429q-121 80 -32 665q-10 15 -32 41l-4 4q-6 12 13 15h3q4 1 12.5 2.5t17.5 2.5q40 245 105 435q5 15 83 15q6 0 10 -3t2 -8q-75 -198 -115 -421q23 5 56 8q4 0 13 -19q10 -19 9 -25q-1 -21 -21 -24q-8 -1 -66 6l-4 -24l-12 -82q49 -99 75 -218q27 -117 19 -210
q-4 -50 -19 -88t-34 -55.5t-40.5 -24t-38.5 7.5zM147 -241q11 204 -26 339q-64 -436 -26 -474q19 -20 36 30q11 36 16 105z" />
    <glyph glyph-name="g" unicode="g" horiz-adv-x="270" 
d="M159 308q19 -4 22 -22q29 35 71 35q17 -1 6 -12q-19 -24 -34 -130q-26 -157 -43 -236q34 9 76 14q7 0 9.5 -3.5t0 -7t-9.5 -4.5q-42 -6 -80 -18q-39 -178 -83 -263t-99 -93q-37 -4 -67 38t-19 98q13 68 68 125t138 91q0 7 7 59l12 86q-21 -60 -59 -65q-37 -4 -67 33
q-29 40 -22 96q10 90 66 140t107 39zM13 -381q54 3 97 274q-97 -59 -119 -170q-6 -32 -5 -55.5t8 -36.5t19 -12zM93 38q26 6 59 172l4 22v2q16 59 -10 60q-23 2 -44 -40.5t-31 -111.5q-5 -33 -4 -57t8 -37t18 -10z" />
    <glyph glyph-name="h" unicode="h" horiz-adv-x="294" 
d="M219 165l-3 -30q-11 -107 10 -108q14 -5 30.5 14t33.5 64.5t29 110.5q2 11 9 11t5 -11q-12 -99 -46 -157t-78 -65q-37 -7 -56 26t-14 95q1 26 8 77q6 48 0 50q-4 1 -11 -3q-43 -22 -75 -139q-4 -53 -18 -73t-41 -30q-15 -6 -16 4q-2 16 2 93q20 351 117 642q5 15 83 15
q6 0 10 -3t2 -8q-105 -274 -134 -571q28 71 63.5 110t70.5 35q23 -3 26 -30q3 -29 -7 -119z" />
    <glyph glyph-name="i" unicode="i" horiz-adv-x="155" 
d="M69 97q-5 -69 10 -70q15 -3 31 14.5t32.5 62.5t28.5 112q2 11 8.5 11t5.5 -11q-14 -101 -47 -158.5t-76 -63.5q-28 -4 -48 22t-20 66q0 137 20 203q5 15 77 15q7 0 11 -3.5t1 -8.5q-24 -33 -34 -191zM42 329q-12 2 -18.5 17t-2.5 38q11 62 79 56q25 -3 33.5 -20t-5.5 -44
q-17 -26 -43.5 -39.5t-42.5 -7.5z" />
    <glyph glyph-name="j" unicode="j" horiz-adv-x="132" 
d="M-5 88q20 153 31 197q5 15 77 15q4 0 6.5 -0.5t5 -3t1.5 -6.5q-19 -45 -41 -183q-18 -103 -32 -163q42 9 71 13q7 0 10 -3.5t0 -7t-10 -4.5q-29 -3 -74 -16q-79 -347 -194 -364q-36 -4 -63 41q-28 44 -17 101q14 69 69 125.5t138 90.5q6 42 22 168zM-130 -381
q55 3 98 274q-97 -58 -120 -170q-6 -32 -5 -55.5t8 -36.5t19 -12zM53 329q-12 2 -18.5 17t-2.5 38q11 62 79 56q25 -3 33.5 -20t-5.5 -44q-17 -26 -43.5 -39.5t-42.5 -7.5z" />
    <glyph glyph-name="k" unicode="k" horiz-adv-x="300" 
d="M-12 94q20 351 117 642q5 15 83 15q6 0 10 -3t2 -8q-108 -287 -133 -574q31 73 73 113t84 35q11 -2 18.5 -15.5t7 -35.5t-8 -47t-30.5 -52.5t-57 -48.5q3 -8 5 -12q25 -50 33 -62t22 -14q14 -5 33.5 14t39.5 65.5t32 109.5q2 11 9 11t5 -11q-14 -101 -54 -158t-83 -64
q-31 -5 -63 22.5t-49 73.5l-7 21q67 35 84 93q10 34 -5 42q-4 1 -8 0q-21 -8 -45 -48t-41 -97q-3 -35 -14 -59q-9 -20 -18.5 -28.5t-27.5 -16.5q-15 -6 -16 4q-2 16 2 93z" />
    <glyph glyph-name="l" unicode="l" horiz-adv-x="139" 
d="M58 104q-3 -70 10 -71q15 -4 31 13t32.5 61t28.5 109q1 7 4.5 10t7 0t3.5 -10q-15 -100 -47.5 -154.5t-76.5 -61.5q-28 -4 -49 22q-20 28 -19 66q13 340 117 648q4 15 83 15q7 0 11 -3t2 -8q-49 -131 -84 -278q-33 -147 -42 -221q-9 -77 -12 -137z" />
    <glyph glyph-name="m" unicode="m" horiz-adv-x="451" 
d="M369 165l-3 -30q-13 -107 10 -108q14 -5 30.5 14t33.5 64.5t29 110.5q2 11 8.5 11t5.5 -11q-14 -99 -48 -157t-77 -65q-39 -7 -56.5 25t-12.5 96q1 26 8 79q6 47 -1 48q-4 0 -11 -3q-41 -22 -73 -135q-6 -45 -16 -66q-8 -20 -14.5 -25.5t-30.5 -15.5q-16 -6 -17 16
q-2 23 4 102q1 13 7 77q6 49 -1 50q-3 1 -10 -3q-43 -25 -74 -137q-5 -51 -18 -72t-41 -33q-15 -6 -16 4q-2 13 1 93q10 187 31 249q6 16 84 16q17 0 12 -12q-34 -84 -45 -170q28 68 62.5 104.5t67.5 32.5q9 -2 13.5 -4t8 -8t4.5 -18q2 -18 0 -39l-6 -70q28 69 62 106t69 33
q24 -3 27 -30q3 -29 -7 -119z" />
    <glyph glyph-name="n" unicode="n" horiz-adv-x="293" 
d="M218 165l-3 -30q-11 -107 10 -108q14 -5 30.5 14t33.5 64.5t29 110.5q2 11 9 11t5 -11q-12 -99 -46 -157t-78 -65q-39 -7 -57 25.5t-13 95.5q1 26 8 77q6 48 0 50q-4 1 -11 -3q-43 -23 -75 -138q-4 -53 -19 -74q-14 -20 -40 -30q-15 -6 -16 4q-2 13 1 93q10 187 31 249
q6 16 84 16q17 0 12 -12q-34 -84 -46 -173q28 69 62.5 106.5t69.5 33.5q23 -3 26 -30q3 -29 -7 -119z" />
    <glyph glyph-name="o" unicode="o" 
d="M256 166q-7 -31 -11 -44q40 24 56 91q1 4 5.5 6.5t7.5 0t1 -9.5q-21 -87 -79 -112q-21 -46 -59 -74t-85 -31q-56 -4 -88 38t-24 104q11 94 63.5 143.5t135.5 51.5q19 0 19 -7.5t-17 -13.5q-8 -3 -12.5 -2.5t-11 2.5t-9.5 2q-61 0 -83 -163q-9 -60 1 -97.5t38 -33.5
q37 3 56 84q-13 8 -20 15q-44 41 -34 102q11 62 64 77q51 15 73 -25t13 -104zM159 131l7 -6l6 34q5 28 2.5 46.5t-10.5 26.5t-19 4q-20 -8 -15 -46t29 -59z" />
    <glyph glyph-name="p" unicode="p" horiz-adv-x="270" 
d="M155 314q35 4 57 -34q21 -37 15 -95q-5 -47 -21.5 -87t-38 -64t-45 -37.5t-45 -12t-34.5 17.5q-49 -308 -82 -424q-4 -16 -83 -16q-6 0 -10 3t-3 9q50 144 78 272q28 125 46 319q13 143 27 178q4 16 83 16q17 0 12 -12q-30 -73 -39 -132q34 91 83 99zM141 172
q10 98 -10 99l-3 -1q-32 -14 -69 -158q-1 -11 -2.5 -28.5t-2 -25.5t-0.5 -18t2.5 -16t7.5 -10q20 -16 42 27q26 48 35 131z" />
    <glyph glyph-name="q" unicode="q" horiz-adv-x="262" 
d="M0 -427q88 259 126 500q-24 -69 -61 -73q-40 -4 -68 33q-29 40 -22 96q9 81 70 132q61 52 121 52q24 0 47 -12.5t25 -27.5q1 -7 -13 -11.5t-42 -6.5q-35 -2 -33 5q15 31 -7 31q-60 0 -83 -149q-4 -32 -2.5 -55.5t9 -35.5t18.5 -9q19 5 30 51q11 45 11 47q5 18 6 26
q1 6 4.5 26t5.5 26l3 16q6 15 77 15q6 0 11 -3.5t2 -8.5q-13 -13 -21 -58l-21 -120q-12 -76 -20 -116q-2 -16 -17 -95q-9 -49 -20 -99q-17 -86 -41 -172q-4 -15 -83 -15q-6 0 -10 3t-2 8z" />
    <glyph glyph-name="r" unicode="r" horiz-adv-x="235" 
d="M18 191q2 8 5 30q-26 23 -18 94q3 27 11 43t14.5 19.5t11.5 0.5q24 -14 17 -69q-1 -8 -8 -42q37 -1 93 67q4 4 25 -3q20 -7 31 -18q1 -1 -7 -24q-9 -26 -20 -67q-13 -46 -17 -87q-14 -107 9 -108q14 -5 31 14t34 64.5t29 110.5q1 10 8 11q2 1 3.5 -0.5t1.5 -4.5
q2 -3 0 -6q-12 -99 -46 -157t-78 -65q-40 -7 -57.5 24.5t-12.5 96.5q7 83 33 136l-4 -5q-1 -1 -8.5 -7t-12 -9t-13 -8t-17 -6.5t-17.5 -0.5l-6 -27q-2 -9 -6.5 -12.5t-7.5 1t-1 14.5z" />
    <glyph glyph-name="s" unicode="s" horiz-adv-x="243" 
d="M13 191l11 68q-30 36 -34 75q-2 30 25 48q26 17 39 -5q7 -13 6 -38q0 -2 -3 -18t-4 -22q136 -101 143 -182h37q11 -1 12 -8t-11 -6q-29 0 -37 -1l-1 -3v-5q-4 -54 -47 -86q-41 -31 -91 -29q-51 2 -56 40q-5 40 46 65q28 13 69 23q-5 74 -77 136q-1 -5 -6 -27.5t-6 -27.5
q-2 -9 -6.5 -12.5t-7.5 1t-1 14.5zM117 83v8q-20 -4 -54 -17q-18 -8 -24.5 -19.5t1 -20t26.5 -7.5q46 1 51 56z" />
    <glyph glyph-name="t" unicode="t" horiz-adv-x="157" 
d="M126 431l76 -3q94 -4 94 -10q0 -1 -2 -3q-10 -9 -103 -21q-19 -2 -43 -6l-34 -5q-32 -134 -40 -279q-5 -69 11 -70q13 -4 29 13t33.5 61.5t28.5 107.5q1 7 4.5 10t7 0t3.5 -10q-15 -100 -47.5 -155t-76.5 -62q-36 -6 -52.5 18t-14.5 71q4 147 27 285l-31 -2q-4 0 -12 17
q-8 15 -10 24q-4 24 21 25q28 0 44 -1q13 58 27 106q4 16 79 16q11 0 16 -3t3 -9q-16 -44 -38 -115z" />
    <glyph glyph-name="u" unicode="u" horiz-adv-x="295" 
d="M213 97q-4 -67 12 -70q14 -5 30.5 13.5t33.5 64.5t29 111q2 11 8.5 11t5.5 -11q-14 -102 -49 -160.5t-76 -62.5q-31 -4 -50 23t-18 72q0 2 0.5 12.5t0.5 14.5q-48 -133 -108 -120q-24 5 -35 51t-4 126q7 97 20 121q4 8 33 13q24 4 45 2q10 -1 13.5 -3.5t-0.5 -8.5
q-22 -37 -33 -106q-12 -79 -13 -109q-2 -37 12 -39q16 -4 35 32.5t34 101.5q1 4 7 35q6 65 15 80q4 9 31 14q22 4 46 2q16 -3 12 -12q-27 -33 -37 -198z" />
    <glyph glyph-name="v" unicode="v" horiz-adv-x="278" 
d="M246 209q-8 -52 -31 -91q56 9 82 101q1 9 8 8.5t4 -11.5q-12 -51 -40.5 -82t-63.5 -34q-34 -52 -81 -80t-78 -22q-31 7 -49 53.5t-12 120.5q10 104 21 121q4 8 33 13q24 4 45 2q18 -2 12 -12q-21 -35 -33 -106q-24 -158 11 -166q18 -4 40.5 20t39.5 70q-7 4 -19 16
q-30 27 -35.5 76t13.5 89t53 44q39 9 65 -27q25 -36 15 -103zM155 137l5 -4q9 32 15 67q5 31 2.5 48t-8.5 23t-15 2q-24 -11 -24 -62q0 -52 25 -74z" />
    <glyph glyph-name="w" unicode="w" horiz-adv-x="417" 
d="M388 209q-8 -48 -32 -92q28 3 50.5 29.5t34.5 72.5q1 4 5 6.5t7 0t1 -9.5q-12 -53 -42 -83.5t-66 -32.5q-34 -51 -80 -79q-47 -29 -74 -23q-26 4 -46 48q-53 -56 -101 -48q-29 6 -46 53.5t-11 120.5q7 97 20 121q4 8 35 13q26 4 46 2q10 -1 13 -3.5t0 -8.5
q-22 -37 -33 -106q-12 -83 -13 -118q-1 -47 18 -48q13 -2 30.5 11.5t32.5 39.5q-11 47 -7 103q4 52 27.5 81.5t49.5 20.5q10 -3 13 -9q10 -13 2 -62q-10 -58 -37 -109q3 -73 33 -76q18 -3 40.5 21.5t39.5 68.5q-9 6 -19 16q-30 28 -34.5 77t15 88.5t51.5 43.5q37 7 62 -27
t15 -103zM300 137l5 -4q9 26 14 67q12 67 -10 74q-3 1 -10 -1q-25 -10 -25 -62q0 -51 26 -74z" />
    <glyph glyph-name="x" unicode="x" horiz-adv-x="349" 
d="M275 27q14 -5 33.5 14t40 65.5t32.5 109.5q2 11 9 11t5 -11q-13 -99 -54 -158q-40 -57 -83 -64q-31 -4 -58 21t-41 80q-20 -12 -32 -34l-8 -17q-9 -23 -11 -40q-9 -20 -68 -18q-8 1 -13 2t-8.5 5t2.5 11q32 72 133 113v1q-22 125 -69 139q-17 3 -31.5 -18.5t-15.5 -59.5
t22 -90q2 -4 0.5 -11t-6 -8t-12.5 11q-32 76 -20 129.5t46.5 82t68.5 21.5q37 -8 58 -43.5t33 -108.5q30 36 31 119q1 16 20.5 25t50.5 8q12 -1 14.5 -4t-0.5 -16q-21 -89 -112 -156q12 -63 20.5 -86.5t22.5 -24.5z" />
    <glyph glyph-name="y" unicode="y" horiz-adv-x="282" 
d="M9 172q10 104 21 121q4 8 33 13q24 4 45 2q17 -2 11 -12q-22 -37 -32 -106q-12 -79 -13 -109q-1 -37 11 -39q17 -4 39.5 60t39.5 139q0 3 1.5 9t4 16.5t4.5 19.5q4 16 78 16q7 0 11 -2.5t2 -8.5q-17 -42 -41 -184q-12 -73 -31 -163q40 10 70 13q7 0 10 -3.5t0 -7
t-10 -4.5q-17 -1 -75 -16q-78 -348 -193 -364q-38 -5 -64 41q-27 43 -16 101q12 68 67.5 125t138.5 92q17 112 23 167l3 29q-47 -130 -96 -119q-55 14 -42 174zM19 -381q55 3 98 274q-98 -59 -120 -170q-6 -32 -5 -55.5t8 -36.5t19 -12z" />
    <glyph glyph-name="z" unicode="z" horiz-adv-x="237" 
d="M49 -100l-20 54q-3 6 -6 13t-5 11l-3 6q-5 5 12 14q57 35 86 107q29 75 29 156v9l-2 -2l-3 -4q-42 -54 -82 -54q-9 0 -11 1q-1 -5 -5 -23q-2 -9 -6.5 -12.5t-7.5 1t-1 14.5l5 30q-26 29 -18 94q3 26 11 44.5t17 24t15 0.5q15 -12 10 -74l-3 -24q61 -4 93 62q5 8 30 -2
q27 -9 43 -25q5 -2 0 -53q-5 -63 -43 -131q-37 -67 -98 -120l12 -24q11 -26 18 -65q61 22 127 29q10 1 11 -6q0 -7 -12 -9q-58 -7 -123 -34q14 -101 -4 -194q-14 -74 -56.5 -111.5t-95.5 -34.5q-42 3 -70 42t-18 94q22 117 174 196zM74 -288q12 69 -16 160
q-82 -59 -100 -149q-9 -47 -0.5 -84t28.5 -39q30 -4 54 26t34 86z" />
    <glyph glyph-name="braceleft" unicode="{" horiz-adv-x="385" 
d="M205 464q-22 -128 -121 -160q41 -18 53 -62.5t-7 -111.5q-38 -114 -30 -187q11 -76 58 -85q14 -2 28 12q16 16 21 9q2 -11 -22 -32q-21 -18 -45 -22q-31 -4 -65 25t-52 99q-17 69 16 181q28 84 25.5 125t-37.5 41q-18 0 -18 8.5t22 9.5h4h7q35 2 47 25q13 24 28 114
q11 65 41 112t67 65q78 38 135 1q19 -13 31 -40q15 -35 5 -38q-2 -1 -5 2t-6 9l-3 6q-8 20 -20 23q-128 39 -157 -129z" />
    <glyph glyph-name="bar" unicode="|" horiz-adv-x="102" 
d="M16 -122q-9 505 23 744q1 15 82 15q6 0 10.5 -3t3.5 -8q-39 -171 -68 -389q-29 -222 -33 -354q-2 -36 -5 -39l-4 -2q-7 -3 -8 7q-1 5 -1 29z" />
    <glyph glyph-name="braceright" unicode="}" horiz-adv-x="385" 
d="M207 9q24 131 122 160q-40 18 -52.5 62.5t7.5 111.5q37 120 28 188q-5 41 -22 61.5t-35 22.5q-15 2 -29 -12q-17 -17 -20 -9q-3 10 22 32q19 18 44 22q31 4 65 -25q35 -30 51 -99q18 -68 -15 -180q-27 -85 -24.5 -126t37.5 -41q17 0 18 -8q2 -10 -27 -10q-39 0 -53 -24
q-13 -21 -28 -114q-11 -64 -41 -111.5t-68 -66.5q-36 -18 -72 -18t-62 18q-20 13 -31 39q-13 31 -6 37q3 2 6.5 -1.5t7.5 -12.5l1 -2q8 -20 21 -23q126 -39 155 129z" />
    <glyph glyph-name="asciitilde" unicode="~" horiz-adv-x="174" 
d="M2 391q13 13 36 8q3 0 6 -1l6 -2t4 -1l43 -14q53 -14 71 21q1 2 13 -7.5t18 -22t-5 -28.5q-12 -12 -36 -9q-10 1 -33 10q-4 2 -19.5 8t-19.5 8q-38 14 -66 -22q-1 -2 -11 7.5t-14 21t7 23.5z" />
    <glyph glyph-name="exclamdown" unicode="&#xa1;" horiz-adv-x="205" 
d="M176 386l-2 -29q-38 -338 -80 -473q-6 -17 -85 -17q-6 0 -10.5 3.5t-2.5 8.5q63 162 96 264q35 105 57 209q9 38 19 42q4 2 6 -0.5t2 -7.5zM211 529q28 -7 20 -55q-11 -62 -79 -56q-25 2 -33.5 20t5.5 44q17 26 43 38.5t44 8.5z" />
    <glyph glyph-name="cent" unicode="&#xa2;" horiz-adv-x="201" 
d="M174 93q5 14 11 14q4 1 6 -2.5t0 -10.5q0 -3 -1 -4q-25 -84 -82 -90h-6l-3 -1q-1 -4 -2.5 -9.5t-2.5 -9.5l-1 -3q-9 -29 -11 -29t-3 4q-2 6 2 30l1 3q0 3 0.5 7.5t0.5 8.5q-39 6 -63.5 43t-19.5 85q6 60 42 105t87 66l5 38q3 28 4 30q0 6 8.5 12.5t14.5 3.5t12 -12t5 -15
q0 -5 -10 -46q18 2 20 2q13 0 21 -2t11.5 -5t3 -10t-2 -13t-5 -19t-5.5 -24q-7 -37 -5 -46l1 -2q0 -5 -26 -10q-65 -10 -71 -2q5 9 12 20t14 20.5t14 19.5t12 18t8 15t2 11.5t-7 6.5q-10 6 -26.5 -11t-33 -54.5t-23.5 -83.5q-7 -50 4 -85.5t40 -31.5q15 3 24 16.5t24 51.5z
" />
    <glyph glyph-name="sterling" unicode="&#xa3;" horiz-adv-x="453" 
d="M161 149l-23 5q-14 3 -21.5 5t-10.5 3.5t1 3.5t11.5 4t22.5 5l23 4l2 24q12 202 89 269q68 61 149 44q38 -8 59 -41t17 -77q-4 -52 -25.5 -96.5t-55.5 -67.5q-28 -15 -56 -6t-48 28q-20 20 -14 29q1 1 14 3t34 6t36 10q55 24 65 88q6 41 -6 69t-41 33q-44 7 -76 -55
q-31 -60 -52 -226l-3 -21l38 5q15 0 19 -3t2 -15q-8 -47 -23 -49q-12 0 -47 6q-7 -31 -22 -70q19 -12 43 -32q53 -41 80 -40q36 2 62 37t38 99q2 11 8.5 11t5.5 -11q-10 -82 -52 -147q-40 -64 -98 -58q-25 3 -50 16q-31 15 -78 56q-54 -68 -119 -50q-27 8 -40 29t-9.5 44.5
t24.5 44.5t55 29q31 7 64 0q7 38 8 55zM74 -30q18 -2 33.5 13.5t28.5 48.5q-28 18 -47 17q-30 -3 -43 -21.5t-4.5 -36.5t32.5 -21z" />
    <glyph glyph-name="currency" unicode="&#xa4;" horiz-adv-x="282" 
d="M300 453q3 -5 3 -16t-3 -17l-36 -31q26 -29 20 -75q-8 -48 -51 -78l36 -38q3 -3 1.5 -14.5t-7.5 -14.5q-25 -7 -33 1q-10 14 -29 48q-35 -15 -66 -15q-30 -2 -51 11l-37 -45q-4 -4 -14 -5.5t-14 3.5q-9 23 0 33q15 15 38 34q-23 28 -19 62q4 50 50 85l-39 41
q-3 3 -1 14.5t8 14.5t16.5 3t15.5 -3q0 -1 4 -6.5t11.5 -18.5t15.5 -27q39 19 85 17q20 0 33 -7l35 42q3 5 14 6.5t14 -4.5zM202 307q18 90 -16 90q-22 0 -40 -24t-25 -64q-8 -38 -1.5 -60.5t26.5 -21.5q42 2 56 80z" />
    <glyph glyph-name="yen" unicode="&#xa5;" horiz-adv-x="346" 
d="M45 179q-33 7 -32.5 10t36.5 11q8 1 35 7q-51 179 -70 302q-2 14 78 14q17 -3 18 -13q7 -160 26 -272q74 209 106 271q8 14 87 14q16 -3 9 -13q-64 -106 -145 -281l39 5q15 0 18.5 -3t2.5 -15q-3 -18 -13 -36t-17 -19q-22 0 -55 4l-3 -28l42 4q15 0 19 -3t2 -15
q-8 -42 -23 -42q-3 -1 -45 4q-5 -52 -15 -73t-32 -31q-20 -9 -25 15q-5 26 -1 83v17q-34 4 -48 8q-31 7 -33 11q1 2 37 10q1 0 9 1.5t19 3t18 1.5q3 21 3 41q-46 6 -47 7z" />
    <glyph glyph-name="brokenbar" unicode="&#xa6;" horiz-adv-x="96" 
d="M11 -126q1 48 -4 167q-5 105 0 176q2 14 74 14q6 0 9.5 -2.5t2.5 -7.5q-4 -23 -32 -149q-27 -120 -35 -195q0 -9 -1 -15q-2 -19 -7 -20q-3 -2 -4.5 0t-2.5 7q-1 6 0 25zM42 283q1 46 -4 166q-5 114 -1 177q2 6 31.5 10t43.5 4q6 0 9.5 -3t2.5 -8q-8 -43 -24 -108
q-32 -135 -43 -235q-1 -8 -1.5 -15.5t-0.5 -11t-1.5 -6t-4.5 -3.5q-6 -2 -6.5 2t-0.5 31z" />
    <glyph glyph-name="section" unicode="&#xa7;" horiz-adv-x="512" 
d="M205 -82q40 -4 71 8t45 36.5t12 56.5t-30.5 71t-81.5 76q-71 49 -96.5 109t-8 109.5t66.5 79.5q12 8 19.5 5t6.5 -11.5t-6 -14.5q-31 -24 -37 -54t18.5 -67.5t81.5 -74.5q64 -41 97 -93.5t29 -101.5q-1 -72 -59 -122.5t-142 -43.5q-58 4 -104 36.5t-64 77.5q-17 41 -5 86
t52 67q29 12 63 2q34 -9 62 -29q28 -19 21 -28h-11q-11 -1 -27.5 -3.5t-34 -7.5t-34 -16.5t-24.5 -28.5q-21 -50 21 -84q43 -35 99 -40zM400 174q53 28 29 84t-124 126q-47 32 -73.5 70t-29.5 72.5t7 69t35.5 59.5t57 44t70.5 23t77 -3q60 -13 89 -65q29 -50 9 -103t-79 -75
q-31 -13 -68 1t-57 36t-11 31h13q13 -1 32.5 0t40.5 5t40.5 16t29.5 30q18 28 1 61t-62 42q-36 7 -72 -3t-59 -34q-25 -23 -30.5 -54t16.5 -69.5t74 -72.5q85 -56 116 -120q31 -66 13.5 -117t-75.5 -81q-23 -13 -25 3q-1 14 15 24z" />
    <glyph glyph-name="dieresis" unicode="&#xa8;" horiz-adv-x="193" 
d="M16 333q-29 8 -21 55q11 62 80 56q25 -2 33 -20t-6 -44q-16 -26 -42.5 -38.5t-43.5 -8.5zM140 333q-29 8 -21 55q11 62 80 56q25 -2 33 -20t-6 -44q-16 -26 -42.5 -38.5t-43.5 -8.5z" />
    <glyph glyph-name="copyright" unicode="&#xa9;" horiz-adv-x="572" 
d="M383 77q-24 -71 -83 -76q-48 -6 -80 32q-32 40 -25 96q9 81 68 133t120 52q33 0 34 -12q2 -9 1 -13q0 -3 -2 -11.5t-5 -19.5t-4 -17q-6 -35 -6 -48l1 -1q2 -9 -65 -14q-34 -3 -31 2q5 9 12.5 20.5t14.5 21t14 19.5t11.5 18t7 15t1.5 11.5t-7 6.5q-10 6 -26.5 -10.5
t-33 -55t-23.5 -84.5q-7 -53 3.5 -87t37.5 -30q15 3 29 20t21 40q2 8 5.5 12t7.5 3q9 -1 2 -23zM371 476q133 0 192 -89q60 -89 38 -231q-27 -165 -120 -246.5t-234 -71.5q-107 9 -171 102q-64 91 -41 226q25 140 114 225t222 85zM578 147q22 142 -30 226q-51 84 -185 84
q-113 0 -195 -75q-81 -74 -108 -210q-26 -134 36 -219q63 -87 166 -96q122 -9 207 67q87 75 109 223z" />
    <glyph glyph-name="guillemotleft" unicode="&#xab;" horiz-adv-x="195" 
d="M57 229q-1 23 24 12q23 -10 31 -24q1 -1 1 -3q-3 -26 -22.5 -43.5t-46.5 -24.5q47 -20 47 -67q0 -7 -30 -21q-37 -18 -35 1q0 3 1 5q26 78 -15 78q-5 0 -6 4q0 3 4 4l2 1q0 1 2 1q29 0 38.5 17.5t4.5 59.5zM131 229q-1 11 4.5 14t18.5 -2q26 -11 33 -24l1 -3
q-7 -51 -70 -68q47 -18 47 -67q0 -7 -31 -22q-34 -15 -33 0v2q0 3 1 5q24 78 -15 78q-5 0 -6 4t5 5q1 1 2 1h3q27 1 36 19t4 58z" />
    <glyph glyph-name="logicalnot" unicode="&#xac;" horiz-adv-x="251" 
d="M235 112q-7 -40 -15 -39q-2 0 -3 3q-4 2 -20 81l-41 6q-16 2 -34.5 4.5t-30 4.5t-16.5 2q-41 6 -40 13l4 4q5 3 39 6l143 13q5 1 12.5 -4t8.5 -11l1 -2q1 -14 -8 -81z" />
    <glyph glyph-name="registered" unicode="&#xae;" horiz-adv-x="572" 
d="M371 476q134 0 193 -89q58 -89 36 -231q-26 -165 -119 -246.5t-234 -71.5q-107 9 -171 102q-64 91 -41 226q25 138 114 224q91 86 222 86zM578 147q22 142 -30 226q-51 84 -185 84q-113 0 -195 -75q-81 -74 -108 -210q-26 -134 36 -219q63 -87 166 -96q122 -9 207 67
q87 76 109 223zM208 87q6 124 16 184l-17 -12q-7 -5 -18 0q-9 6 6 16q25 16 34 20q6 25 10 41q6 16 83 16q7 0 11 -3t2 -9l-4 -10q53 9 90 -3t39 -39q2 -46 -23 -83t-92 -80l5 -11q24 -47 36.5 -64t25.5 -18q19 -3 46 24q13 13 17 5q2 -8 -8 -18q-49 -53 -78 -57t-63 31
q-32 35 -51 84q-1 1 -4 11q-1 -3 -1 -10q-4 -56 -14 -79.5t-33 -33.5q-14 -6 -17 5q-2 16 2 93zM319 302q-36 -88 -47 -179q99 55 99 146q0 14 -14.5 23.5t-37.5 9.5z" />
    <glyph glyph-name="overscore" unicode="&#xaf;" horiz-adv-x="263" 
d="M76 369q-14 3 -21.5 5t-10.5 3.5t1 3.5t11.5 4t22.5 5q118 19 143 22q15 0 19 -3t2 -15q-8 -47 -23 -49q-14 -1 -144 24z" />
    <glyph glyph-name="degree" unicode="&#xb0;" horiz-adv-x="239" 
d="M159 352q40 -1 66 -30.5t20 -72.5q-7 -52 -55 -81q-47 -29 -92 -30q-42 0 -73 26t-26 67q8 59 53 90q48 32 107 31zM163 242q16 90 -23 91q-20 0 -36 -23.5t-23 -65.5q-9 -37 -2.5 -60t30.5 -22q22 1 33.5 19t20.5 61z" />
    <glyph glyph-name="plusminus" unicode="&#xb1;" horiz-adv-x="201" 
d="M132 115l-8 -42q-8 -32 -10 -33q-3 1 -11 37q-2 8 -4.5 23.5t-3.5 21.5q-10 1 -28.5 5t-20.5 4q-2 1 -6 2q-26 6 -27 8t4 4q4 1 19 5l13 3q4 0 40 7q-7 42 -8 63q0 15 3 19t15 2q19 -2 33.5 -9t15.5 -14q0 -10 -7 -53l51 6q15 1 18.5 -2t2.5 -16q-7 -48 -24 -48
q-1 -1 -57 7zM46 1q-33 8 -33 11t36 10q76 16 143 22q15 1 18.5 -2t2.5 -16q-7 -48 -24 -48q-15 -2 -143 23z" />
    <glyph glyph-name="acute" unicode="&#xb4;" horiz-adv-x="146" 
d="M128 454q8 12 23 -14q19 -37 9 -58q-2 -4 -4 -5q-25 -22 -132 -55q-17 -3 -17 4q34 17 59 44t62 84z" />
    <glyph glyph-name="mu" unicode="&#xb5;" horiz-adv-x="337" 
d="M7 -67q3 27 1 103q0 20 -0.5 40.5t-1 31.5t-0.5 15t3 49q10 104 21 121q4 8 33 13q24 4 45 2q18 -2 12 -12q-21 -35 -33 -106q-11 -70 -12 -109q-1 -37 11 -39q8 -2 18.5 17t24.5 59q27 76 43 150q0 15 5 23q4 9 31 14q23 4 46 2q16 -3 12 -12q-38 -49 -49 -198
q-2 -65 24 -70q15 -3 31.5 15t33.5 63t29 111q1 10 8 11q2 1 3.5 -0.5t1.5 -4.5q2 -3 0 -6q-14 -103 -49 -162.5t-81 -65.5q-26 -4 -39 23.5t-12 76.5q2 94 2 95q-23 -79 -56 -137q-31 -55 -62 -48q-9 3 -17 9l-11 -71l-2 -16t-1.5 -10.5t-2 -5t-4.5 -3.5q-6 -1 -6 6
q-2 5 0 26z" />
    <glyph glyph-name="mu" unicode="&#x3bc;" horiz-adv-x="337" 
d="M7 -67q3 27 1 103q0 20 -0.5 40.5t-1 31.5t-0.5 15t3 49q10 104 21 121q4 8 33 13q24 4 45 2q18 -2 12 -12q-21 -35 -33 -106q-11 -70 -12 -109q-1 -37 11 -39q8 -2 18.5 17t24.5 59q27 76 43 150q0 15 5 23q4 9 31 14q23 4 46 2q16 -3 12 -12q-38 -49 -49 -198
q-2 -65 24 -70q15 -3 31.5 15t33.5 63t29 111q1 10 8 11q2 1 3.5 -0.5t1.5 -4.5q2 -3 0 -6q-14 -103 -49 -162.5t-81 -65.5q-26 -4 -39 23.5t-12 76.5q2 94 2 95q-23 -79 -56 -137q-31 -55 -62 -48q-9 3 -17 9l-11 -71l-2 -16t-1.5 -10.5t-2 -5t-4.5 -3.5q-6 -1 -6 6
q-2 5 0 26z" />
    <glyph glyph-name="paragraph" unicode="&#xb6;" horiz-adv-x="626" 
d="M419 682q81 -7 137 -57q54 -47 74 -110.5t7 -130.5q-1 -4 -11 -9t-19 -2t-8 17q5 62 -1.5 97t-30.5 64q-1 -113 -9 -183q-17 -140 -68 -239t-115 -144t-128 -32q-28 8 -47 23q-54 -34 -108 -23q-41 9 -63 43t-19 75q3 42 36.5 78.5t87.5 48.5q37 8 67 5q17 -4 14.5 -17
t-12.5 -28t-13 -14q-37 5 -60 2q-49 -7 -77.5 -44t-16 -76.5t67.5 -49.5q62 -10 117 54q57 68 85 189q-109 -7 -182 53q-71 60 -57 167q17 125 123 189q107 65 229 54zM259 -24q77 -14 137 92q61 106 73 297q4 60 4 269q-24 16 -50 16q-2 1 -10 1q0 -202 -10 -282
q-14 -126 -64 -225t-118 -153q15 -10 38 -15z" />
    <glyph glyph-name="middot" unicode="&#xb7;" horiz-adv-x="126" 
d="M18 106q-28 7 -20 55q11 62 79 56q25 -2 33.5 -20t-5.5 -44q-17 -26 -43 -38.5t-44 -8.5z" />
    <glyph glyph-name="cedilla" unicode="&#xb8;" horiz-adv-x="104" 
d="M38 -30l1 1q20 20 27 32q6 9 12 6q5 -2 0 -7l-17 -19q26 7 48 -3t21 -30q-2 -26 -36 -47q-33 -21 -71 -26q-12 -1 -14 1.5t2 6t7 4.5q28 6 45 42q13 25 1 35q-5 5 -16 -1q-15 -8 -17 -4q-1 1 7 9z" />
    <glyph glyph-name="guillemotright" unicode="&#xbb;" horiz-adv-x="195" 
d="M138 64q1 -11 -4.5 -13.5t-18.5 2.5q-25 11 -33 24q-1 1 -1 3q7 51 70 68q-47 17 -47 67q0 7 31 22q34 15 33 0v-2q0 -3 -1 -5q-24 -78 15 -78q5 0 6 -4t-5 -6h-2h-1h-1q-28 -1 -37 -19t-4 -59zM63 64q1 -8 -2 -11.5t-10 -2.5q-20 2 -40 23q-4 4 -4 7q3 26 22.5 43.5
t46.5 24.5q-46 16 -46 67q0 7 30 22q35 15 34 0v-2q0 -3 -1 -5q-25 -78 15 -78q2 0 4 -2.5t1 -5t-5 -2.5h-1h-1h-2q-27 -1 -36 -18.5t-5 -59.5z" />
    <glyph glyph-name="onequarter" unicode="&#xbc;" horiz-adv-x="458" 
d="M366 306l27 37q10 13 16 15.5t22 2.5q5 0 7.5 -1.5t1.5 -5.5q-4 -30 -22 -226l27 3q13 1 16.5 0t2.5 -6q-14 -47 -24 -48q-16 -2 -27 -1l-1 -13q-4 -39 -19 -54q-13 -12 -56 -20q-12 -1 -12 9t9 62l4 21q-7 0 -31 3q-76 5 -86 8q-15 2 -17 8q-1 3 -1 10q2 3 31 37
q10 11 71 81q38 45 61 78zM311 112l33 5q13 91 31 169q-21 -37 -54 -100l-41 -78zM103 569l-11 -17q-6 -10 -27 -30q-19 -19 -40 -24q-9 -2 -15 1t-6 8q0 6 5 33q4 24 10 28l11 2q11 2 22 5.5t26.5 16t26.5 32.5q5 8 48 8q4 0 7 -1t5 -3t1 -6q-38 -130 -51 -258
q-6 -55 -22 -77t-48 -26h-9.5t-7 3t-3 9t1 17.5t5 28t9.5 41.5q26 110 62 209zM94 -122q74 518 141 744q3 15 85 15q6 0 10 -3t2 -8q-62 -162 -130 -390q-66 -226 -89 -353q-1 -6 -2.5 -13.5t-2 -10.5t-1 -6.5t-2 -5l-3 -3t-4.5 -2.5q-4 -2 -6 0t-1 7q0 8 3 29z" />
    <glyph glyph-name="onehalf" unicode="&#xbd;" horiz-adv-x="513" 
d="M103 569l-11 -17q-6 -10 -27 -30q-19 -19 -40 -24q-9 -2 -15 1t-6 8q0 6 5 33q4 24 10 28l11 2q11 2 22 5.5t26.5 16t26.5 32.5q5 8 48 8q4 0 7 -1t5 -3t1 -6q-38 -130 -51 -258q-6 -55 -22 -77t-48 -26h-9.5t-7 3t-3 9t1 17.5t5 28t9.5 41.5q26 110 62 209zM94 -122
q74 518 141 744q3 15 85 15q6 0 10 -3t2 -8q-62 -162 -130 -390q-66 -226 -89 -353q-1 -6 -2.5 -13.5t-2 -10.5t-1 -6.5t-2 -5l-3 -3t-4.5 -2.5q-4 -2 -6 0t-1 7q0 8 3 29zM327 25q73 7 123 15q17 3 19 2q8 1 12 -30.5t4 -43.5q0 -14 -10 -14q-59 6 -145 23q-81 16 -98 27
l-6 5q0 1 -1 3l-1 2q0 28 28 57t94 68q53 32 72 55q21 28 28 56q7 35 -7 57t-54 22q-51 0 -81 -24q-29 -25 -22 -48q7 -33 72 -33l7 1q6 -5 -6 -25.5t-32.5 -36.5t-35.5 -9q-45 16 -45 70q-1 57 49 97q45 34 112 32q58 -3 88.5 -31t26.5 -73q-9 -89 -139 -164
q-44 -24 -97 -43q-34 -9 -35 -24q3 0 15.5 1.5t29.5 3t35 2.5z" />
    <glyph glyph-name="threequarters" unicode="&#xbe;" horiz-adv-x="562" 
d="M202 -122q74 518 141 744q3 15 85 15q6 0 10 -3t2 -8q-62 -162 -130 -390q-66 -226 -89 -353q-1 -6 -2.5 -13.5t-2 -10.5t-1 -6.5t-2 -5l-3 -3t-4.5 -2.5q-4 -2 -6 0t-1 7q0 8 3 29zM125 477h-4q-11 1 -12 6q-1 2 3 4t11 3h1q2 0 11 0.5t11 0.5q34 11 44 56q7 27 -5 45
t-36 18q-35 0 -50 -15t-9 -38q8 -26 38 -7l6 3q5 -8 -17 -42q-23 -35 -39 -27q-36 14 -39 55q-2 50 41 76q32 21 82 19q43 -1 75 -29q31 -25 25 -58q-8 -42 -67 -62q40 -9 60.5 -34.5t14.5 -60.5q-7 -47 -41.5 -78t-76.5 -39.5t-80 -0.5q-58 10 -63 78q-2 30 10.5 60.5
t35.5 45.5q13 11 38.5 -1t43.5 -31t13 -25l-8 -1q-19 0 -48 -9q-49 -15 -53 -46q-2 -17 10.5 -31t34.5 -18q76 -12 101 87q19 84 -36 96q-14 -2 -26 0zM471 306l27 37q10 13 16 15.5t22 2.5q5 0 7.5 -1.5t1.5 -5.5q-4 -30 -22 -226l27 3q13 1 16.5 0t2.5 -6q-13 -47 -24 -48
q-16 -2 -27 -1l-1 -13q-4 -39 -19 -54q-12 -12 -56 -20q-12 -1 -12 9t9 62l4 21q-7 0 -31 3q-76 5 -86 8q-15 2 -17 8q-1 3 -1 10q2 3 31 37q10 11 71 81q38 45 61 78zM416 112l33 5q13 91 31 169q-21 -37 -54 -100l-41 -78z" />
    <glyph glyph-name="questiondown" unicode="&#xbf;" horiz-adv-x="327" 
d="M290 381q3 10 15 7q5 -2 4 -5q-36 -163 -125 -240q-97 -83 -106 -161q-12 -91 78 -91q49 0 82 30q34 29 27 60q-5 19 -30.5 20.5t-42.5 -3.5l-13 -3q-6 5 12.5 28.5t46 42.5t41.5 12q44 -17 35 -73q-9 -58 -65 -102q-49 -36 -112 -36t-107 32q-43 31 -37 84
q10 87 136 193l66 57q73 71 95 148zM342 524q28 -7 20 -55q-11 -62 -79 -56q-25 2 -33.5 20t5.5 44q17 26 43 38.5t44 8.5z" />
    <glyph glyph-name="Agrave" unicode="&#xc0;" horiz-adv-x="545" 
d="M427 611q8 22 28 23q25 5 56 5q10 0 15 -3t3 -9q-98 -283 -106 -472q10 -1 16.5 -2t11 -2t6.5 -2t2 -2q-3 -3 -36 -8v-35q3 -54 26 -59q25 -4 44.5 38.5t35.5 132.5q2 11 9 11t5 -11q-14 -110 -49.5 -169t-82.5 -61q-29 -1 -47.5 28t-20.5 74q-2 27 -1 40l-57 -8l-49 -7
q-102 -146 -182 -132q-48 9 -56 57q-8 49 29 103q37 55 103 82q13 4 16 -1q2 -6 -7 -10q-87 -40 -94 -95q-4 -37 26 -52q6 -3 18 -5q42 -6 94 48l-34 -3q-24 0 -19 20q15 46 24 47q6 2 78 -3q98 146 195 442zM270 167l74 -6q5 88 27 206q-44 -104 -101 -200zM431 737
q-5 1 -5.5 5t3 10t11.5 14q30 28 52 24l6 -3q20 -15 44 -53q28 -42 39 -68q3 -8 2.5 -12.5t-2.5 -4.5h-3q-23 30 -54 47q-33 18 -93 41z" />
    <glyph glyph-name="Aacute" unicode="&#xc1;" horiz-adv-x="534" 
d="M427 611q8 22 28 23q25 5 56 5q10 0 15 -3t3 -9q-98 -283 -106 -472q10 -1 16.5 -2t11 -2t6.5 -2t2 -2q-3 -3 -36 -8v-35q3 -54 26 -59q25 -4 44.5 38.5t35.5 132.5q2 11 9 11t5 -11q-14 -110 -49.5 -169t-82.5 -61q-29 -1 -47.5 28t-20.5 74q-2 27 -1 40l-57 -8l-49 -7
q-102 -146 -182 -132q-48 9 -56 57q-8 49 29 103q37 55 103 82q13 4 16 -1q2 -6 -7 -10q-87 -40 -94 -95q-4 -37 26 -52q6 -3 18 -5q42 -6 94 48l-34 -3q-24 0 -19 20q15 46 24 47q6 2 78 -3q98 146 195 442zM270 167l74 -6q5 88 27 206q-44 -104 -101 -200zM538 797
q8 12 23 -14q19 -37 9 -58q-2 -4 -4 -5q-25 -22 -132 -55q-17 -3 -17 4q34 17 59 44t62 84z" />
    <glyph glyph-name="Acircumflex" unicode="&#xc2;" horiz-adv-x="559" 
d="M427 611q8 22 28 23q25 5 56 5q10 0 15 -3t3 -9q-98 -283 -106 -472q10 -1 16.5 -2t11 -2t6.5 -2t2 -2q-3 -3 -36 -8v-35q3 -54 26 -59q25 -4 44.5 38.5t35.5 132.5q2 11 9 11t5 -11q-14 -110 -49.5 -169t-82.5 -61q-29 -1 -47.5 28t-20.5 74q-2 27 -1 40l-57 -8l-49 -7
q-102 -146 -182 -132q-48 9 -56 57q-8 49 29 103q37 55 103 82q13 4 16 -1q2 -6 -7 -10q-87 -40 -94 -95q-4 -37 26 -52q6 -3 18 -5q42 -6 94 48l-34 -3q-24 0 -19 20q15 46 24 47q6 2 78 -3q98 146 195 442zM270 167l74 -6q5 88 27 206q-44 -104 -101 -200zM370 691l59 20
q53 20 81 49h2h1q33 -39 83 -75q9 -7 -18 -19q-40 -17 -51 -4q-15 21 -20 79q-34 -50 -73 -78q-17 -11 -53 10q-24 14 -11 18z" />
    <glyph glyph-name="Atilde" unicode="&#xc3;" horiz-adv-x="553" 
d="M427 611q8 22 28 23q25 5 56 5q10 0 15 -3t3 -9q-98 -283 -106 -472q10 -1 16.5 -2t11 -2t6.5 -2t2 -2q-3 -3 -36 -8v-35q3 -54 26 -59q25 -4 44.5 38.5t35.5 132.5q2 11 9 11t5 -11q-14 -110 -49.5 -169t-82.5 -61q-29 -1 -47.5 28t-20.5 74q-2 27 -1 40l-57 -8l-49 -7
q-102 -146 -182 -132q-48 9 -56 57q-8 49 29 103q37 55 103 82q13 4 16 -1q2 -6 -7 -10q-87 -40 -94 -95q-4 -37 26 -52q6 -3 18 -5q42 -6 94 48l-34 -3q-24 0 -19 20q15 46 24 47q6 2 78 -3q98 146 195 442zM270 167l74 -6q5 88 27 206q-44 -104 -101 -200zM393 722
q13 13 36 8q3 0 6 -1l6 -2t4 -1l43 -14q53 -14 71 21q1 2 13 -7.5t18 -22t-5 -28.5q-12 -12 -36 -9q-9 1 -33 10q-4 2 -19.5 8t-19.5 8q-38 14 -66 -22q-1 -2 -11 7.5t-14 21t7 23.5z" />
    <glyph glyph-name="Adieresis" unicode="&#xc4;" horiz-adv-x="595" 
d="M428 611q8 22 28 23q25 5 56 5q22 0 18 -12q-98 -283 -106 -472q10 -1 16.5 -2t11 -2t6.5 -2t2 -2q-3 -3 -36 -8v-35q3 -54 26 -59q25 -4 44.5 38.5t35.5 132.5q2 11 9 11t5 -11q-14 -110 -49.5 -169t-82.5 -61q-29 -1 -47.5 28t-20.5 74q-2 27 -1 40l-57 -8l-49 -7
q-102 -146 -182 -132q-48 9 -56 57q-8 49 29 103q37 55 103 82q13 4 16 -1q2 -6 -7 -10q-87 -40 -94 -95q-4 -37 26 -52q6 -3 18 -5q42 -6 94 48l-34 -3q-24 0 -19 20q15 46 24 47q6 2 78 -3q98 146 195 442zM271 167l74 -6q5 88 27 206q-44 -104 -101 -200zM415 661
q-29 8 -21 55q11 62 80 56q25 -2 33 -20t-6 -44q-16 -26 -42.5 -38.5t-43.5 -8.5zM539 661q-29 8 -21 55q11 62 80 56q25 -2 33 -20t-6 -44q-16 -26 -42.5 -38.5t-43.5 -8.5z" />
    <glyph glyph-name="Aring" unicode="&#xc5;" horiz-adv-x="528" 
d="M427 611q8 22 28 23q25 5 56 5q10 0 15 -3t3 -9q-98 -283 -106 -472q10 -1 16.5 -2t11 -2t6.5 -2t2 -2q-3 -3 -36 -8v-35q3 -54 26 -59q25 -4 44.5 38.5t35.5 132.5q2 11 9 11t5 -11q-14 -110 -49.5 -169t-82.5 -61q-29 -1 -47.5 28t-20.5 74q-2 27 -1 40l-57 -8l-49 -7
q-102 -146 -182 -132q-48 9 -56 57q-8 49 29 103q37 55 103 82q13 4 16 -1q2 -6 -7 -10q-87 -40 -94 -95q-4 -37 26 -52q6 -3 18 -5q42 -6 94 48l-34 -3q-24 0 -19 20q15 46 24 47q6 2 78 -3q98 146 195 442zM270 167l74 -6q5 88 27 206q-44 -104 -101 -200zM510 753
q26 0 42.5 -11.5t13.5 -27.5q-3 -17 -23.5 -28.5t-46.5 -11.5q-27 0 -43 11.5t-14 28.5q3 16 23.5 27.5t47.5 11.5zM515 710q8 29 -6 32q-5 2 -11 -5.5t-8 -18.5q-9 -27 5 -33q5 -1 11 6t9 19z" />
    <glyph glyph-name="AE" unicode="&#xc6;" horiz-adv-x="752" 
d="M433 611q8 23 28 26h7q26 2 61 2q23 0 18 -12q-3 -11 -4 -13q78 46 162 26q39 -9 61.5 -34t18.5 -62q-10 -86 -70 -129q-34 -26 -108 2q-46 17 -48 30q0 2 1 3q-1 1 3 1.5t13 1.5t19 2.5t22.5 4.5t22.5 7q82 32 88 74q12 71 -43 78q-50 8 -96 -25q-45 -31 -62 -102
q-10 -48 1 -89.5t40 -62.5q45 8 76 5q30 -1 28 -16q-2 -17 -36 -21h-4q-36 -5 -68 3q-92 -31 -109 -144q-13 -92 33 -135t139 -19q51 14 92 66t57 137q0 7 4 10t7 0t3 -10q-13 -101 -64 -159q-50 -56 -109 -71q-99 -24 -178 21q-78 45 -81 122l-117 -16q-101 -151 -180 -138
q-53 9 -54 66q-1 61 55 122q38 41 87 60q12 5 15 -1q2 -6 -7 -10q-86 -39 -93 -100q-6 -41 24 -59q9 -5 19 -6q47 -5 102 63l-54 -5q-24 0 -19 20q15 46 24 47q8 2 90 -3q84 142 183 442zM274 167l85 -6q5 124 47 293q-62 -166 -132 -287zM468 365q-11 -48 -14 -69
q27 18 62 31q-28 15 -48 38z" />
    <glyph glyph-name="Ccedilla" unicode="&#xc7;" horiz-adv-x="387" 
d="M441 216q-14 -98 -61 -156.5t-111 -73.5q-118 -26 -189 47q-70 73 -54 225q19 176 124 290q103 112 206 92q85 -16 70 -130q-7 -50 -30 -92.5t-58 -65.5q-27 -16 -61 -14q-30 1 -60 13q-26 12 -20 21l5 1q18 2 37 10q103 35 126 135q20 93 -30 101q-67 10 -131 -88
q-62 -98 -80 -260q-15 -134 28 -205q44 -71 127 -53q51 12 92 65t56 138q2 11 9 11t5 -11zM199 -49l1 1q20 20 27 32q6 9 12 6q5 -2 0 -7l-17 -19q26 7 48 -3t21 -30q-2 -26 -36 -47q-33 -21 -71 -26q-12 -1 -14 1.5t2 6t7 4.5q29 6 45 42q13 25 1 35q-5 5 -16 -1
q-15 -8 -17 -4q-1 1 7 9z" />
    <glyph glyph-name="Egrave" unicode="&#xc8;" horiz-adv-x="408" 
d="M363 640q39 -9 63.5 -40.5t16.5 -68.5q-15 -71 -72 -111q-26 -15 -57 -8q-32 8 -57 24q-25 17 -20 27l22 3q46 5 82.5 26.5t45.5 48.5t-1.5 50t-41.5 28q-52 9 -94.5 -25t-57.5 -102q-11 -48 -1.5 -88.5t35.5 -61.5q39 6 77 3q30 -1 28 -16q-1 -17 -36 -21h-4
q-31 -4 -66 2q-96 -33 -111 -149q-14 -85 36 -129q49 -42 141 -19q52 14 93 66t56 137q1 9 9 11q4 1 6 -5v-6q-13 -101 -64 -159q-50 -56 -109 -71q-122 -29 -200 19.5t-63 145.5q11 64 52 109t103 67q-46 24 -66.5 64.5t-9.5 87.5q21 91 106 137t159 24zM243 739
q-5 1 -5.5 5t3 10t11.5 14q30 28 52 24l6 -3q20 -15 44 -53q28 -42 39 -68q3 -8 2.5 -12.5t-2.5 -4.5h-3q-23 30 -54 47q-33 18 -93 41z" />
    <glyph glyph-name="Eacute" unicode="&#xc9;" horiz-adv-x="408" 
d="M363 640q39 -9 63.5 -40.5t16.5 -68.5q-15 -71 -72 -111q-26 -15 -57 -8q-32 8 -57 24q-25 17 -20 27l22 3q46 5 82.5 26.5t45.5 48.5t-1.5 50t-41.5 28q-52 9 -94.5 -25t-57.5 -102q-11 -48 -1.5 -88.5t35.5 -61.5q39 6 77 3q30 -1 28 -16q-1 -17 -36 -21h-4
q-31 -4 -66 2q-96 -33 -111 -149q-14 -85 36 -129q49 -42 141 -19q52 14 93 66t56 137q1 9 9 11q4 1 6 -5v-6q-13 -101 -64 -159q-50 -56 -109 -71q-122 -29 -200 19.5t-63 145.5q11 64 52 109t103 67q-46 24 -66.5 64.5t-9.5 87.5q21 91 106 137t159 24zM340 789
q8 12 23 -14q19 -37 9 -58q-2 -4 -4 -5q-25 -22 -132 -55q-17 -3 -17 4q34 17 59 44t62 84z" />
    <glyph glyph-name="Ecircumflex" unicode="&#xca;" horiz-adv-x="408" 
d="M363 640q39 -9 63.5 -40.5t16.5 -68.5q-15 -71 -72 -111q-26 -15 -57 -8q-32 8 -57 24q-25 17 -20 27l22 3q46 5 82.5 26.5t45.5 48.5t-1.5 50t-41.5 28q-52 9 -94.5 -25t-57.5 -102q-11 -48 -1.5 -88.5t35.5 -61.5q39 6 77 3q30 -1 28 -16q-1 -17 -36 -21h-4
q-31 -4 -66 2q-96 -33 -111 -149q-14 -85 36 -129q49 -42 141 -19q52 14 93 66t56 137q1 9 9 11q4 1 6 -5v-6q-13 -101 -64 -159q-50 -56 -109 -71q-122 -29 -200 19.5t-63 145.5q11 64 52 109t103 67q-46 24 -66.5 64.5t-9.5 87.5q21 91 106 137t159 24zM178 697l59 20
q53 20 81 49h2h1q33 -39 83 -75q9 -7 -18 -19q-40 -17 -51 -4q-15 21 -20 79q-34 -50 -73 -78q-17 -11 -53 10q-24 14 -11 18z" />
    <glyph glyph-name="Edieresis" unicode="&#xcb;" horiz-adv-x="408" 
d="M363 640q39 -9 63.5 -40.5t16.5 -68.5q-15 -71 -72 -111q-26 -15 -57 -8q-32 8 -57 24q-25 17 -20 27l22 3q46 5 82.5 26.5t45.5 48.5t-1.5 50t-41.5 28q-52 9 -94.5 -25t-57.5 -102q-11 -48 -1.5 -88.5t35.5 -61.5q39 6 77 3q30 -1 28 -16q-1 -17 -36 -21h-4
q-31 -4 -66 2q-96 -33 -111 -149q-14 -85 36 -129q49 -42 141 -19q52 14 93 66t56 137q1 9 9 11q4 1 6 -5v-6q-13 -101 -64 -159q-50 -56 -109 -71q-122 -29 -200 19.5t-63 145.5q11 64 52 109t103 67q-46 24 -66.5 64.5t-9.5 87.5q21 91 106 137t159 24zM216 662
q-29 8 -21 55q11 62 80 56q25 -2 33 -20t-6 -44q-16 -26 -42.5 -38.5t-43.5 -8.5zM340 662q-29 8 -21 55q11 62 80 56q25 -2 33 -20t-6 -44q-16 -26 -42.5 -38.5t-43.5 -8.5z" />
    <glyph glyph-name="Igrave" unicode="&#xcc;" horiz-adv-x="373" 
d="M205 641q85 15 132 -53q46 -67 25 -223q-35 -247 -127 -339q-82 -82 -164 -63q-42 8 -57 55.5t9.5 99.5t83.5 72q42 13 73 12q27 -1 5 -41q-6 -11 -10 -16t-6 -4q-31 7 -67 -3q-54 -17 -67 -69q-14 -47 15 -73q15 -14 37 -15q62 -2 104 67q52 82 76 312q18 144 0 205
t-79 51q-35 -6 -57.5 -37.5t-26.5 -74.5t17.5 -90.5t64.5 -80.5q6 -4 5 -9.5t-6.5 -7t-12.5 0.5q-46 33 -69 85.5t-17 103.5t38 89t81 46zM180 730q-5 1 -5.5 5t3 10t11.5 14q30 28 52 24l6 -3q20 -15 44 -53q28 -42 39 -68q3 -8 2.5 -12.5t-2.5 -4.5h-3q-23 30 -54 47
q-33 18 -93 41z" />
    <glyph glyph-name="Iacute" unicode="&#xcd;" horiz-adv-x="373" 
d="M205 641q85 15 132 -53q46 -67 25 -223q-35 -247 -127 -339q-82 -82 -164 -63q-42 8 -57 55.5t9.5 99.5t83.5 72q42 13 73 12q27 -1 5 -41q-6 -11 -10 -16t-6 -4q-31 7 -67 -3q-54 -17 -67 -69q-14 -47 15 -73q15 -14 37 -15q62 -2 104 67q52 82 76 312q18 144 0 205
t-79 51q-35 -6 -57.5 -37.5t-26.5 -74.5t17.5 -90.5t64.5 -80.5q6 -4 5 -9.5t-6.5 -7t-12.5 0.5q-46 33 -69 85.5t-17 103.5t38 89t81 46zM271 789q8 12 23 -14q19 -37 9 -58q-2 -4 -4 -5q-25 -22 -132 -55q-17 -3 -17 4q34 17 59 44t62 84z" />
    <glyph glyph-name="Icircumflex" unicode="&#xce;" horiz-adv-x="373" 
d="M205 641q85 15 132 -53q46 -67 25 -223q-35 -247 -127 -339q-82 -82 -164 -63q-42 8 -57 55.5t9.5 99.5t83.5 72q42 13 73 12q27 -1 5 -41q-6 -11 -10 -16t-6 -4q-31 7 -67 -3q-54 -17 -67 -69q-14 -47 15 -73q15 -14 37 -15q62 -2 104 67q52 82 76 312q18 144 0 205
t-79 51q-35 -6 -57.5 -37.5t-26.5 -74.5t17.5 -90.5t64.5 -80.5q6 -4 5 -9.5t-6.5 -7t-12.5 0.5q-46 33 -69 85.5t-17 103.5t38 89t81 46zM110 689l59 20q53 20 81 49h2h1q33 -39 83 -75q9 -7 -18 -19q-40 -17 -51 -4q-15 21 -20 79q-34 -50 -73 -78q-17 -11 -53 10
q-24 14 -11 18z" />
    <glyph glyph-name="Idieresis" unicode="&#xcf;" horiz-adv-x="373" 
d="M205 641q85 15 132 -53q46 -67 25 -223q-35 -247 -127 -339q-82 -82 -164 -63q-42 8 -57 55.5t9.5 99.5t83.5 72q42 13 73 12q27 -1 5 -41q-6 -11 -10 -16t-6 -4q-31 7 -67 -3q-54 -17 -67 -69q-14 -47 15 -73q15 -14 37 -15q62 -2 104 67q52 82 76 312q18 144 0 205
t-79 51q-35 -6 -57.5 -37.5t-26.5 -74.5t17.5 -90.5t64.5 -80.5q6 -4 5 -9.5t-6.5 -7t-12.5 0.5q-46 33 -69 85.5t-17 103.5t38 89t81 46zM135 655q-29 8 -21 55q11 62 80 56q25 -2 33 -20t-6 -44q-16 -26 -42.5 -38.5t-43.5 -8.5zM259 655q-29 8 -21 55q11 62 80 56
q25 -2 33 -20t-6 -44q-16 -26 -42.5 -38.5t-43.5 -8.5z" />
    <glyph glyph-name="Eth" unicode="&#xd0;" horiz-adv-x="524" 
d="M68 387q15 108 85 173q71 68 150 81q135 23 209 -62q75 -84 51 -240q-16 -107 -83 -194q-66 -84 -155 -124t-179 -27q-84 12 -123 69q-39 59 -23 125q16 68 78 111q29 21 61 31q21 6 16 -21q-5 -28 -15 -38q-33 -10 -54 -23q-52 -34 -63 -87q-10 -52 27 -95t112 -51
q108 -11 194 72t115 241q27 147 -22 226q-48 82 -164 62q-61 -11 -120 -70t-77 -159q-3 -12 -14 -10q-7 1 -6 10zM156 133q10 113 24 213l-30 6q-24 5 -29.5 7.5t0.5 5t32 8.5l32 5q20 129 42 202q5 15 83 15q7 0 11 -3.5t1 -8.5q-33 -81 -56 -193q22 3 36 4q15 1 19 -2.5
t2 -15.5q-2 -18 -9 -32.5t-14 -15.5q-5 -2 -46 6l-27 -186q-12 -99 -46 -112q-20 -9 -25 15q-5 23 0 82z" />
    <glyph glyph-name="Ntilde" unicode="&#xd1;" horiz-adv-x="542" 
d="M480 202l-9 -67q-15 -105 10 -108q14 -5 32 14t36.5 65.5t30.5 109.5q0 7 4 10t7 0t3 -10q-13 -99 -55 -161q-40 -60 -82 -67q-39 -5 -55.5 28.5t-8.5 98.5q10 81 19 136l18 123q8 48 12 92q10 86 -13 97q-26 11 -57 -35q-52 -75 -153 -452q-6 -41 -16 -54
q-10 -15 -37 -25q-14 -6 -17 6q-1 13 3 91q3 45 20 249q22 267 -27 283q-14 5 -35 -7q-39 -22 -58 -81q-19 -58 -4 -138q15 -79 68 -141q5 -6 3 -12.5t-7.5 -7.5t-10.5 3q-60 63 -75 152q-15 88 14 161q28 71 88 94q44 16 74.5 -3.5t47.5 -90t-1 -208.5q-9 -73 -14 -134
q24 87 48 156.5t44 115t40 80t36 50.5t31.5 26t28 8t23.5 -5q36 -14 26 -147q-6 -88 -11 -131zM260 734q13 13 36 8q3 0 6 -1l6 -2t4 -1l43 -14q53 -14 71 21q1 2 13 -7.5t18 -22t-5 -28.5q-12 -12 -36 -9q-10 1 -33 10q-4 2 -19.5 8t-19.5 8q-38 14 -66 -22q-1 -2 -11 7.5
t-14 21t7 23.5z" />
    <glyph glyph-name="Ograve" unicode="&#xd2;" horiz-adv-x="442" 
d="M450 335q-19 -125 -93 -226q40 3 71.5 34t45.5 83q3 9 10 9q6 -1 3 -11q-15 -63 -54 -97.5t-90 -34.5q-73 -88 -154 -93q-86 -5 -133 88q-46 91 -31 217q18 155 110 255q93 99 196 103q17 0 23.5 -6t2 -14t-17.5 -13q-6 -5 -19.5 0t-14.5 5q-56 0 -113 -91
q-57 -92 -76 -226q-9 -80 -8 -143q1 -69 26 -112t69 -38q55 6 92 76q-43 15 -71 49q-57 64 -64 164t32 180q40 80 105 97q76 18 123 -62q46 -79 30 -193zM245 158q26 -29 58 -42q31 67 56 212q19 105 -4 179q-22 73 -70 60q-46 -13 -77 -85q-32 -71 -24 -166q7 -94 61 -158z
M250 745q-5 1 -5.5 5t3 10t11.5 14q30 28 52 24l6 -3q20 -15 44 -53q28 -42 39 -68q3 -8 2.5 -12.5t-2.5 -4.5h-3q-23 30 -54 47q-33 18 -93 41z" />
    <glyph glyph-name="Oacute" unicode="&#xd3;" horiz-adv-x="442" 
d="M450 335q-19 -125 -93 -226q40 3 71.5 34t45.5 83q3 9 10 9q6 -1 3 -11q-15 -63 -54 -97.5t-90 -34.5q-73 -88 -154 -93q-86 -5 -133 88q-46 91 -31 217q18 155 110 255q93 99 196 103q17 0 23.5 -6t2 -14t-17.5 -13q-6 -5 -19.5 0t-14.5 5q-56 0 -113 -91
q-57 -92 -76 -226q-9 -80 -8 -143q1 -69 26 -112t69 -38q55 6 92 76q-43 15 -71 49q-57 64 -64 164t32 180q40 80 105 97q76 18 123 -62q46 -79 30 -193zM245 158q26 -29 58 -42q31 67 56 212q19 105 -4 179q-22 73 -70 60q-46 -13 -77 -85q-32 -71 -24 -166q7 -94 61 -158z
M341 802q8 12 23 -14q19 -37 9 -58q-2 -4 -4 -5q-25 -22 -132 -55q-17 -3 -17 4q34 17 59 44t62 84z" />
    <glyph glyph-name="Ocircumflex" unicode="&#xd4;" horiz-adv-x="442" 
d="M450 335q-19 -125 -93 -226q40 3 71.5 34t45.5 83q3 9 10 9q6 -1 3 -11q-15 -63 -54 -97.5t-90 -34.5q-73 -88 -154 -93q-86 -5 -133 88q-46 91 -31 217q18 155 110 255q93 99 196 103q17 0 23.5 -6t2 -14t-17.5 -13q-6 -5 -19.5 0t-14.5 5q-56 0 -113 -91
q-57 -92 -76 -226q-9 -80 -8 -143q1 -69 26 -112t69 -38q55 6 92 76q-43 15 -71 49q-57 64 -64 164t32 180q40 80 105 97q76 18 123 -62q46 -79 30 -193zM245 158q26 -29 58 -42q31 67 56 212q19 105 -4 179q-22 73 -70 60q-46 -13 -77 -85q-32 -71 -24 -166q7 -94 61 -158z
M186 702l59 20q53 20 81 49h2h1q33 -39 83 -75q9 -7 -18 -19q-40 -17 -51 -4q-15 21 -20 79q-34 -50 -73 -78q-17 -11 -53 10q-24 14 -11 18z" />
    <glyph glyph-name="Otilde" unicode="&#xd5;" horiz-adv-x="442" 
d="M450 335q-19 -125 -93 -226q40 3 71.5 34t45.5 83q3 9 10 9q6 -1 3 -11q-15 -63 -54 -97.5t-90 -34.5q-73 -88 -154 -93q-86 -5 -133 88q-46 91 -31 217q18 155 110 255q93 99 196 103q17 0 23.5 -6t2 -14t-17.5 -13q-6 -5 -19.5 0t-14.5 5q-56 0 -113 -91
q-57 -92 -76 -226q-9 -80 -8 -143q1 -69 26 -112t69 -38q55 6 92 76q-43 15 -71 49q-57 64 -64 164t32 180q40 80 105 97q76 18 123 -62q46 -79 30 -193zM245 158q26 -29 58 -42q31 67 56 212q19 105 -4 179q-22 73 -70 60q-46 -13 -77 -85q-32 -71 -24 -166q7 -94 61 -158z
M214 735q13 13 36 8q3 0 6 -1l6 -2t4 -1l43 -14q53 -14 71 21q1 2 13 -7.5t18 -22t-5 -28.5q-12 -12 -36 -9q-10 1 -33 10q-4 2 -19.5 8t-19.5 8q-38 14 -66 -22q-1 -2 -11 7.5t-14 21t7 23.5z" />
    <glyph glyph-name="Odieresis" unicode="&#xd6;" horiz-adv-x="442" 
d="M450 335q-19 -125 -93 -226q40 3 71.5 34t45.5 83q3 9 10 9q6 -1 3 -11q-15 -63 -54 -97.5t-90 -34.5q-73 -88 -154 -93q-86 -5 -133 88q-46 91 -31 217q18 155 110 255q93 99 196 103q17 0 23.5 -6t2 -14t-17.5 -13q-6 -5 -19.5 0t-14.5 5q-56 0 -113 -91
q-57 -92 -76 -226q-9 -80 -8 -143q1 -69 26 -112t69 -38q55 6 92 76q-43 15 -71 49q-57 64 -64 164t32 180q40 80 105 97q76 18 123 -62q46 -79 30 -193zM245 158q26 -29 58 -42q31 67 56 212q19 105 -4 179q-22 73 -70 60q-46 -13 -77 -85q-32 -71 -24 -166q7 -94 61 -158z
M228 675q-29 8 -21 55q11 62 80 56q25 -2 33 -20t-6 -44q-16 -26 -42.5 -38.5t-43.5 -8.5zM352 675q-29 8 -21 55q11 62 80 56q25 -2 33 -20t-6 -44q-16 -26 -42.5 -38.5t-43.5 -8.5z" />
    <glyph glyph-name="multiply" unicode="&#xd7;" horiz-adv-x="201" 
d="M141 123l25 -36q18 -29 15.5 -30t-32.5 18l-39 27l-41 -29q-29 -18 -31 -15q-1 1 19 33l23 33q-36 26 -50 40q-11 10 -12 14.5t9 12.5q40 28 51 17q8 -6 32 -41l32 40q11 11 15.5 11.5t12.5 -9.5q11 -15 16.5 -30.5t1.5 -20.5q-8 -8 -47 -35z" />
    <glyph glyph-name="Oslash" unicode="&#xd8;" horiz-adv-x="442" 
d="M164 -13l2 13q-76 9 -117 98q-39 90 -26 206q17 137 91 231q77 95 170 120l20 75q4 16 85 16q7 0 11 -3t2 -8q-22 -58 -53 -147q54 -16 83 -90q28 -71 16 -163q-19 -125 -93 -226q40 3 71.5 34t45.5 83q3 9 10 9q6 -1 3 -11q-15 -63 -54 -97.5t-90 -34.5
q-73 -88 -154 -93h-4q0 -1 -1 -4v-3q-1 -2 -1 -9q-4 -27 -12 -32q-1 -1 -2 -1q-7 -3 -7 6q0 10 4 31zM243 158q26 -29 58 -42q31 67 56 212q25 153 -22 218q-56 -167 -109 -366q5 -9 17 -22zM169 27l25 161q-35 62 -37 145q-1 82 29 149.5t80 95.5l12 51q-53 -20 -100 -106
q-48 -88 -64 -206q-17 -95 -4.5 -184t59.5 -106zM261 557q-52 -34 -73 -133q-20 -99 13 -193q29 176 60 326zM222 149l-3 3l-19 -77q-10 -48 -12 -51h13q55 6 92 76q-43 15 -71 49z" />
    <glyph glyph-name="Ugrave" unicode="&#xd9;" horiz-adv-x="443" 
d="M198 -21q-131 53 15 643q3 10 34 14q28 4 50 4q15 0 12 -12q-60 -237 -84 -366q-23 -133 -19 -174q4 -45 31 -54q19 -7 37 11.5t42 71.5q44 97 130 389q15 63 32 112q4 15 74 15q22 0 18 -12q-96 -277 -87 -523q0 -41 2 -54t12 -17q15 -4 31 13.5t32.5 61.5t28.5 109
q0 7 4 10t7 0t3 -10q-14 -103 -51 -165.5t-80 -64.5q-32 -2 -49.5 23t-20.5 78q-7 85 8 218q-64 -194 -115 -267.5t-97 -53.5zM324 748q-5 1 -5.5 5t3 10t11.5 14q30 28 52 24l6 -3q20 -15 44 -53q28 -42 39 -68q3 -8 2.5 -12.5t-2.5 -4.5h-3q-23 30 -54 47q-33 18 -93 41z
" />
    <glyph glyph-name="Uacute" unicode="&#xda;" horiz-adv-x="443" 
d="M198 -21q-131 53 15 643q3 10 34 14q28 4 50 4q15 0 12 -12q-60 -237 -84 -366q-23 -133 -19 -174q4 -45 31 -54q19 -7 37 11.5t42 71.5q44 97 130 389q15 63 32 112q4 15 74 15q22 0 18 -12q-96 -277 -87 -523q0 -41 2 -54t12 -17q15 -4 31 13.5t32.5 61.5t28.5 109
q0 7 4 10t7 0t3 -10q-14 -103 -51 -165.5t-80 -64.5q-32 -2 -49.5 23t-20.5 78q-7 85 8 218q-64 -194 -115 -267.5t-97 -53.5zM458 786q8 12 23 -14q19 -37 9 -58q-2 -4 -4 -5q-25 -22 -132 -55q-17 -3 -17 4q34 17 59 44t62 84z" />
    <glyph glyph-name="Ucircumflex" unicode="&#xdb;" horiz-adv-x="443" 
d="M198 -21q-131 53 15 643q3 10 34 14q28 4 50 4q15 0 12 -12q-60 -237 -84 -366q-23 -133 -19 -174q4 -45 31 -54q19 -7 37 11.5t42 71.5q44 97 130 389q15 63 32 112q4 15 74 15q22 0 18 -12q-96 -277 -87 -523q0 -41 2 -54t12 -17q15 -4 31 13.5t32.5 61.5t28.5 109
q0 7 4 10t7 0t3 -10q-14 -103 -51 -165.5t-80 -64.5q-32 -2 -49.5 23t-20.5 78q-7 85 8 218q-64 -194 -115 -267.5t-97 -53.5zM291 687l59 20q53 20 81 49h2h1q33 -39 83 -75q9 -7 -18 -19q-40 -17 -51 -4q-15 21 -20 79q-34 -50 -73 -78q-17 -11 -53 10q-24 14 -11 18z" />
    <glyph glyph-name="Udieresis" unicode="&#xdc;" horiz-adv-x="443" 
d="M198 -21q-131 53 15 643q3 10 34 14q28 4 50 4q15 0 12 -12q-60 -237 -84 -366q-23 -133 -19 -174q4 -45 31 -54q19 -7 37 11.5t42 71.5q44 97 130 389q15 63 32 112q4 15 74 15q22 0 18 -12q-96 -277 -87 -523q0 -41 2 -54t12 -17q15 -4 31 13.5t32.5 61.5t28.5 109
q0 7 4 10t7 0t3 -10q-14 -103 -51 -165.5t-80 -64.5q-32 -2 -49.5 23t-20.5 78q-7 85 8 218q-64 -194 -115 -267.5t-97 -53.5zM318 652q-29 8 -21 55q11 62 80 56q25 -2 33 -20t-6 -44q-16 -26 -42.5 -38.5t-43.5 -8.5zM442 652q-29 8 -21 55q11 62 80 56q25 -2 33 -20
t-6 -44q-16 -26 -42.5 -38.5t-43.5 -8.5z" />
    <glyph glyph-name="Yacute" unicode="&#xdd;" horiz-adv-x="414" 
d="M82 -21q-26 10 -37 67q-20 125 47 573q4 13 71 19l11 1q7 0 10.5 -3t2.5 -8q-70 -458 -71 -528q-2 -53 17 -60q22 -9 57 47q20 32 41 85q49 125 100 361q7 41 18 84q3 15 86 15q8 0 11 -2.5t2 -7.5q-12 -32 -39 -189q-54 -319 -108 -523q35 9 79 14q9 1 11 -5
q-1 -7 -11 -10q-44 -6 -84 -18q-93 -354 -196 -367q-44 -6 -68 41q-23 48 -13 106q15 73 74 130t149 90q27 156 59 415q-16 -59 -34.5 -108.5t-35.5 -83.5t-35 -61t-33.5 -41.5t-31 -25t-27.5 -10t-22 2.5zM123 -414q63 4 115 280q-62 -32 -100.5 -78t-48.5 -98
q-9 -42 3 -73.5t31 -30.5zM328 777q8 12 23 -14q19 -37 9 -58q-2 -4 -4 -5q-25 -22 -132 -55q-17 -3 -17 4q34 17 59 44t62 84z" />
    <glyph glyph-name="Thorn" unicode="&#xde;" horiz-adv-x="661" 
d="M92 -37q-40 12 -63 51t-22 86q2 48 37 91.5t93 63.5q-9 88 32 168q42 79 141 115v132q-2 9 32 14q37 5 50 5t13 -11q0 -64 -3 -121q117 10 202 -51q85 -59 71 -168q-10 -78 -68 -137q-56 -56 -133.5 -83.5t-162.5 -24.5q-45 -89 -104 -119t-115 -11zM105 -17
q22 -5 43 -5.5t40.5 13.5t37 37.5t32.5 66.5t26 100t18 139.5t8 183.5q-91 -28 -127 -101q-35 -74 -25 -155q27 7 64 5q27 -2 3 -41q-7 -11 -10.5 -15.5t-5.5 -3.5q-17 7 -40 4q20 -64 53 -88q10 -7 3 -15q-7 -6 -15 0q-44 28 -64 100h-1l-2 -1q-40 -10 -67.5 -33.5
t-36 -51.5t-5 -56.5t22.5 -51t48 -31.5zM401 532q-12 -262 -78 -412q101 -1 171 56q69 56 83 151q12 95 -37.5 150.5t-138.5 54.5z" />
    <glyph glyph-name="germandbls" unicode="&#xdf;" horiz-adv-x="319" 
d="M-14 95q12 232 72 368q61 138 139 151q35 6 59 -38q24 -43 10 -109q-24 -119 -98 -185q49 -30 75.5 -73t25.5 -91h39q11 -2 12 -8q1 -4 -4 -6h-6q-32 0 -41 -1v-1q-6 -54 -46 -89t-96 -33q-51 2 -56 40q-5 40 46 65q34 14 75 23q5 109 -58 152q-12 -6 -22 -6
q-22 0 -23 21q-1 20 19 28q11 4 29 -4l1 -1q24 49 45 161q23 119 -1 118h-2q-44 -11 -73 -119q-30 -112 -46 -348q-4 -55 -17.5 -80.5t-42.5 -37.5q-15 -6 -16 7q-2 13 1 96zM136 21q22 1 37.5 20t18.5 50v1q-38 -7 -59 -17q-24 -10 -31 -23.5t3 -22.5t31 -8z" />
    <glyph glyph-name="agrave" unicode="&#xe0;" horiz-adv-x="283" 
d="M204 104q-5 -69 11 -71t30 14q37 37 61 169q1 9 9 11q4 1 6 -5v-6q-15 -100 -47.5 -154.5t-76.5 -61.5q-27 -5 -47 20t-21 64q-26 -80 -65 -84q-38 -5 -66 34q-30 40 -23 95q9 82 69 133q62 51 122 51q23 0 46 -12.5t25 -27.5q1 -13 -54 -18q-36 -1 -34 5q16 31 -6 31
q-62 0 -83 -149q-5 -33 -4 -57t8 -37t18 -10q25 6 44 100l11 55q4 28 8 35q5 15 77 15q6 0 10.5 -3t1.5 -8q-23 -32 -30 -128zM72 404q-5 1 -5.5 5t3 10t11.5 14q30 28 52 24l6 -3q20 -15 44 -53q28 -42 39 -68q3 -8 2.5 -12.5t-2.5 -4.5h-3q-23 30 -54 47q-33 18 -93 41z
" />
    <glyph glyph-name="aacute" unicode="&#xe1;" horiz-adv-x="283" 
d="M204 104q-5 -69 11 -71t30 14q37 37 61 169q1 9 9 11q4 1 6 -5v-6q-15 -100 -47.5 -154.5t-76.5 -61.5q-27 -5 -47 20t-21 64q-26 -80 -65 -84q-38 -5 -66 34q-30 40 -23 95q9 82 69 133q62 51 122 51q23 0 46 -12.5t25 -27.5q1 -13 -54 -18q-36 -1 -34 5q16 31 -6 31
q-62 0 -83 -149q-5 -33 -4 -57t8 -37t18 -10q25 6 44 100l11 55q4 28 8 35q5 15 77 15q6 0 10.5 -3t1.5 -8q-23 -32 -30 -128zM188 454q8 12 23 -14q19 -37 9 -58q-2 -4 -4 -5q-25 -22 -132 -55q-17 -3 -17 4q34 17 59 44t62 84z" />
    <glyph glyph-name="acircumflex" unicode="&#xe2;" horiz-adv-x="283" 
d="M204 104q-5 -69 11 -71t30 14q37 37 61 169q1 9 9 11q4 1 6 -5v-6q-15 -100 -47.5 -154.5t-76.5 -61.5q-27 -5 -47 20t-21 64q-26 -80 -65 -84q-38 -5 -66 34q-30 40 -23 95q9 82 69 133q62 51 122 51q23 0 46 -12.5t25 -27.5q1 -13 -54 -18q-36 -1 -34 5q16 31 -6 31
q-62 0 -83 -149q-5 -33 -4 -57t8 -37t18 -10q25 6 44 100l11 55q4 28 8 35q5 15 77 15q6 0 10.5 -3t1.5 -8q-23 -32 -30 -128zM31 358l59 20q53 20 81 49h2h1q33 -39 83 -75q9 -7 -18 -19q-40 -17 -51 -4q-15 21 -20 79q-34 -50 -73 -78q-17 -11 -53 10q-24 14 -11 18z" />
    <glyph glyph-name="atilde" unicode="&#xe3;" horiz-adv-x="283" 
d="M204 104q-5 -69 11 -71t30 14q37 37 61 169q1 9 9 11q4 1 6 -5v-6q-15 -100 -47.5 -154.5t-76.5 -61.5q-27 -5 -47 20t-21 64q-26 -80 -65 -84q-38 -5 -66 34q-30 40 -23 95q9 82 69 133q62 51 122 51q23 0 46 -12.5t25 -27.5q1 -13 -54 -18q-36 -1 -34 5q16 31 -6 31
q-62 0 -83 -149q-5 -33 -4 -57t8 -37t18 -10q25 6 44 100l11 55q4 28 8 35q5 15 77 15q6 0 10.5 -3t1.5 -8q-23 -32 -30 -128zM48 391q13 13 36 8l16 -4l43 -14q53 -14 71 21q1 2 13 -7.5t18 -22t-5 -28.5q-12 -12 -36 -9q-10 1 -33 10q-4 2 -19.5 8t-19.5 8q-38 14 -66 -22
q-1 -2 -11 7.5t-14 21t7 23.5z" />
    <glyph glyph-name="adieresis" unicode="&#xe4;" horiz-adv-x="283" 
d="M204 104q-5 -69 11 -71t30 14q37 37 61 169q1 9 9 11q4 1 6 -5v-6q-15 -100 -47.5 -154.5t-76.5 -61.5q-27 -5 -47 20t-21 64q-26 -80 -65 -84q-38 -5 -66 34q-30 40 -23 95q9 82 69 133q62 51 122 51q23 0 46 -12.5t25 -27.5q1 -13 -54 -18q-36 -1 -34 5q16 31 -6 31
q-62 0 -83 -149q-5 -33 -4 -57t8 -37t18 -10q25 6 44 100l11 55q4 28 8 35q5 15 77 15q6 0 10.5 -3t1.5 -8q-23 -32 -30 -128zM48 333q-29 8 -21 55q11 62 80 56q25 -2 33 -20t-6 -44q-16 -26 -42.5 -38.5t-43.5 -8.5zM172 333q-29 8 -21 55q11 62 80 56q25 -2 33 -20
t-6 -44q-16 -26 -42.5 -38.5t-43.5 -8.5z" />
    <glyph glyph-name="aring" unicode="&#xe5;" horiz-adv-x="283" 
d="M204 104q-5 -69 11 -71t30 14q37 37 61 169q1 9 9 11q4 1 6 -5v-6q-15 -100 -47.5 -154.5t-76.5 -61.5q-27 -5 -47 20t-21 64q-26 -80 -65 -84q-38 -5 -66 34q-30 40 -23 95q9 82 69 133q62 51 122 51q23 0 46 -12.5t25 -27.5q1 -13 -54 -18q-36 -1 -34 5q16 31 -6 31
q-62 0 -83 -149q-5 -33 -4 -57t8 -37t18 -10q25 6 44 100l11 55q4 28 8 35q5 15 77 15q6 0 10.5 -3t1.5 -8q-23 -32 -30 -128zM156 416q26 0 42.5 -11.5t13.5 -27.5q-3 -17 -23.5 -28.5t-46.5 -11.5q-27 0 -43 11.5t-14 28.5q3 16 23.5 27.5t47.5 11.5zM161 373q8 29 -6 32
q-5 2 -11 -5.5t-8 -18.5q-9 -27 5 -33q5 -1 11 6t9 19z" />
    <glyph glyph-name="ae" unicode="&#xe6;" horiz-adv-x="407" 
d="M439 216q-14 -104 -76 -161q-51 -49 -105 -55q-39 -5 -77 20q-39 26 -51 66q-26 -82 -66 -86q-38 -5 -66 34q-30 40 -23 95q9 82 69 133q62 51 122 51q19 0 39.5 -9.5t27.5 -21.5q47 28 96 31q31 2 47 -15t7 -46q-23 -68 -171 -159q7 -33 25 -52.5t39 -15.5q32 5 77 44
q53 48 71 147q1 7 4.5 10t7 0t3.5 -10zM145 228q1 8 36 13q7 9 16 16q-47 -5 -48 3q16 31 -6 31q-62 0 -83 -149q-5 -33 -4 -57t8 -37t18 -10q14 5 31 46q1 2 15 63q2 9 7.5 39t7.5 38q0 1 1 2q0 2 1 2zM210 142q-3 -12 -1 -32q24 19 43 42.5t29 44.5t14.5 39t2 30t-10.5 15
q-22 7 -44 -31t-33 -108z" />
    <glyph glyph-name="ccedilla" unicode="&#xe7;" horiz-adv-x="224" 
d="M261 216q-13 -100 -65 -156q-51 -54 -106 -60q-48 -5 -84 34t-30 95q10 82 69 133t119 51q33 0 34 -11q2 -9 1 -13q0 -3 -2 -12t-5 -20t-4 -17q-6 -30 -6 -46l1 -2q0 -5 -26 -10q-64 -10 -70 -2q6 12 17.5 28.5t20 28t16.5 25t7.5 19t-7.5 10.5q-12 4 -27.5 -12
t-32.5 -52q-15 -34 -23 -85q-7 -46 7 -85q14 -37 43 -32q34 4 79 52q43 46 60 139q2 11 8.5 11t5.5 -11zM55 -30l1 1q20 20 27 32q6 9 12 6q5 -2 0 -7l-17 -19q26 7 48 -3t21 -30q-2 -26 -36 -47q-33 -21 -71 -26q-12 -1 -14 1.5t2 6t7 4.5q29 6 45 42q13 25 1 35
q-5 5 -16 -1q-15 -8 -17 -4q-1 1 7 9z" />
    <glyph glyph-name="egrave" unicode="&#xe8;" horiz-adv-x="256" 
d="M286 216q-13 -99 -69 -155q-53 -55 -111 -61q-50 -6 -95 34q-44 41 -38 95q11 81 75 130t128 54q31 2 47.5 -15t7.5 -46q-21 -66 -171 -159q7 -33 25 -52.5t39 -15.5q32 5 77 44q53 48 71 147q2 11 9 11t5 -11zM58 142q-3 -12 -1 -32q24 19 43 42.5t28.5 44.5t14 39
t2.5 30t-10 15q-24 7 -45.5 -31t-31.5 -108zM57 410q-5 1 -5.5 5t3 10t11.5 14q30 28 52 24l6 -3q20 -15 44 -53q28 -42 39 -68q3 -8 2.5 -12.5t-2.5 -4.5h-3q-23 30 -54 47q-33 18 -93 41z" />
    <glyph glyph-name="eacute" unicode="&#xe9;" horiz-adv-x="256" 
d="M286 216q-13 -99 -69 -155q-53 -55 -111 -61q-50 -6 -95 34q-44 41 -38 95q11 81 75 130t128 54q31 2 47.5 -15t7.5 -46q-21 -66 -171 -159q7 -33 25 -52.5t39 -15.5q32 5 77 44q53 48 71 147q2 11 9 11t5 -11zM58 142q-3 -12 -1 -32q24 19 43 42.5t28.5 44.5t14 39
t2.5 30t-10 15q-24 7 -45.5 -31t-31.5 -108zM161 454q8 12 23 -14q19 -37 9 -58q-2 -4 -4 -5q-25 -22 -132 -55q-17 -3 -17 4q34 17 59 44t62 84z" />
    <glyph glyph-name="ecircumflex" unicode="&#xea;" horiz-adv-x="256" 
d="M286 216q-13 -99 -69 -155q-53 -55 -111 -61q-50 -6 -95 34q-44 41 -38 95q11 81 75 130t128 54q31 2 47.5 -15t7.5 -46q-21 -66 -171 -159q7 -33 25 -52.5t39 -15.5q32 5 77 44q53 48 71 147q2 11 9 11t5 -11zM58 142q-3 -12 -1 -32q24 19 43 42.5t28.5 44.5t14 39
t2.5 30t-10 15q-24 7 -45.5 -31t-31.5 -108zM11 358l59 20q53 20 81 49h2h1q33 -39 83 -75q9 -7 -18 -19q-40 -17 -51 -4q-15 21 -20 79q-34 -50 -73 -78q-17 -11 -53 10q-24 14 -11 18z" />
    <glyph glyph-name="edieresis" unicode="&#xeb;" horiz-adv-x="256" 
d="M286 216q-13 -99 -69 -155q-53 -55 -111 -61q-50 -6 -95 34q-44 41 -38 95q11 81 75 130t128 54q31 2 47.5 -15t7.5 -46q-21 -66 -171 -159q7 -33 25 -52.5t39 -15.5q32 5 77 44q53 48 71 147q2 11 9 11t5 -11zM58 142q-3 -12 -1 -32q24 19 43 42.5t28.5 44.5t14 39
t2.5 30t-10 15q-24 7 -45.5 -31t-31.5 -108zM34 333q-29 8 -21 55q11 62 80 56q25 -2 33 -20t-6 -44q-16 -26 -42.5 -38.5t-43.5 -8.5zM158 333q-29 8 -21 55q11 62 80 56q25 -2 33 -20t-6 -44q-16 -26 -42.5 -38.5t-43.5 -8.5z" />
    <glyph glyph-name="igrave" unicode="&#xec;" horiz-adv-x="155" 
d="M80 104q-5 -62 17 -65q12 -4 26.5 11.5t30.5 58.5t28 107q2 11 8.5 11t5.5 -11q-14 -101 -49.5 -161t-79.5 -67q-31 -6 -46.5 22.5t-15.5 77.5q0 131 20 197q5 15 77 15q7 0 11 -3.5t1 -8.5q-24 -33 -34 -184zM9 398q-5 1 -5.5 5t3 10t11.5 14q30 28 52 24l6 -3
q20 -15 44 -53q28 -42 39 -68q3 -8 2.5 -12.5t-2.5 -4.5h-3q-23 30 -54 47q-33 18 -93 41z" />
    <glyph glyph-name="iacute" unicode="&#xed;" horiz-adv-x="155" 
d="M70 104q-5 -62 17 -65q12 -4 26.5 11.5t30.5 58.5t28 107q2 11 9 11t5 -11q-14 -101 -49.5 -161t-79.5 -67q-31 -6 -46.5 22.5t-15.5 77.5q0 131 20 197q5 15 77 15q7 0 11 -3.5t1 -8.5q-24 -33 -34 -184zM116 454q8 12 23 -14q19 -37 9 -58q-2 -4 -4 -5
q-25 -22 -132 -55q-17 -3 -17 4q34 17 59 44t62 84z" />
    <glyph glyph-name="icircumflex" unicode="&#xee;" horiz-adv-x="155" 
d="M82 104q-5 -62 17 -65q12 -4 26.5 11.5t30.5 58.5t28 107q2 11 8.5 11t5.5 -11q-14 -101 -49.5 -161t-79.5 -67q-31 -6 -46.5 22.5t-15.5 77.5q0 131 20 197q5 15 77 15q7 0 11 -3.5t1 -8.5q-24 -33 -34 -184zM-36 358l59 20q53 20 81 49h2h1q33 -39 83 -75q9 -7 -18 -19
q-40 -17 -51 -4q-15 21 -20 79q-34 -50 -73 -78q-17 -11 -53 10q-24 14 -11 18z" />
    <glyph glyph-name="idieresis" unicode="&#xef;" horiz-adv-x="155" 
d="M76 104q-5 -62 17 -65q12 -4 26.5 11.5t30.5 58.5t28 107q2 11 8.5 11t5.5 -11q-14 -101 -49.5 -161t-79.5 -67q-31 -6 -46.5 22.5t-15.5 77.5q0 131 20 197q5 15 77 15q7 0 11 -3.5t1 -8.5q-24 -33 -34 -184zM-13 333q-29 8 -21 55q11 62 80 56q25 -2 33 -20t-6 -44
q-16 -26 -42.5 -38.5t-43.5 -8.5zM111 333q-29 8 -21 55q11 62 80 56q25 -2 33 -20t-6 -44q-16 -26 -42.5 -38.5t-43.5 -8.5z" />
    <glyph glyph-name="eth" unicode="&#xf0;" horiz-adv-x="250" 
d="M254 546q33 6 34 4q2 -3 -14 -15l-13 -10l-43 -27q24 -135 -11 -332q-13 -77 -54 -124q-39 -47 -83 -42q-40 3 -65.5 43.5t-19.5 103.5q11 95 62 141q53 47 95 25q7 -4 13 -13q7 82 -7 154l-33 -19q-13 -6 -17.5 -5t-8.5 13q-6 17 -6 33.5t6 19.5q12 7 42 14
q-17 46 -50 96q-7 9 8 15q17 3 24 4q12 2 37 4q23 2 24 -4q21 -33 37 -92q7 2 17 5t17.5 5.5t8.5 2.5zM88 37q35 11 50 127l4 29q14 87 -13 98q-12 5 -23 -4t-22 -41.5t-17 -85.5q-13 -129 21 -123z" />
    <glyph glyph-name="ntilde" unicode="&#xf1;" horiz-adv-x="293" 
d="M218 165l-3 -30q-11 -107 10 -108q14 -5 30.5 14t33.5 64.5t29 110.5q2 11 9 11t5 -11q-12 -99 -46 -157t-78 -65q-39 -7 -57 25.5t-13 95.5q1 26 8 77q6 48 0 50q-4 1 -11 -3q-43 -23 -75 -138q-4 -53 -19 -74q-14 -20 -40 -30q-15 -6 -16 4q-2 13 1 93q10 187 31 249
q6 16 84 16q17 0 12 -12q-34 -84 -46 -173q28 69 62.5 106.5t69.5 33.5q23 -3 26 -30q3 -29 -7 -119zM55 416q13 13 36 8l16 -4l43 -14q52 -14 71 21q1 2 13 -7.5t18 -22t-5 -28.5q-12 -12 -36 -9q-9 1 -33 10q-4 2 -19.5 8t-19.5 8q-38 14 -66 -22q-1 -2 -11 7.5t-14 21
t7 23.5z" />
    <glyph glyph-name="ograve" unicode="&#xf2;" 
d="M256 166q-7 -31 -11 -44q40 24 56 91q1 4 5.5 6.5t7.5 0t1 -9.5q-21 -87 -79 -112q-21 -46 -59 -74t-85 -31q-56 -4 -88 38t-24 104q11 94 63.5 143.5t135.5 51.5q19 0 19 -7.5t-17 -13.5q-8 -3 -12.5 -2.5t-11 2.5t-9.5 2q-61 0 -83 -163q-9 -60 1 -97.5t38 -33.5
q37 3 56 84q-13 8 -20 15q-44 41 -34 102q11 62 64 77q51 15 73 -25t13 -104zM159 131l7 -6l6 34q5 28 2.5 46.5t-10.5 26.5t-19 4q-20 -8 -15 -46t29 -59zM75 410q-5 1 -5.5 5t3 10t11.5 14q30 28 52 24l6 -3q20 -15 44 -53q28 -42 39 -68q3 -8 2.5 -12.5t-2.5 -4.5h-3
q-23 30 -54 47q-33 18 -93 41z" />
    <glyph glyph-name="oacute" unicode="&#xf3;" 
d="M256 166q-7 -31 -11 -44q40 24 56 91q1 4 5.5 6.5t7.5 0t1 -9.5q-21 -87 -79 -112q-21 -46 -59 -74t-85 -31q-56 -4 -88 38t-24 104q11 94 63.5 143.5t135.5 51.5q19 0 19 -7.5t-17 -13.5q-8 -3 -12.5 -2.5t-11 2.5t-9.5 2q-61 0 -83 -163q-9 -60 1 -97.5t38 -33.5
q37 3 56 84q-13 8 -20 15q-44 41 -34 102q11 62 64 77q51 15 73 -25t13 -104zM159 131l7 -6l6 34q5 28 2.5 46.5t-10.5 26.5t-19 4q-20 -8 -15 -46t29 -59zM185 454q8 12 23 -14q19 -37 9 -58q-2 -4 -4 -5q-25 -22 -132 -55q-17 -3 -17 4q34 17 59 44t62 84z" />
    <glyph glyph-name="ocircumflex" unicode="&#xf4;" 
d="M256 166q-7 -31 -11 -44q40 24 56 91q1 4 5.5 6.5t7.5 0t1 -9.5q-21 -87 -79 -112q-21 -46 -59 -74t-85 -31q-56 -4 -88 38t-24 104q11 94 63.5 143.5t135.5 51.5q19 0 19 -7.5t-17 -13.5q-8 -3 -12.5 -2.5t-11 2.5t-9.5 2q-61 0 -83 -163q-9 -60 1 -97.5t38 -33.5
q37 3 56 84q-13 8 -20 15q-44 41 -34 102q11 62 64 77q51 15 73 -25t13 -104zM159 131l7 -6l6 34q5 28 2.5 46.5t-10.5 26.5t-19 4q-20 -8 -15 -46t29 -59zM35 358l59 20q53 20 81 49h2h1q33 -39 83 -75q9 -7 -18 -19q-40 -17 -51 -4q-15 21 -20 79q-34 -50 -73 -78
q-17 -11 -53 10q-24 14 -11 18z" />
    <glyph glyph-name="otilde" unicode="&#xf5;" 
d="M256 166q-7 -31 -11 -44q40 24 56 91q1 4 5.5 6.5t7.5 0t1 -9.5q-21 -87 -79 -112q-21 -46 -59 -74t-85 -31q-56 -4 -88 38t-24 104q11 94 63.5 143.5t135.5 51.5q19 0 19 -7.5t-17 -13.5q-8 -3 -12.5 -2.5t-11 2.5t-9.5 2q-61 0 -83 -163q-9 -60 1 -97.5t38 -33.5
q37 3 56 84q-13 8 -20 15q-44 41 -34 102q11 62 64 77q51 15 73 -25t13 -104zM159 131l7 -6l6 34q5 28 2.5 46.5t-10.5 26.5t-19 4q-20 -8 -15 -46t29 -59zM45 391q13 13 36 8l16 -4l43 -14q53 -14 71 21q1 2 13 -7.5t18 -22t-5 -28.5q-12 -12 -36 -9q-9 1 -33 10
q-4 2 -19.5 8t-19.5 8q-38 14 -66 -22q-1 -2 -11 7.5t-14 21t7 23.5z" />
    <glyph glyph-name="odieresis" unicode="&#xf6;" 
d="M256 166q-7 -31 -11 -44q40 24 56 91q1 4 5.5 6.5t7.5 0t1 -9.5q-21 -87 -79 -112q-21 -46 -59 -74t-85 -31q-56 -4 -88 38t-24 104q11 94 63.5 143.5t135.5 51.5q19 0 19 -7.5t-17 -13.5q-8 -3 -12.5 -2.5t-11 2.5t-9.5 2q-61 0 -83 -163q-9 -60 1 -97.5t38 -33.5
q37 3 56 84q-13 8 -20 15q-44 41 -34 102q11 62 64 77q51 15 73 -25t13 -104zM159 131l7 -6l6 34q5 28 2.5 46.5t-10.5 26.5t-19 4q-20 -8 -15 -46t29 -59zM57 333q-29 8 -21 55q11 62 80 56q25 -2 33 -20t-6 -44q-16 -26 -42.5 -38.5t-43.5 -8.5zM181 333q-29 8 -21 55
q11 62 80 56q25 -2 33 -20t-6 -44q-16 -26 -42.5 -38.5t-43.5 -8.5z" />
    <glyph glyph-name="divide" unicode="&#xf7;" horiz-adv-x="136" 
d="M44 14q-22 4 -16 46q6 46 59 40q19 -1 25.5 -12.5t-3.5 -34.5q-13 -22 -32.5 -32.5t-32.5 -6.5zM78 171q-22 7 -16 47q6 46 59 40q42 -5 22 -47q-12 -22 -31.5 -32.5t-33.5 -7.5zM7 123q-33 7 -32.5 10.5t36.5 10.5q102 16 155 22q15 0 18.5 -3t2.5 -15q-8 -48 -24 -49
q-18 -1 -156 24z" />
    <glyph glyph-name="oslash" unicode="&#xf8;" 
d="M255 166q-7 -31 -11 -44q40 24 56 91q1 4 5.5 6.5t7.5 0t1 -9.5q-21 -87 -79 -112q-21 -46 -59 -74t-85 -31h-5l-9 -38q-7 -36 -18 -41q-4 -1 -5.5 0.5t-1.5 6.5q0 6 5 31l9 42q-45 7 -69 46.5t-18 94.5q19 165 161 191l17 47q3 10 25 11q21 3 35 1q7 0 11 -3.5t1 -8.5
l-34 -74q37 -1 52 -41t8 -92zM116 250q8 32 18 59q-50 -15 -70 -161q-12 -78 8 -115q26 146 32 173q1 24 12 44zM126 130q-18 -50 -33 -113h10q37 3 56 84q-13 8 -20 15q-9 8 -13 14zM158 131l7 -6l6 34q9 51 -6 71q-27 -66 -28 -69q7 -19 21 -30z" />
    <glyph glyph-name="ugrave" unicode="&#xf9;" horiz-adv-x="295" 
d="M213 97q-4 -67 12 -70q14 -5 30.5 13.5t33.5 64.5t29 111q2 11 8.5 11t5.5 -11q-14 -102 -49 -160.5t-76 -62.5q-31 -4 -50 23t-18 72q0 2 0.5 12.5t0.5 14.5q-48 -133 -108 -120q-24 5 -35 51t-4 126q7 97 20 121q4 8 33 13q24 4 45 2q10 -1 13.5 -3.5t-0.5 -8.5
q-22 -37 -33 -106q-12 -79 -13 -109q-2 -37 12 -39q16 -4 35 32.5t34 101.5q1 4 7 35q6 65 15 80q4 9 31 14q22 4 46 2q16 -3 12 -12q-27 -33 -37 -198zM72 410q-5 1 -5.5 5t3 10t11.5 14q30 28 52 24l6 -3q20 -15 44 -53q28 -42 39 -68q3 -8 2.5 -12.5t-2.5 -4.5h-3
q-23 30 -54 47q-33 18 -93 41z" />
    <glyph glyph-name="uacute" unicode="&#xfa;" horiz-adv-x="295" 
d="M213 97q-4 -67 12 -70q14 -5 30.5 13.5t33.5 64.5t29 111q2 11 8.5 11t5.5 -11q-14 -102 -49 -160.5t-76 -62.5q-31 -4 -50 23t-18 72q0 2 0.5 12.5t0.5 14.5q-48 -133 -108 -120q-24 5 -35 51t-4 126q7 97 20 121q4 8 33 13q24 4 45 2q10 -1 13.5 -3.5t-0.5 -8.5
q-22 -37 -33 -106q-12 -79 -13 -109q-2 -37 12 -39q16 -4 35 32.5t34 101.5q1 4 7 35q6 65 15 80q4 9 31 14q22 4 46 2q16 -3 12 -12q-27 -33 -37 -198zM181 460q8 12 23 -14q19 -37 9 -58q-2 -4 -4 -5q-25 -22 -132 -55q-17 -3 -17 4q34 17 59 44t62 84z" />
    <glyph glyph-name="ucircumflex" unicode="&#xfb;" horiz-adv-x="295" 
d="M213 97q-4 -67 12 -70q14 -5 30.5 13.5t33.5 64.5t29 111q2 11 8.5 11t5.5 -11q-14 -102 -49 -160.5t-76 -62.5q-31 -4 -50 23t-18 72q0 2 0.5 12.5t0.5 14.5q-48 -133 -108 -120q-24 5 -35 51t-4 126q7 97 20 121q4 8 33 13q24 4 45 2q10 -1 13.5 -3.5t-0.5 -8.5
q-22 -37 -33 -106q-12 -79 -13 -109q-2 -37 12 -39q16 -4 35 32.5t34 101.5q1 4 7 35q6 65 15 80q4 9 31 14q22 4 46 2q16 -3 12 -12q-27 -33 -37 -198zM26 358l59 20q53 20 81 49h2h1q33 -39 83 -75q9 -7 -18 -19q-40 -17 -51 -4q-15 21 -20 79q-34 -50 -73 -78
q-17 -11 -53 10q-24 14 -11 18z" />
    <glyph glyph-name="udieresis" unicode="&#xfc;" horiz-adv-x="295" 
d="M213 97q-4 -67 12 -70q14 -5 30.5 13.5t33.5 64.5t29 111q2 11 8.5 11t5.5 -11q-14 -102 -49 -160.5t-76 -62.5q-31 -4 -50 23t-18 72q0 2 0.5 12.5t0.5 14.5q-48 -133 -108 -120q-24 5 -35 51t-4 126q7 97 20 121q4 8 33 13q24 4 45 2q10 -1 13.5 -3.5t-0.5 -8.5
q-22 -37 -33 -106q-12 -79 -13 -109q-2 -37 12 -39q16 -4 35 32.5t34 101.5q1 4 7 35q6 65 15 80q4 9 31 14q22 4 46 2q16 -3 12 -12q-27 -33 -37 -198zM60 333q-29 8 -21 55q11 62 80 56q25 -2 33 -20t-6 -44q-16 -26 -42.5 -38.5t-43.5 -8.5zM184 333q-29 8 -21 55
q11 62 80 56q25 -2 33 -20t-6 -44q-16 -26 -42.5 -38.5t-43.5 -8.5z" />
    <glyph glyph-name="yacute" unicode="&#xfd;" horiz-adv-x="282" 
d="M9 172q10 104 21 121q4 8 33 13q24 4 45 2q17 -2 11 -12q-22 -37 -32 -106q-12 -79 -13 -109q-1 -37 11 -39q17 -4 39.5 60t39.5 139q0 3 1.5 9t4 16.5t4.5 19.5q4 16 78 16q7 0 11 -2.5t2 -8.5q-17 -42 -41 -184q-12 -73 -31 -163q40 10 70 13q7 0 10 -3.5t0 -7
t-10 -4.5q-17 -1 -75 -16q-78 -348 -193 -364q-38 -5 -64 41q-27 43 -16 101q12 68 67.5 125t138.5 92q17 112 23 167l3 29q-47 -130 -96 -119q-55 14 -42 174zM19 -381q55 3 98 274q-98 -59 -120 -170q-6 -32 -5 -55.5t8 -36.5t19 -12zM198 454q8 12 23 -14q19 -37 9 -58
q-2 -4 -4 -5q-25 -22 -132 -55q-17 -3 -17 4q34 17 59 44t62 84z" />
    <glyph glyph-name="thorn" unicode="&#xfe;" horiz-adv-x="274" 
d="M172 314q34 4 53.5 -33t13.5 -96q-4 -43 -19 -81.5t-34 -62t-41 -39.5t-41 -14.5t-33 14.5q-7 8 -12 18l-9 -46l-7 -38q50 15 100 21q10 1 11 -6q0 -7 -12 -9q-52 -8 -104 -27q-70 -337 -172 -347q-46 -3 -72 38q-25 40 -15 98q12 64 65.5 118.5t134.5 90.5l21 175
q13 121 18 163q0 2 1 10.5t3 21t4 27.5l11 73l12 70l15 79q17 81 39 144q6 16 83 16q6 0 10 -3.5t2 -8.5q-29 -76 -53 -184l-18 -86l-17 -92l-12 -70l-1 -9q31 71 75 75zM-117 -381q57 0 93 264q-95 -63 -114 -160q-9 -47 -3 -75.5t24 -28.5zM157 172q3 25 4 43t-0.5 32
t-6.5 19.5t-13 3.5q-28 -7 -63 -142l-5 -28q-3 -67 19 -86q11 -8 21 2t20 39q17 43 24 117z" />
    <glyph glyph-name="ydieresis" unicode="&#xff;" horiz-adv-x="288" 
d="M9 172q10 104 21 121q4 8 33 13q24 4 45 2q17 -2 11 -12q-22 -37 -32 -106q-12 -79 -13 -109q-1 -37 11 -39q17 -4 39.5 60t39.5 139q0 3 1.5 9t4 16.5t4.5 19.5q4 16 78 16q7 0 11 -2.5t2 -8.5q-17 -42 -41 -184q-12 -73 -31 -163q40 10 70 13q7 0 10 -3.5t0 -7
t-10 -4.5q-17 -1 -75 -16q-78 -348 -193 -364q-38 -5 -64 41q-27 43 -16 101q12 68 67.5 125t138.5 92q17 112 23 167l3 29q-47 -130 -96 -119q-55 14 -42 174zM19 -381q55 3 98 274q-98 -59 -120 -170q-6 -32 -5 -55.5t8 -36.5t19 -12zM60 333q-29 8 -21 55q11 62 80 56
q25 -2 33 -20t-6 -44q-16 -26 -42.5 -38.5t-43.5 -8.5zM184 333q-29 8 -21 55q11 62 80 56q25 -2 33 -20t-6 -44q-16 -26 -42.5 -38.5t-43.5 -8.5z" />
    <glyph glyph-name="Amacron" unicode="&#x100;" horiz-adv-x="543" 
d="M427 611q8 22 28 23q25 5 56 5q10 0 15 -3t3 -9q-98 -283 -106 -472q10 -1 16.5 -2t11 -2t6.5 -2t2 -2q-3 -3 -36 -8v-35q3 -54 26 -59q25 -4 44.5 38.5t35.5 132.5q2 11 9 11t5 -11q-14 -110 -49.5 -169t-82.5 -61q-29 -1 -47.5 28t-20.5 74q-2 27 -1 40l-57 -8l-49 -7
q-102 -146 -182 -132q-48 9 -56 57q-8 49 29 103q37 55 103 82q13 4 16 -1q2 -6 -7 -10q-87 -40 -94 -95q-4 -37 26 -52q6 -3 18 -5q42 -6 94 48l-34 -3q-24 0 -19 20q15 46 24 47q6 2 78 -3q98 146 195 442zM270 167l74 -6q5 88 27 206q-44 -104 -101 -200zM414 669
q-14 3 -21.5 5t-10.5 3.5t1 3.5t11.5 4t22.5 5q118 19 143 22q15 0 19 -3t2 -15q-8 -47 -23 -49q-14 -1 -144 24z" />
    <glyph glyph-name="amacron" unicode="&#x101;" horiz-adv-x="283" 
d="M204 104q-5 -69 11 -71t30 14q37 37 61 169q1 9 9 11q4 1 6 -5v-6q-15 -100 -47.5 -154.5t-76.5 -61.5q-27 -5 -47 20t-21 64q-26 -80 -65 -84q-38 -5 -66 34q-30 40 -23 95q9 82 69 133q62 51 122 51q23 0 46 -12.5t25 -27.5q1 -13 -54 -18q-36 -1 -34 5q16 31 -6 31
q-62 0 -83 -149q-5 -33 -4 -57t8 -37t18 -10q25 6 44 100l11 55q4 28 8 35q5 15 77 15q6 0 10.5 -3t1.5 -8q-23 -32 -30 -128zM79 369q-14 3 -21.5 5t-10.5 3.5t1 3.5t11.5 4t22.5 5q118 19 143 22q15 0 19 -3t2 -15q-8 -47 -23 -49q-13 -1 -144 24z" />
    <glyph glyph-name="Abreve" unicode="&#x102;" horiz-adv-x="531" 
d="M428 611q8 22 28 23q25 5 56 5q22 0 18 -12q-98 -283 -106 -472q10 -1 16.5 -2t11 -2t6.5 -2t2 -2q-3 -3 -36 -8v-35q3 -54 26 -59q25 -4 44.5 38.5t35.5 132.5q2 11 9 11t5 -11q-14 -110 -49.5 -169t-82.5 -61q-29 -1 -47.5 28t-20.5 74q-2 27 -1 40l-57 -8l-49 -7
q-102 -146 -182 -132q-48 9 -56 57q-8 49 29 103q37 55 103 82q13 4 16 -1q2 -6 -7 -10q-87 -40 -94 -95q-4 -37 26 -52q6 -3 18 -5q42 -6 94 48l-34 -3q-24 0 -19 20q15 46 24 47q6 2 78 -3q98 146 195 442zM271 167l74 -6q5 88 27 206q-44 -104 -101 -200zM558 755
q3 7 9 6.5t1 -14.5q-13 -35 -42 -64q-28 -27 -53 -21q-29 6 -27 41q1 35 27 52q10 7 12 5q0 -3 -8 -14q-11 -13 -3 -20t28 -4q42 7 56 33z" />
    <glyph glyph-name="abreve" unicode="&#x103;" horiz-adv-x="283" 
d="M204 104q-5 -69 11 -71t30 14q37 37 61 169q1 9 9 11q4 1 6 -5v-6q-15 -100 -47.5 -154.5t-76.5 -61.5q-27 -5 -47 20t-21 64q-26 -80 -65 -84q-38 -5 -66 34q-30 40 -23 95q9 82 69 133q62 51 122 51q23 0 46 -12.5t25 -27.5q1 -13 -54 -18q-36 -1 -34 5q16 31 -6 31
q-62 0 -83 -149q-5 -33 -4 -57t8 -37t18 -10q25 6 44 100l11 55q4 28 8 35q5 15 77 15q6 0 10.5 -3t1.5 -8q-23 -32 -30 -128zM213 416q3 7 9 6.5t1 -14.5q-13 -35 -42 -64q-28 -27 -53 -21q-29 6 -27 41q1 35 27 52q10 7 12 5q2 -4 -8 -14q-11 -13 -3 -20t28 -4q42 7 56 33
z" />
    <glyph glyph-name="Aogonek" unicode="&#x104;" horiz-adv-x="505" 
d="M427 611q8 22 28 23q25 5 56 5q10 0 15 -3t3 -9q-98 -283 -106 -472q10 -1 16.5 -2t11 -2t6.5 -2t2 -2q-3 -3 -36 -8v-35q3 -54 26 -59q25 -4 44.5 38.5t35.5 132.5q2 11 9 11t5 -11q-14 -110 -49.5 -169t-82.5 -61q-29 -1 -47.5 28t-20.5 74q-2 27 -1 40l-57 -8l-49 -7
q-102 -146 -182 -132q-48 9 -56 57q-8 49 29 103q37 55 103 82q13 4 16 -1q2 -6 -7 -10q-87 -40 -94 -95q-4 -37 26 -52q6 -3 18 -5q42 -6 94 48l-34 -3q-24 0 -19 20q15 46 24 47q6 2 78 -3q98 146 195 442zM270 167l74 -6q5 88 27 206q-44 -104 -101 -200zM320 -71
q2 26 32 51q31 25 66 34q7 1 10 -1t1 -5.5t-9 -5.5q-16 -4 -33 -39q-7 -15 0 -24t22 0q15 6 15 1q0 -11 -25 -32q-25 -20 -53 -13q-27 7 -26 34z" />
    <glyph glyph-name="aogonek" unicode="&#x105;" horiz-adv-x="283" 
d="M204 104q-5 -69 11 -71t30 14q37 37 61 169q1 9 9 11q4 1 6 -5v-6q-15 -100 -47.5 -154.5t-76.5 -61.5q-27 -5 -47 20t-21 64q-26 -80 -65 -84q-38 -5 -66 34q-30 40 -23 95q9 82 69 133q62 51 122 51q23 0 46 -12.5t25 -27.5q1 -13 -54 -18q-36 -1 -34 5q16 31 -6 31
q-62 0 -83 -149q-5 -33 -4 -57t8 -37t18 -10q25 6 44 100l11 55q4 28 8 35q5 15 77 15q6 0 10.5 -3t1.5 -8q-23 -32 -30 -128zM100 -71q2 26 32 51q31 25 66 34q7 1 10 -1t1 -5.5t-9 -5.5q-16 -4 -33 -39q-7 -15 0 -24t22 0q15 6 15 1q-2 -12 -25 -32q-25 -20 -53 -13
q-27 7 -26 34z" />
    <glyph glyph-name="Cacute" unicode="&#x106;" horiz-adv-x="387" 
d="M441 216q-14 -98 -61 -156.5t-111 -73.5q-118 -26 -189 47q-70 73 -54 225q19 176 124 290q103 112 206 92q85 -16 70 -130q-7 -50 -30 -92.5t-58 -65.5q-27 -16 -61 -14q-30 1 -60 13q-26 12 -20 21l5 1q18 2 37 10q103 35 126 135q20 93 -30 101q-67 10 -131 -88
q-62 -98 -80 -260q-15 -134 28 -205q44 -71 127 -53q51 12 92 65t56 138q2 11 9 11t5 -11zM364 791q8 12 23 -14q19 -37 9 -58q-2 -4 -4 -5q-25 -22 -132 -55q-17 -3 -17 4q34 17 59 44t62 84z" />
    <glyph glyph-name="cacute" unicode="&#x107;" horiz-adv-x="224" 
d="M261 216q-13 -100 -65 -156q-51 -54 -106 -60q-48 -5 -84 34t-30 95q10 82 69 133t119 51q33 0 34 -11q2 -9 1 -13q0 -3 -2 -12t-5 -20t-4 -17q-6 -30 -6 -46l1 -2q0 -5 -26 -10q-64 -10 -70 -2q6 12 17.5 28.5t20 28t16.5 25t7.5 19t-7.5 10.5q-12 4 -27.5 -12
t-32.5 -52q-15 -34 -23 -85q-7 -46 7 -85q14 -37 43 -32q34 4 79 52q43 46 60 139q2 11 8.5 11t5.5 -11zM176 454q8 12 23 -14q19 -37 9 -58q-2 -4 -4 -5q-25 -22 -132 -55q-17 -3 -17 4q34 17 59 44t62 84z" />
    <glyph glyph-name="Ccircumflex" unicode="&#x108;" horiz-adv-x="387" 
d="M441 216q-14 -98 -61 -156.5t-111 -73.5q-118 -26 -189 47q-70 73 -54 225q19 176 124 290q103 112 206 92q85 -16 70 -130q-7 -50 -30 -92.5t-58 -65.5q-27 -16 -61 -14q-30 1 -60 13q-26 12 -20 21l5 1q18 2 37 10q103 35 126 135q20 93 -30 101q-67 10 -131 -88
q-62 -98 -80 -260q-15 -134 28 -205q44 -71 127 -53q51 12 92 65t56 138q2 11 9 11t5 -11zM201 687l59 20q53 20 81 49h2h1q33 -39 83 -75q9 -7 -18 -19q-40 -17 -51 -4q-15 21 -20 79q-34 -50 -73 -78q-17 -11 -53 10q-24 14 -11 18z" />
    <glyph glyph-name="ccircumflex" unicode="&#x109;" horiz-adv-x="224" 
d="M261 216q-13 -100 -65 -156q-51 -54 -106 -60q-48 -5 -84 34t-30 95q10 82 69 133t119 51q33 0 34 -11q2 -9 1 -13q0 -3 -2 -12t-5 -20t-4 -17q-6 -30 -6 -46l1 -2q0 -5 -26 -10q-64 -10 -70 -2q6 12 17.5 28.5t20 28t16.5 25t7.5 19t-7.5 10.5q-12 4 -27.5 -12
t-32.5 -52q-15 -34 -23 -85q-7 -46 7 -85q14 -37 43 -32q34 4 79 52q43 46 60 139q2 11 8.5 11t5.5 -11zM14 358l59 20q53 20 81 49h2h1q33 -39 83 -75q9 -7 -18 -19q-40 -17 -51 -4q-15 21 -20 79q-34 -50 -73 -78q-17 -11 -53 10q-24 14 -11 18z" />
    <glyph glyph-name="Cdotaccent" unicode="&#x10a;" horiz-adv-x="387" 
d="M441 216q-14 -98 -61 -156.5t-111 -73.5q-118 -26 -189 47q-70 73 -54 225q19 176 124 290q103 112 206 92q85 -16 70 -130q-7 -50 -30 -92.5t-58 -65.5q-27 -16 -61 -14q-30 1 -60 13q-26 12 -20 21l5 1q18 2 37 10q103 35 126 135q20 93 -30 101q-67 10 -131 -88
q-62 -98 -80 -260q-15 -134 28 -205q44 -71 127 -53q51 12 92 65t56 138q2 11 9 11t5 -11zM296 663q-29 8 -21 55q11 62 80 56q25 -2 33 -20t-6 -44q-16 -26 -42.5 -38.5t-43.5 -8.5z" />
    <glyph glyph-name="cdotaccent" unicode="&#x10b;" horiz-adv-x="224" 
d="M261 216q-13 -100 -65 -156q-51 -54 -106 -60q-48 -5 -84 34t-30 95q10 82 69 133t119 51q33 0 34 -11q2 -9 1 -13q0 -3 -2 -12t-5 -20t-4 -17q-6 -30 -6 -46l1 -2q0 -5 -26 -10q-64 -10 -70 -2q6 12 17.5 28.5t20 28t16.5 25t7.5 19t-7.5 10.5q-12 4 -27.5 -12
t-32.5 -52q-15 -34 -23 -85q-7 -46 7 -85q14 -37 43 -32q34 4 79 52q43 46 60 139q2 11 8.5 11t5.5 -11zM118 333q-29 8 -21 55q11 62 80 56q25 -2 33 -20t-6 -44q-16 -26 -42.5 -38.5t-43.5 -8.5z" />
    <glyph glyph-name="Ccaron" unicode="&#x10c;" horiz-adv-x="405" 
d="M441 216q-14 -98 -61 -156.5t-111 -73.5q-118 -26 -189 47q-70 73 -54 225q19 176 124 290q103 112 206 92q85 -16 70 -130q-7 -50 -30 -92.5t-58 -65.5q-27 -16 -61 -14q-30 1 -60 13q-26 12 -20 21l5 1q18 2 37 10q103 35 126 135q20 93 -30 101q-67 10 -131 -88
q-62 -98 -80 -260q-15 -134 28 -205q44 -71 127 -53q51 12 92 65t56 138q2 11 9 11t5 -11zM455 727q-107 -36 -141 -69l-1 -1q-1 0 -1 1q-33 39 -83 75q-9 7 18 19q40 17 51 4q15 -24 20 -80q34 50 73 78q17 11 53 -9q24 -14 11 -18z" />
    <glyph glyph-name="ccaron" unicode="&#x10d;" horiz-adv-x="227" 
d="M261 216q-13 -100 -65 -156q-51 -54 -106 -60q-48 -5 -84 34t-30 95q10 82 69 133t119 51q33 0 34 -11q2 -9 1 -13q0 -3 -2 -12t-5 -20t-4 -17q-6 -30 -6 -46l1 -2q0 -5 -26 -10q-64 -10 -70 -2q6 12 17.5 28.5t20 28t16.5 25t7.5 19t-7.5 10.5q-12 4 -27.5 -12
t-32.5 -52q-15 -34 -23 -85q-7 -46 7 -85q14 -37 43 -32q34 4 79 52q43 46 60 139q2 11 8.5 11t5.5 -11zM260 398q-106 -36 -141 -69l-1 -1q-1 0 -1 1q-33 39 -83 75q-9 7 18 19q40 17 51 4q15 -24 20 -80q34 50 73 78q17 11 53 -9q24 -14 11 -18z" />
    <glyph glyph-name="Dcaron" unicode="&#x10e;" horiz-adv-x="572" 
d="M93 387q15 108 85 173q71 68 151 81q135 23 208 -62q75 -84 51 -240q-26 -164 -152 -265q-125 -100 -264 -80q-85 12 -124 69q-39 59 -23 125q17 68 78 111q36 24 61 31q21 6 16 -21q-5 -29 -14 -38q-34 -10 -55 -23q-53 -31 -63 -85t29 -98.5t111 -49.5q108 -10 193 72
q87 84 115 241q27 146 -21 226q-48 82 -164 62q-54 -7 -114 -63q-65 -63 -84 -166q-1 -12 -13 -10q-8 2 -7 10zM182 133q7 105 27 236q20 133 43 211q6 15 83 15q6 0 10.5 -3.5t2.5 -8.5q-57 -136 -95 -435q-13 -99 -46 -112q-21 -9 -25 13q-4 23 0 84zM519 741
q-107 -36 -141 -69l-1 -1q-1 0 -1 1q-33 39 -83 75q-9 7 18 19q40 17 51 4q15 -24 20 -80q34 50 73 78q17 11 53 -9q24 -14 11 -18z" />
    <glyph glyph-name="dcaron" unicode="&#x10f;" horiz-adv-x="292" 
d="M346 740q-118 -308 -138 -636q-5 -70 11 -71q15 -4 31 13t32.5 61t28.5 109q2 11 9 11t5 -11q-15 -99 -47.5 -154t-75.5 -62q-28 -4 -48.5 21t-20.5 63q-26 -80 -65 -84q-36 -4 -66 33q-28 39 -24 96q9 83 57 135q48 55 104 50q8 -2 13 -5q31 229 99 427q5 15 83 15
q6 0 10 -3t2 -8zM79 38h7q14 3 24.5 35t26.5 107q0 9 3 15l2 23q-2 2 0 5q0 5 1.5 20t1.5 19q0 27 -17 29q-26 3 -40.5 -33.5t-23.5 -115.5q-12 -97 15 -104zM320 590q-2 16 25 8q32 -8 40 -31q2 -8 1 -13q-8 -43 -83 -124q-13 -12 -16 -5q42 66 33 165z" />
    <glyph glyph-name="Dcroat" unicode="&#x110;" horiz-adv-x="572" 
d="M93 387q15 108 85 173q71 68 151 81q135 23 208 -62q75 -84 51 -240q-26 -164 -152 -265q-125 -100 -264 -80q-85 12 -124 69q-39 59 -23 125q17 68 78 111q36 24 61 31q21 6 16 -21q-5 -29 -14 -38q-34 -10 -55 -23q-53 -31 -63 -85t29 -98.5t111 -49.5q108 -10 193 72
q87 84 115 241q27 146 -21 226q-48 82 -164 62q-54 -7 -114 -63q-65 -63 -84 -166q-1 -12 -13 -10q-8 2 -7 10zM211 378l-10 1q-31 8 -33 11q0 1 7 4q3 1 29 7l10 1q17 102 38 178q6 15 83 15q6 0 10.5 -3.5t2.5 -8.5q-31 -73 -51 -167l50 6q15 1 19 -2.5t2 -15.5
q-8 -48 -23 -48q-6 -1 -59 8q-15 -80 -33 -216q-13 -99 -46 -112q-21 -9 -25 13q-4 23 0 84q9 113 29 245z" />
    <glyph glyph-name="dslash" unicode="&#x111;" horiz-adv-x="292" 
d="M346 740q-118 -308 -138 -636q-5 -70 11 -71q15 -4 31 13t32.5 61t28.5 109q2 11 9 11t5 -11q-15 -99 -47.5 -154t-75.5 -62q-28 -4 -48.5 21t-20.5 63q-26 -80 -65 -84q-36 -4 -66 33q-28 39 -24 96q9 83 57 135q48 55 104 50q8 -2 13 -5q31 229 99 427q5 15 83 15
q6 0 10 -3t2 -8zM79 38h7q14 3 24.5 35t26.5 107q0 9 3 15l2 23q-2 2 0 5q0 5 1.5 20t1.5 19q0 27 -17 29q-26 3 -40.5 -33.5t-23.5 -115.5q-12 -97 15 -104zM178 550q-14 3 -21.5 5t-10.5 3.5t1 3.5t11.5 4t22.5 5q118 19 143 22q15 0 19 -3t2 -15q-8 -47 -23 -49
q-14 -2 -144 24z" />
    <glyph glyph-name="Emacron" unicode="&#x112;" horiz-adv-x="408" 
d="M363 640q39 -9 63.5 -40.5t16.5 -68.5q-15 -71 -72 -111q-26 -15 -57 -8q-32 8 -57 24q-25 17 -20 27l22 3q46 5 82.5 26.5t45.5 48.5t-1.5 50t-41.5 28q-52 9 -94.5 -25t-57.5 -102q-11 -48 -1.5 -88.5t35.5 -61.5q39 6 77 3q30 -1 28 -16q-1 -17 -36 -21h-4
q-31 -4 -66 2q-96 -33 -111 -149q-14 -85 36 -129q49 -42 141 -19q52 14 93 66t56 137q1 9 9 11q4 1 6 -5v-6q-13 -101 -64 -159q-50 -56 -109 -71q-122 -29 -200 19.5t-63 145.5q11 64 52 109t103 67q-46 24 -66.5 64.5t-9.5 87.5q21 91 106 137t159 24zM242 692
q-14 3 -21.5 5t-10.5 3.5t1 3.5t11.5 4t22.5 5q118 19 143 22q15 0 19 -3t2 -15q-8 -47 -23 -49q-14 -2 -144 24z" />
    <glyph glyph-name="emacron" unicode="&#x113;" horiz-adv-x="256" 
d="M286 216q-13 -99 -69 -155q-53 -55 -111 -61q-50 -6 -95 34q-44 41 -38 95q11 81 75 130t128 54q31 2 47.5 -15t7.5 -46q-21 -66 -171 -159q7 -33 25 -52.5t39 -15.5q32 5 77 44q53 48 71 147q2 11 9 11t5 -11zM58 142q-3 -12 -1 -32q24 19 43 42.5t28.5 44.5t14 39
t2.5 30t-10 15q-24 7 -45.5 -31t-31.5 -108zM58 363q-14 3 -21.5 5t-10.5 3.5t1 3.5t11.5 4t22.5 5q118 19 143 22q15 0 19 -3t2 -15q-8 -47 -23 -49q-14 -1 -144 24z" />
    <glyph glyph-name="Ebreve" unicode="&#x114;" horiz-adv-x="408" 
d="M363 640q39 -9 63.5 -40.5t16.5 -68.5q-15 -71 -72 -111q-26 -15 -57 -8q-32 8 -57 24q-25 17 -20 27l22 3q46 5 82.5 26.5t45.5 48.5t-1.5 50t-41.5 28q-52 9 -94.5 -25t-57.5 -102q-11 -48 -1.5 -88.5t35.5 -61.5q39 6 77 3q30 -1 28 -16q-1 -17 -36 -21h-4
q-31 -4 -66 2q-96 -33 -111 -149q-14 -85 36 -129q49 -42 141 -19q52 14 93 66t56 137q1 9 9 11q4 1 6 -5v-6q-13 -101 -64 -159q-50 -56 -109 -71q-122 -29 -200 19.5t-63 145.5q11 64 52 109t103 67q-46 24 -66.5 64.5t-9.5 87.5q21 91 106 137t159 24zM379 755q3 7 9 6.5
t1 -14.5q-13 -35 -42 -64q-28 -27 -53 -21q-29 6 -27 41q1 35 27 52q10 7 12 5q0 -3 -8 -14q-11 -13 -3 -20t28 -4q42 7 56 33z" />
    <glyph glyph-name="ebreve" unicode="&#x115;" horiz-adv-x="256" 
d="M286 216q-13 -99 -69 -155q-53 -55 -111 -61q-50 -6 -95 34q-44 41 -38 95q11 81 75 130t128 54q31 2 47.5 -15t7.5 -46q-21 -66 -171 -159q7 -33 25 -52.5t39 -15.5q32 5 77 44q53 48 71 147q2 11 9 11t5 -11zM58 142q-3 -12 -1 -32q24 19 43 42.5t28.5 44.5t14 39
t2.5 30t-10 15q-24 7 -45.5 -31t-31.5 -108zM186 416q3 7 9 6.5t1 -14.5q-13 -35 -42 -64q-28 -27 -53 -21q-29 6 -27 41q1 35 27 52q10 7 12 5q2 -4 -8 -14q-11 -13 -3 -20t28 -4q42 7 56 33z" />
    <glyph glyph-name="Edotaccent" unicode="&#x116;" horiz-adv-x="408" 
d="M363 640q39 -9 63.5 -40.5t16.5 -68.5q-15 -71 -72 -111q-26 -15 -57 -8q-32 8 -57 24q-25 17 -20 27l22 3q46 5 82.5 26.5t45.5 48.5t-1.5 50t-41.5 28q-52 9 -94.5 -25t-57.5 -102q-11 -48 -1.5 -88.5t35.5 -61.5q39 6 77 3q30 -1 28 -16q-1 -17 -36 -21h-4
q-31 -4 -66 2q-96 -33 -111 -149q-14 -85 36 -129q49 -42 141 -19q52 14 93 66t56 137q1 9 9 11q4 1 6 -5v-6q-13 -101 -64 -159q-50 -56 -109 -71q-122 -29 -200 19.5t-63 145.5q11 64 52 109t103 67q-46 24 -66.5 64.5t-9.5 87.5q21 91 106 137t159 24zM283 671
q-29 8 -21 55q11 62 80 56q25 -2 33 -20t-6 -44q-16 -26 -42.5 -38.5t-43.5 -8.5z" />
    <glyph glyph-name="edotaccent" unicode="&#x117;" horiz-adv-x="256" 
d="M286 216q-13 -99 -69 -155q-53 -55 -111 -61q-50 -6 -95 34q-44 41 -38 95q11 81 75 130t128 54q31 2 47.5 -15t7.5 -46q-21 -66 -171 -159q7 -33 25 -52.5t39 -15.5q32 5 77 44q53 48 71 147q2 11 9 11t5 -11zM58 142q-3 -12 -1 -32q24 19 43 42.5t28.5 44.5t14 39
t2.5 30t-10 15q-24 7 -45.5 -31t-31.5 -108zM89 333q-29 8 -21 55q11 62 80 56q25 -2 33 -20t-6 -44q-16 -26 -42.5 -38.5t-43.5 -8.5z" />
    <glyph glyph-name="Eogonek" unicode="&#x118;" horiz-adv-x="408" 
d="M363 640q39 -9 63.5 -40.5t16.5 -68.5q-15 -71 -72 -111q-26 -15 -57 -8q-32 8 -57 24q-25 17 -20 27l22 3q46 5 82.5 26.5t45.5 48.5t-1.5 50t-41.5 28q-52 9 -94.5 -25t-57.5 -102q-11 -48 -1.5 -88.5t35.5 -61.5q39 6 77 3q30 -1 28 -16q-1 -17 -36 -21h-4
q-31 -4 -66 2q-96 -33 -111 -149q-14 -85 36 -129q49 -42 141 -19q52 14 93 66t56 137q1 9 9 11q4 1 6 -5v-6q-13 -101 -64 -159q-50 -56 -109 -71q-122 -29 -200 19.5t-63 145.5q11 64 52 109t103 67q-46 24 -66.5 64.5t-9.5 87.5q21 91 106 137t159 24zM143 -90
q2 26 32 51q31 25 66 34q7 1 10 -1t1 -5.5t-9 -5.5q-17 -5 -33 -39q-7 -15 0 -24t22 0q15 6 15 1q-2 -12 -25 -32q-25 -20 -53 -13q-27 7 -26 34z" />
    <glyph glyph-name="eogonek" unicode="&#x119;" horiz-adv-x="256" 
d="M286 216q-13 -99 -69 -155q-53 -55 -111 -61q-50 -6 -95 34q-44 41 -38 95q11 81 75 130t128 54q31 2 47.5 -15t7.5 -46q-21 -66 -171 -159q7 -33 25 -52.5t39 -15.5q32 5 77 44q53 48 71 147q2 11 9 11t5 -11zM58 142q-3 -12 -1 -32q24 19 43 42.5t28.5 44.5t14 39
t2.5 30t-10 15q-24 7 -45.5 -31t-31.5 -108zM13 -71q2 26 32 51q31 25 66 34q7 1 10 -1t1 -5.5t-9 -5.5q-17 -4 -33 -39q-7 -15 0 -24t22 0q15 6 15 1q0 -11 -25 -32q-25 -20 -53 -13q-27 7 -26 34z" />
    <glyph glyph-name="Ecaron" unicode="&#x11a;" horiz-adv-x="408" 
d="M363 640q39 -9 63.5 -40.5t16.5 -68.5q-15 -71 -72 -111q-26 -15 -57 -8q-32 8 -57 24q-25 17 -20 27l22 3q46 5 82.5 26.5t45.5 48.5t-1.5 50t-41.5 28q-52 9 -94.5 -25t-57.5 -102q-11 -48 -1.5 -88.5t35.5 -61.5q39 6 77 3q30 -1 28 -16q-1 -17 -36 -21h-4
q-31 -4 -66 2q-96 -33 -111 -149q-14 -85 36 -129q49 -42 141 -19q52 14 93 66t56 137q1 9 9 11q4 1 6 -5v-6q-13 -101 -64 -159q-50 -56 -109 -71q-122 -29 -200 19.5t-63 145.5q11 64 52 109t103 67q-46 24 -66.5 64.5t-9.5 87.5q21 91 106 137t159 24zM433 732
q-107 -36 -141 -69l-1 -1q-1 0 -1 1q-33 39 -83 75q-9 7 18 19q40 17 51 4q15 -24 20 -80q34 50 73 78q17 11 53 -9q24 -14 11 -18z" />
    <glyph glyph-name="ecaron" unicode="&#x11b;" horiz-adv-x="256" 
d="M286 216q-13 -99 -69 -155q-53 -55 -111 -61q-50 -6 -95 34q-44 41 -38 95q11 81 75 130t128 54q31 2 47.5 -15t7.5 -46q-21 -66 -171 -159q7 -33 25 -52.5t39 -15.5q32 5 77 44q53 48 71 147q2 11 9 11t5 -11zM58 142q-3 -12 -1 -32q24 19 43 42.5t28.5 44.5t14 39
t2.5 30t-10 15q-24 7 -45.5 -31t-31.5 -108zM257 404q-107 -36 -141 -69l-1 -1q-1 0 -1 1q-33 39 -83 75q-9 7 18 19q40 17 51 4q15 -24 20 -80q34 50 73 78q17 11 53 -9q24 -14 11 -18z" />
    <glyph glyph-name="Gcircumflex" unicode="&#x11c;" horiz-adv-x="422" 
d="M271 -110l22 166l2 17q-35 -77 -95 -86q-92 -17 -140 56q-47 73 -25 216q12 81 49.5 157.5t87.5 128.5q49 52 104 78t102 17q33 -6 54 -41t17 -82q-6 -51 -33 -105q-25 -54 -62 -78q-28 -15 -60 -10q-33 6 -57 22q-24 17 -18 26h3q11 3 21 4q123 26 146 131q10 45 1 76.5
t-33 35.5q-68 9 -134 -89q-64 -97 -90 -260q-21 -138 -1 -202t80 -55q37 6 59 44.5t37 114.5q9 56 15 80q4 16 77 16q7 0 11 -3t2 -8q-16 -35 -40 -182q-18 -103 -32 -163q22 6 71 12q9 1 11 -5q0 -9 -12 -10q-39 -5 -74 -16q-81 -354 -193 -369q-45 -6 -68 41t-12 106
q14 74 68 130t139 89zM168 -414q54 3 98 275q-98 -60 -120 -171q-9 -47 -2.5 -76t24.5 -28zM221 697l59 20q53 20 81 49h2h1q33 -39 83 -75q9 -7 -18 -19q-40 -17 -51 -4q-15 21 -20 79q-34 -50 -73 -78q-17 -11 -53 10q-24 14 -11 18z" />
    <glyph glyph-name="gcircumflex" unicode="&#x11d;" horiz-adv-x="270" 
d="M159 308q19 -4 22 -22q29 35 71 35q17 -1 6 -12q-19 -24 -34 -130q-26 -157 -43 -236q34 9 76 14q7 0 9.5 -3.5t0 -7t-9.5 -4.5q-42 -6 -80 -18q-39 -178 -83 -263t-99 -93q-37 -4 -67 38t-19 98q13 68 68 125t138 91q0 7 7 59l12 86q-21 -60 -59 -65q-37 -4 -67 33
q-29 40 -22 96q10 90 66 140t107 39zM13 -381q54 3 97 274q-97 -59 -119 -170q-6 -32 -5 -55.5t8 -36.5t19 -12zM93 38q26 6 59 172l4 22v2q16 59 -10 60q-23 2 -44 -40.5t-31 -111.5q-5 -33 -4 -57t8 -37t18 -10zM29 364l59 20q53 20 81 49h2h1q33 -39 83 -75q9 -7 -18 -19
q-40 -17 -51 -4q-15 21 -20 79q-34 -50 -73 -78q-17 -11 -53 10q-24 14 -11 18z" />
    <glyph glyph-name="Gbreve" unicode="&#x11e;" horiz-adv-x="422" 
d="M271 -110l22 166l2 17q-35 -77 -95 -86q-92 -17 -140 56q-47 73 -25 216q12 81 49.5 157.5t87.5 128.5q49 52 104 78t102 17q33 -6 54 -41t17 -82q-6 -51 -33 -105q-25 -54 -62 -78q-28 -15 -60 -10q-33 6 -57 22q-24 17 -18 26h3q11 3 21 4q123 26 146 131q10 45 1 76.5
t-33 35.5q-68 9 -134 -89q-64 -97 -90 -260q-21 -138 -1 -202t80 -55q37 6 59 44.5t37 114.5q9 56 15 80q4 16 77 16q7 0 11 -3t2 -8q-16 -35 -40 -182q-18 -103 -32 -163q22 6 71 12q9 1 11 -5q0 -9 -12 -10q-39 -5 -74 -16q-81 -354 -193 -369q-45 -6 -68 41t-12 106
q14 74 68 130t139 89zM168 -414q54 3 98 275q-98 -60 -120 -171q-9 -47 -2.5 -76t24.5 -28zM408 753q3 7 9 6.5t1 -14.5q-13 -35 -42 -64q-28 -27 -53 -21q-29 6 -27 41q1 35 27 52q10 7 12 5q0 -3 -8 -14q-11 -13 -3 -20t28 -4q42 7 56 33z" />
    <glyph glyph-name="gbreve" unicode="&#x11f;" horiz-adv-x="270" 
d="M159 308q19 -4 22 -22q29 35 71 35q17 -1 6 -12q-19 -24 -34 -130q-26 -157 -43 -236q34 9 76 14q7 0 9.5 -3.5t0 -7t-9.5 -4.5q-42 -6 -80 -18q-39 -178 -83 -263t-99 -93q-37 -4 -67 38t-19 98q13 68 68 125t138 91q0 7 7 59l12 86q-21 -60 -59 -65q-37 -4 -67 33
q-29 40 -22 96q10 90 66 140t107 39zM13 -381q54 3 97 274q-97 -59 -119 -170q-6 -32 -5 -55.5t8 -36.5t19 -12zM93 38q26 6 59 172l4 22v2q16 59 -10 60q-23 2 -44 -40.5t-31 -111.5q-5 -33 -4 -57t8 -37t18 -10zM210 410q3 7 9 6.5t1 -14.5q-13 -35 -42 -64
q-28 -27 -53 -21q-29 6 -27 41q1 35 27 52q10 7 12 5q2 -4 -8 -14q-11 -13 -3 -20t28 -4q42 7 56 33z" />
    <glyph glyph-name="Gdotaccent" unicode="&#x120;" horiz-adv-x="422" 
d="M271 -110l22 166l2 17q-35 -77 -95 -86q-92 -17 -140 56q-47 73 -25 216q12 81 49.5 157.5t87.5 128.5q49 52 104 78t102 17q33 -6 54 -41t17 -82q-6 -51 -33 -105q-25 -54 -62 -78q-28 -15 -60 -10q-33 6 -57 22q-24 17 -18 26h3q11 3 21 4q123 26 146 131q10 45 1 76.5
t-33 35.5q-68 9 -134 -89q-64 -97 -90 -260q-21 -138 -1 -202t80 -55q37 6 59 44.5t37 114.5q9 56 15 80q4 16 77 16q7 0 11 -3t2 -8q-16 -35 -40 -182q-18 -103 -32 -163q22 6 71 12q9 1 11 -5q0 -9 -12 -10q-39 -5 -74 -16q-81 -354 -193 -369q-45 -6 -68 41t-12 106
q14 74 68 130t139 89zM168 -414q54 3 98 275q-98 -60 -120 -171q-9 -47 -2.5 -76t24.5 -28zM308 671q-29 8 -21 55q11 62 80 56q25 -2 33 -20t-6 -44q-16 -26 -42.5 -38.5t-43.5 -8.5z" />
    <glyph glyph-name="gdotaccent" unicode="&#x121;" horiz-adv-x="270" 
d="M159 308q19 -4 22 -22q29 35 71 35q17 -1 6 -12q-19 -24 -34 -130q-26 -157 -43 -236q34 9 76 14q7 0 9.5 -3.5t0 -7t-9.5 -4.5q-42 -6 -80 -18q-39 -178 -83 -263t-99 -93q-37 -4 -67 38t-19 98q13 68 68 125t138 91q0 7 7 59l12 86q-21 -60 -59 -65q-37 -4 -67 33
q-29 40 -22 96q10 90 66 140t107 39zM13 -381q54 3 97 274q-97 -59 -119 -170q-6 -32 -5 -55.5t8 -36.5t19 -12zM93 38q26 6 59 172l4 22v2q16 59 -10 60q-23 2 -44 -40.5t-31 -111.5q-5 -33 -4 -57t8 -37t18 -10zM114 333q-29 8 -21 55q11 62 80 56q25 -2 33 -20t-6 -44
q-16 -26 -42.5 -38.5t-43.5 -8.5z" />
    <glyph glyph-name="Gcommaaccent" unicode="&#x122;" horiz-adv-x="422" 
d="M271 -110l22 166l2 17q-35 -77 -95 -86q-92 -17 -140 56q-47 73 -25 216q12 81 49.5 157.5t87.5 128.5q49 52 104 78t102 17q33 -6 54 -41t17 -82q-6 -51 -33 -105q-25 -54 -62 -78q-28 -15 -60 -10q-33 6 -57 22q-24 17 -18 26h3q11 3 21 4q123 26 146 131q10 45 1 76.5
t-33 35.5q-68 9 -134 -89q-64 -97 -90 -260q-21 -138 -1 -202t80 -55q37 6 59 44.5t37 114.5q9 56 15 80q4 16 77 16q7 0 11 -3t2 -8q-16 -35 -40 -182q-18 -103 -32 -163q22 6 71 12q9 1 11 -5q0 -9 -12 -10q-39 -5 -74 -16q-81 -354 -193 -369q-45 -6 -68 41t-12 106
q14 74 68 130t139 89zM168 -414q54 3 98 275q-98 -60 -120 -171q-9 -47 -2.5 -76t24.5 -28zM182 -580q-21 -51 -94 -67q-10 -3 -12 3q-2 5 8 8q1 1 2 1q37 11 44 35q5 12 -5 20t-23.5 19t-15.5 27q-2 22 21 39q23 15 50 2q23 -10 30 -34.5t-5 -52.5z" />
    <glyph glyph-name="gcommaaccent" unicode="&#x123;" horiz-adv-x="270" 
d="M159 308q19 -4 22 -22q29 35 71 35q17 -1 6 -12q-19 -24 -34 -130q-26 -157 -43 -236q34 9 76 14q7 0 9.5 -3.5t0 -7t-9.5 -4.5q-42 -6 -80 -18q-39 -178 -83 -263t-99 -93q-37 -4 -67 38t-19 98q13 68 68 125t138 91q0 7 7 59l12 86q-21 -60 -59 -65q-37 -4 -67 33
q-29 40 -22 96q10 90 66 140t107 39zM13 -381q54 3 97 274q-97 -59 -119 -170q-6 -32 -5 -55.5t8 -36.5t19 -12zM93 38q26 6 59 172l4 22v2q16 59 -10 60q-23 2 -44 -40.5t-31 -111.5q-5 -33 -4 -57t8 -37t18 -10zM198 353q2 -16 -25 -8q-32 8 -40 31l-1 13q6 39 82 124
q14 14 17 6q-42 -66 -33 -166z" />
    <glyph glyph-name="Hcircumflex" unicode="&#x124;" horiz-adv-x="630" 
d="M542 104q3 -62 22 -66q13 -3 27 12t29.5 57.5t27.5 108.5q2 11 9 11t5 -11q-14 -102 -47.5 -158.5t-76.5 -58.5q-30 -2 -52 23t-25 66q-1 7 -1 43q-22 -3 -133 -13q-48 -105 -113 -138q-64 -34 -121 -16q-41 12 -64 53t-21 88q3 50 41 93.5t101 61.5q43 11 73 8
q27 -1 4 -41q-12 -19 -17 -19q-27 10 -66 0q-51 -12 -79.5 -45.5t-31 -69t17 -67.5t55.5 -43q107 -32 159 130q-6 0 -27.5 -1.5t-25.5 -1.5q-23 0 -19 19q13 43 24 48q41 0 65 -1q33 160 29 448q0 13 71 19l11 1q13 0 13 -11q0 -287 -57 -460l111 -7q9 238 84 457
q4 16 73 16q9 0 14.5 -3t4.5 -9q-89 -258 -95 -466q49 -7 49 -10q-5 -2 -49 -10q0 -30 1 -37zM358 696l59 20q53 20 81 49h2h1q33 -39 83 -75q9 -7 -18 -19q-40 -17 -51 -4q-15 21 -20 79q-34 -50 -73 -78q-17 -11 -53 10q-24 14 -11 18z" />
    <glyph glyph-name="hcircumflex" unicode="&#x125;" horiz-adv-x="294" 
d="M219 165l-3 -30q-11 -107 10 -108q14 -5 30.5 14t33.5 64.5t29 110.5q2 11 9 11t5 -11q-12 -99 -46 -157t-78 -65q-37 -7 -56 26t-14 95q1 26 8 77q6 48 0 50q-4 1 -11 -3q-43 -22 -75 -139q-4 -53 -18 -73t-41 -30q-15 -6 -16 4q-2 16 2 93q20 351 117 642q5 15 83 15
q6 0 10 -3t2 -8q-105 -274 -134 -571q28 71 63.5 110t70.5 35q23 -3 26 -30q3 -29 -7 -119zM95 378l59 20q53 20 81 49h2h1q33 -39 83 -75q9 -7 -18 -19q-40 -17 -51 -4q-15 21 -20 79q-34 -50 -73 -78q-17 -11 -53 10q-24 14 -11 18z" />
    <glyph glyph-name="Hbar" unicode="&#x126;" horiz-adv-x="630" 
d="M542 104q3 -62 22 -66q13 -3 27 12t29.5 57.5t27.5 108.5q2 11 9 11t5 -11q-14 -102 -47.5 -158.5t-76.5 -58.5q-30 -2 -52 23t-25 66q-1 7 -1 43q-22 -3 -133 -13q-48 -105 -113 -138q-64 -34 -121 -16q-41 12 -64 53t-21 88q3 50 41 93.5t101 61.5q43 11 73 8
q27 -1 4 -41q-12 -19 -17 -19q-27 10 -66 0q-51 -12 -79.5 -45.5t-31 -69t17 -67.5t55.5 -43q107 -32 159 130q-6 0 -27.5 -1.5t-25.5 -1.5q-23 0 -19 19q13 43 24 48q41 0 65 -1q33 160 29 448q0 13 71 19l11 1q13 0 13 -11q0 -197 -28 -341q79 13 93 14q23 171 73 317
q4 16 73 16q9 0 14.5 -3t4.5 -9q-89 -258 -95 -466q49 -7 49 -10q-5 -2 -49 -10q0 -30 1 -37zM349 173l111 -7l5 78q-4 0 -93 16q-8 -36 -23 -87z" />
    <glyph glyph-name="hbar" unicode="&#x127;" horiz-adv-x="294" 
d="M220 165l-3 -30q-11 -107 10 -108q14 -5 30.5 14t33.5 64.5t29 110.5q2 11 9 11t5 -11q-12 -99 -46 -157t-78 -65q-37 -7 -56 26t-14 95q1 26 8 77q6 48 0 50q-4 1 -11 -3q-43 -22 -75 -139q-4 -53 -18 -73t-41 -30q-15 -6 -16 4q-2 16 2 93q19 351 117 642q4 15 83 15
q6 0 10 -3t2 -8q-105 -274 -134 -571q28 71 63.5 110t70.5 35q23 -3 26 -30q3 -29 -7 -119zM19 451q-14 3 -21.5 5t-10.5 3.5t1 3.5t11.5 4t22.5 5q118 19 143 22q15 0 19 -3t2 -15q-8 -47 -23 -49q-13 -1 -144 24z" />
    <glyph glyph-name="Itilde" unicode="&#x128;" horiz-adv-x="373" 
d="M205 641q85 15 132 -53q46 -67 25 -223q-35 -247 -127 -339q-82 -82 -164 -63q-42 8 -57 55.5t9.5 99.5t83.5 72q42 13 73 12q27 -1 5 -41q-6 -11 -10 -16t-6 -4q-31 7 -67 -3q-54 -17 -67 -69q-14 -47 15 -73q15 -14 37 -15q62 -2 104 67q52 82 76 312q18 144 0 205
t-79 51q-35 -6 -57.5 -37.5t-26.5 -74.5t17.5 -90.5t64.5 -80.5q6 -4 5 -9.5t-6.5 -7t-12.5 0.5q-46 33 -69 85.5t-17 103.5t38 89t81 46zM141 710q13 13 36 8q3 0 6 -1l6 -2t4 -1l43 -14q53 -14 71 21q1 2 13 -7.5t18 -22t-5 -28.5q-12 -12 -36 -9q-9 1 -33 10
q-4 2 -19.5 8t-19.5 8q-38 14 -66 -22q-1 -2 -11 7.5t-14 21t7 23.5z" />
    <glyph glyph-name="itilde" unicode="&#x129;" horiz-adv-x="155" 
d="M73 104q-5 -62 17 -65q12 -4 26.5 11.5t30.5 58.5t28 107q2 11 8.5 11t5.5 -11q-14 -101 -49.5 -161t-79.5 -67q-31 -6 -46.5 22.5t-15.5 77.5q0 131 20 197q4 15 77 15q7 0 11 -3.5t1 -8.5q-24 -33 -34 -184zM-26 385q13 13 36 8q3 0 6 -1l6 -2t4 -1l43 -14
q53 -14 71 21q1 2 13 -7.5t18 -22t-5 -28.5q-12 -12 -36 -9q-10 1 -33 10q-4 2 -19.5 8t-19.5 8q-38 14 -66 -22q-1 -2 -11 7.5t-14 21t7 23.5z" />
    <glyph glyph-name="imacron" unicode="&#x12b;" horiz-adv-x="155" 
d="M75 104q-5 -62 17 -65q12 -4 26.5 11.5t30.5 58.5t28 107q2 11 8.5 11t5.5 -11q-14 -101 -49.5 -161t-79.5 -67q-31 -6 -46.5 22.5t-15.5 77.5q0 131 20 197q5 15 77 15q7 0 11 -3.5t1 -8.5q-24 -33 -34 -184zM6 369q-14 3 -21.5 5t-10.5 3.5t1 3.5t11.5 4t22.5 5
q118 19 143 22q15 0 19 -3t2 -15q-8 -47 -23 -49q-14 -1 -144 24z" />
    <glyph glyph-name="Ibreve" unicode="&#x12c;" horiz-adv-x="373" 
d="M205 641q85 15 132 -53q46 -67 25 -223q-35 -247 -127 -339q-82 -82 -164 -63q-42 8 -57 55.5t9.5 99.5t83.5 72q42 13 73 12q27 -1 5 -41q-6 -11 -10 -16t-6 -4q-31 7 -67 -3q-54 -17 -67 -69q-14 -47 15 -73q15 -14 37 -15q62 -2 104 67q52 82 76 312q18 144 0 205
t-79 51q-35 -6 -57.5 -37.5t-26.5 -74.5t17.5 -90.5t64.5 -80.5q6 -4 5 -9.5t-6.5 -7t-12.5 0.5q-46 33 -69 85.5t-17 103.5t38 89t81 46zM304 752q3 7 9 6.5t1 -14.5q-13 -35 -42 -64q-28 -27 -53 -21q-29 6 -27 41q1 35 27 52q10 7 12 5q0 -3 -8 -14q-11 -13 -3 -20t28 -4
q42 7 56 33z" />
    <glyph glyph-name="Iogonek" unicode="&#x12e;" horiz-adv-x="373" 
d="M205 641q85 15 132 -53q46 -67 25 -223q-35 -247 -127 -339q-82 -82 -164 -63q-42 8 -57 55.5t9.5 99.5t83.5 72q42 13 73 12q27 -1 5 -41q-6 -11 -10 -16t-6 -4q-31 7 -67 -3q-54 -17 -67 -69q-14 -47 15 -73q15 -14 37 -15q62 -2 104 67q52 82 76 312q18 144 0 205
t-79 51q-35 -6 -57.5 -37.5t-26.5 -74.5t17.5 -90.5t64.5 -80.5q6 -4 5 -9.5t-6.5 -7t-12.5 0.5q-46 33 -69 85.5t-17 103.5t38 89t81 46zM15 -110q2 26 32 51q31 25 66 34q7 1 10 -1t1 -5.5t-9 -5.5q-17 -5 -33 -39q-7 -15 0 -24t22 0q15 6 15 1q0 -11 -25 -32
q-25 -20 -53 -13q-27 7 -26 34z" />
    <glyph glyph-name="iogonek" unicode="&#x12f;" horiz-adv-x="155" 
d="M71 97q-5 -69 10 -70q15 -3 31 14.5t32.5 62.5t28.5 112q2 11 8.5 11t5.5 -11q-14 -101 -47 -158.5t-76 -63.5q-28 -4 -48 22t-20 66q0 137 20 203q5 15 77 15q7 0 11 -3.5t1 -8.5q-24 -33 -34 -191zM44 329q-12 2 -18.5 17t-2.5 38q11 62 79 56q25 -3 33.5 -20t-5.5 -44
q-17 -26 -43.5 -39.5t-42.5 -7.5zM-29 -71q2 26 32 51q31 25 66 34q7 1 10 -1t1 -5.5t-9 -5.5q-17 -4 -33 -39q-7 -15 0 -24t22 0q15 6 15 1q0 -11 -25 -32q-25 -20 -53 -13q-27 7 -26 34z" />
    <glyph glyph-name="Idot" unicode="&#x130;" horiz-adv-x="373" 
d="M205 641q85 15 132 -53q46 -67 25 -223q-35 -247 -127 -339q-82 -82 -164 -63q-42 8 -57 55.5t9.5 99.5t83.5 72q42 13 73 12q27 -1 5 -41q-6 -11 -10 -16t-6 -4q-31 7 -67 -3q-54 -17 -67 -69q-14 -47 15 -73q15 -14 37 -15q62 -2 104 67q52 82 76 312q18 144 0 205
t-79 51q-35 -6 -57.5 -37.5t-26.5 -74.5t17.5 -90.5t64.5 -80.5q6 -4 5 -9.5t-6.5 -7t-12.5 0.5q-46 33 -69 85.5t-17 103.5t38 89t81 46zM201 667q-29 8 -21 55q11 62 80 56q25 -2 33 -20t-6 -44q-16 -26 -42.5 -38.5t-43.5 -8.5z" />
    <glyph glyph-name="dotlessi" unicode="&#x131;" horiz-adv-x="155" 
d="M69 104q-5 -62 17 -65q12 -4 26.5 11.5t30.5 58.5t28 107q2 11 8.5 11t5.5 -11q-14 -101 -49.5 -161t-79.5 -67q-31 -6 -46.5 22.5t-15.5 77.5q0 131 20 197q5 15 77 15q7 0 11 -3.5t1 -8.5q-24 -33 -34 -184z" />
    <glyph glyph-name="Jcircumflex" unicode="&#x134;" horiz-adv-x="432" 
d="M97 -476q-47 -2 -66 42q-20 44 -8 105q28 145 230 215q41 192 69 474q15 151 -1 208q-17 58 -78 48q-35 -6 -57 -36.5t-25 -72.5q-2 -42 20.5 -89t64.5 -79q9 -7 3 -16t-16 -2q-65 47 -87 117q-23 71 8 130q31 60 106 73q97 16 138.5 -53t20.5 -223q-37 -267 -89 -457
q63 12 122 16q11 1 10.5 -6t-11.5 -8q-72 -7 -127 -23q-50 -178 -109 -269.5t-118 -93.5zM127 -414q61 9 120 272q-119 -59 -143 -168q-9 -47 -2 -77t25 -27zM165 687l59 20q53 20 81 49h2h1q33 -39 83 -75q9 -7 -18 -19q-40 -17 -51 -4q-15 21 -20 79q-34 -50 -73 -78
q-17 -11 -53 10q-24 14 -11 18z" />
    <glyph glyph-name="jcircumflex" unicode="&#x135;" horiz-adv-x="132" 
d="M-5 88q20 153 31 197q5 15 77 15q4 0 6.5 -0.5t5 -3t1.5 -6.5q-19 -45 -41 -183q-18 -103 -32 -163q42 9 71 13q7 0 10 -3.5t0 -7t-10 -4.5q-29 -3 -74 -16q-79 -347 -194 -364q-36 -4 -63 41q-28 44 -17 101q14 69 69 125.5t138 90.5q6 42 22 168zM-130 -381
q55 3 98 274q-97 -58 -120 -170q-6 -32 -5 -55.5t8 -36.5t19 -12zM-42 358l59 20q53 20 81 49h2h1q33 -39 83 -75q9 -7 -18 -19q-40 -17 -51 -4q-15 21 -20 79q-34 -50 -73 -78q-17 -11 -53 10q-24 14 -11 18z" />
    <glyph glyph-name="Kcommaaccent" unicode="&#x136;" horiz-adv-x="463" 
d="M45 73q8 69 13 156q-2 0 -20 2q-33 2 -31 16q0 15 36 26l18 4q5 163 -1 352q0 15 84 15q12 0 12 -11q-3 -177 -17 -358q9 -2 28 -10q71 29 114 128q44 101 57 230q1 16 82 16q10 0 15 -3t4 -9q-28 -139 -93 -235.5t-157 -136.5q45 -26 87 -77q14 -16 31.5 -39t28 -36
t22.5 -26.5t20.5 -19.5t15.5 -6q26 0 47 33t39 132q2 11 9 11t5 -11q-17 -112 -53 -177q-38 -67 -78 -68q-18 -1 -43.5 28.5t-51.5 74.5q-25 43 -61 87t-72 68q-11 -107 -20 -148q-16 -84 -71 -106q-8 -4 -10 5q-1 9 11 93zM259 -101q-21 -51 -94 -67q-11 -3 -12 3q-2 5 8 8
q1 1 2 1q37 11 44 35q5 12 -5 20t-23.5 19t-15.5 27q-1 23 21 39q23 15 50 2q23 -10 30 -34.5t-5 -52.5z" />
    <glyph glyph-name="kcommaaccent" unicode="&#x137;" horiz-adv-x="300" 
d="M-12 94q20 351 117 642q5 15 83 15q6 0 10 -3t2 -8q-108 -287 -133 -574q31 73 73 113t84 35q11 -2 18.5 -15.5t7 -35.5t-8 -47t-30.5 -52.5t-57 -48.5q3 -8 5 -12q25 -50 33 -62t22 -14q14 -5 33.5 14t39.5 65.5t32 109.5q2 11 9 11t5 -11q-14 -101 -54 -158t-83 -64
q-31 -5 -63 22.5t-49 73.5l-7 21q67 35 84 93q10 34 -5 42q-4 1 -8 0q-21 -8 -45 -48t-41 -97q-3 -35 -14 -59q-9 -20 -18.5 -28.5t-27.5 -16.5q-15 -6 -16 4q-2 16 2 93zM141 -97q-21 -51 -94 -67q-11 -3 -12 3q-2 5 8 8q1 1 2 1q37 11 44 35q5 12 -5 20t-23.5 19t-15.5 27
q-1 23 21 39q23 15 50 2q23 -10 30 -34.5t-5 -52.5z" />
    <glyph glyph-name="kgreenlandic" unicode="&#x138;" horiz-adv-x="300" 
d="M-12 94q14 214 29 257q5 15 83 15q6 0 10 -3t2 -8q-38 -104 -47 -193q31 76 73 116.5t86 35.5q11 -2 18.5 -15.5t7 -35.5t-8 -47t-30.5 -52.5t-57 -48.5q3 -8 5 -12q25 -50 33 -62t22 -14q14 -5 33.5 14t39.5 65.5t32 109.5q2 11 9 11t5 -11q-14 -101 -54 -158t-83 -64
q-31 -5 -63 22.5t-49 73.5l-7 21q67 35 84 93q10 34 -5 42q-4 1 -8 0q-21 -8 -45 -48t-41 -97q-3 -35 -14 -59q-9 -20 -18.5 -28.5t-27.5 -16.5q-15 -6 -16 4q-2 16 2 93z" />
    <glyph glyph-name="Lacute" unicode="&#x139;" horiz-adv-x="542" 
d="M401 -74q-23 1 -55 14q-34 14 -80 40q-54 28 -62 32q-65 -93 -147 -65q-35 11 -42.5 47t14.5 72t62 46q39 12 91 1q19 88 27 214q6 92 31.5 160.5t65.5 102.5q79 68 169 50q40 -9 65 -40.5t21 -76.5q-13 -125 -84 -171q-28 -14 -62 -10q-32 4 -60 20q-26 15 -20 24
q5 0 27 2q108 13 133 124q20 98 -41 107q-114 17 -153 -282q-18 -146 -56 -245q41 -17 77 -38q96 -53 121 -52q45 2 74 51.5t49 162.5q2 11 8.5 11t5.5 -11q-18 -133 -66 -215q-48 -83 -113 -75zM78 -29q43 -15 78 62q-49 19 -75 7q-28 -12 -30 -35.5t27 -33.5zM477 801
q8 12 23 -14q19 -37 9 -58q-2 -4 -4 -5q-25 -22 -132 -55q-17 -3 -17 4q34 17 59 44t62 84z" />
    <glyph glyph-name="lacute" unicode="&#x13a;" horiz-adv-x="139" 
d="M58 104q-3 -70 10 -71q15 -4 31 13t32.5 61t28.5 109q1 7 4.5 10t7 0t3.5 -10q-15 -100 -47.5 -154.5t-76.5 -61.5q-28 -4 -49 22q-20 28 -19 66q13 340 117 648q4 15 83 15q7 0 11 -3t2 -8q-49 -131 -84 -278q-33 -147 -42 -221q-9 -77 -12 -137zM199 895q8 12 23 -14
q19 -37 9 -58q-2 -4 -4 -5q-25 -22 -132 -55q-17 -3 -17 4q34 17 59 44t62 84z" />
    <glyph glyph-name="Lcommaaccent" unicode="&#x13b;" horiz-adv-x="542" 
d="M401 -74q-23 1 -55 14q-34 14 -80 40q-54 28 -62 32q-65 -93 -147 -65q-35 11 -42.5 47t14.5 72t62 46q39 12 91 1q19 88 27 214q6 92 31.5 160.5t65.5 102.5q79 68 169 50q40 -9 65 -40.5t21 -76.5q-13 -125 -84 -171q-28 -14 -62 -10q-32 4 -60 20q-26 15 -20 24
q5 0 27 2q108 13 133 124q20 98 -41 107q-114 17 -153 -282q-18 -146 -56 -245q41 -17 77 -38q96 -53 121 -52q45 2 74 51.5t49 162.5q2 11 8.5 11t5.5 -11q-18 -133 -66 -215q-48 -83 -113 -75zM78 -29q43 -15 78 62q-49 19 -75 7q-28 -12 -30 -35.5t27 -33.5zM339 -169
q-21 -51 -94 -67q-11 -3 -12 3q-2 5 8 8q1 1 2 1q37 11 44 35q5 12 -5 20t-23.5 19t-15.5 27q-1 23 21 39q23 15 50 2q23 -10 30 -34.5t-5 -52.5z" />
    <glyph glyph-name="lcommaaccent" unicode="&#x13c;" horiz-adv-x="139" 
d="M58 104q-3 -70 10 -71q15 -4 31 13t32.5 61t28.5 109q1 7 4.5 10t7 0t3.5 -10q-15 -100 -47.5 -154.5t-76.5 -61.5q-28 -4 -49 22q-20 28 -19 66q13 340 117 648q4 15 83 15q7 0 11 -3t2 -8q-49 -131 -84 -278q-33 -147 -42 -221q-9 -77 -12 -137zM108 -103
q-21 -51 -94 -67q-10 -3 -12 3q-2 5 8 8q1 1 2 1q37 11 44 35q5 12 -5 20t-23.5 19t-15.5 27q-2 23 21 39q23 15 50 2q23 -10 30 -34.5t-5 -52.5z" />
    <glyph glyph-name="Lcaron" unicode="&#x13d;" horiz-adv-x="618" 
d="M590 648q-2 16 25 8q32 -8 40 -31q2 -8 1 -13q-8 -43 -83 -124q-13 -12 -16 -5q42 66 33 165zM401 -74q-23 1 -55 14q-34 14 -80 40q-54 28 -62 32q-65 -93 -147 -65q-35 11 -42.5 47t14.5 72t62 46q39 12 91 1q19 88 27 214q6 92 31.5 160.5t65.5 102.5q79 68 169 50
q40 -9 65 -40.5t21 -76.5q-13 -125 -84 -171q-28 -14 -62 -10q-32 4 -60 20q-26 15 -20 24q5 0 27 2q108 13 133 124q20 98 -41 107q-114 17 -153 -282q-18 -146 -56 -245q41 -17 77 -38q96 -53 121 -52q45 2 74 51.5t49 162.5q2 11 8.5 11t5.5 -11q-18 -133 -66 -215
q-48 -83 -113 -75zM78 -29q43 -15 78 62q-49 19 -75 7q-28 -12 -30 -35.5t27 -33.5z" />
    <glyph glyph-name="lcaron" unicode="&#x13e;" horiz-adv-x="139" 
d="M58 104q-3 -70 10 -71q15 -4 31 13t32.5 61t28.5 109q1 7 4.5 10t7 0t3.5 -10q-15 -100 -47.5 -154.5t-76.5 -61.5q-28 -4 -49 22q-20 28 -19 66q13 340 117 648q4 15 83 15q7 0 11 -3t2 -8q-49 -131 -84 -278q-33 -147 -42 -221q-9 -77 -12 -137zM174 652q-2 16 25 8
q32 -8 40 -31q2 -8 1 -13q-8 -43 -83 -124q-13 -12 -16 -5q42 66 33 165z" />
    <glyph glyph-name="Ldot" unicode="&#x13f;" horiz-adv-x="542" 
d="M401 -74q-23 1 -55 14q-34 14 -80 40q-54 28 -62 32q-65 -93 -147 -65q-35 11 -42.5 47t14.5 72t62 46q39 12 91 1q19 88 27 214q6 92 31.5 160.5t65.5 102.5q79 68 169 50q40 -9 65 -40.5t21 -76.5q-13 -125 -84 -171q-28 -14 -62 -10q-32 4 -60 20q-26 15 -20 24
q5 0 27 2q108 13 133 124q20 98 -41 107q-114 17 -153 -282q-18 -146 -56 -245q41 -17 77 -38q96 -53 121 -52q45 2 74 51.5t49 162.5q2 11 8.5 11t5.5 -11q-18 -133 -66 -215q-48 -83 -113 -75zM78 -29q43 -15 78 62q-49 19 -75 7q-28 -12 -30 -35.5t27 -33.5zM323 169
q-28 7 -20 55q11 62 79 56q25 -2 33.5 -20t-5.5 -44q-17 -26 -43 -38.5t-44 -8.5z" />
    <glyph glyph-name="ldot" unicode="&#x140;" horiz-adv-x="139" 
d="M58 104q-3 -70 10 -71q15 -4 31 13t32.5 61t28.5 109q1 7 4.5 10t7 0t3.5 -10q-15 -100 -47.5 -154.5t-76.5 -61.5q-28 -4 -49 22q-20 28 -19 66q13 340 117 648q4 15 83 15q7 0 11 -3t2 -8q-49 -131 -84 -278q-33 -147 -42 -221q-9 -77 -12 -137zM115 291q-28 7 -20 55
q11 62 79 56q25 -2 33.5 -20t-5.5 -44q-17 -26 -43 -38.5t-44 -8.5z" />
    <glyph glyph-name="Lslash" unicode="&#x141;" horiz-adv-x="542" 
d="M198 172q-46 -25 -65 -35t-20 -8q0 2 1 5q4 9 81 63l167 117q4 3 15.5 2t12.5 -6q2 -5 0 -16.5t-7 -15.5q-5 -5 -185 -106zM401 -74q-23 1 -55 14q-34 14 -80 40q-54 28 -62 32q-65 -93 -147 -65q-35 11 -42.5 47t14.5 72t62 46q39 12 91 1q19 88 27 214q6 92 31.5 160.5
t65.5 102.5q79 68 169 50q40 -9 65 -40.5t21 -76.5q-13 -125 -84 -171q-28 -14 -62 -10q-32 4 -60 20q-26 15 -20 24q5 0 27 2q108 13 133 124q20 98 -41 107q-114 17 -153 -282q-18 -146 -56 -245q41 -17 77 -38q96 -53 121 -52q45 2 74 51.5t49 162.5q2 11 8.5 11t5.5 -11
q-18 -133 -66 -215q-48 -83 -113 -75zM78 -29q43 -15 78 62q-49 19 -75 7q-28 -12 -30 -35.5t27 -33.5z" />
    <glyph glyph-name="lslash" unicode="&#x142;" horiz-adv-x="139" 
d="M53 410q181 104 185 107q5 4 7 15.5t-1 16.5q-1 5 -12.5 6t-15.5 -2l-76 -54q-39 -29 -90 -64q-80 -55 -81 -63q-1 -2 -1 -4q0 -6 85 42zM57 104q-3 -70 10 -71q15 -4 31 13t32.5 61t28.5 109q1 7 4.5 10t7 0t3.5 -10q-15 -100 -47.5 -154.5t-76.5 -61.5q-28 -4 -49 22
q-20 28 -19 66q14 340 117 648q5 15 83 15q7 0 11 -3t2 -8q-49 -131 -84 -278q-33 -147 -42 -221q-9 -77 -12 -137z" />
    <glyph glyph-name="Nacute" unicode="&#x143;" horiz-adv-x="542" 
d="M480 202l-9 -67q-15 -105 10 -108q14 -5 32 14t36.5 65.5t30.5 109.5q0 7 4 10t7 0t3 -10q-13 -99 -55 -161q-40 -60 -82 -67q-39 -5 -55.5 28.5t-8.5 98.5q10 81 19 136l18 123q8 48 12 92q10 86 -13 97q-26 11 -57 -35q-52 -75 -153 -452q-6 -41 -16 -54
q-10 -15 -37 -25q-14 -6 -17 6q-1 13 3 91q3 45 20 249q22 267 -27 283q-14 5 -35 -7q-39 -22 -58 -81q-19 -58 -4 -138q15 -79 68 -141q5 -6 3 -12.5t-7.5 -7.5t-10.5 3q-60 63 -75 152q-15 88 14 161q28 71 88 94q44 16 74.5 -3.5t47.5 -90t-1 -208.5q-9 -73 -14 -134
q24 87 48 156.5t44 115t40 80t36 50.5t31.5 26t28 8t23.5 -5q36 -14 26 -147q-6 -88 -11 -131zM439 780q8 12 23 -14q19 -37 9 -58q-2 -4 -4 -5q-25 -22 -132 -55q-17 -3 -17 4q34 17 59 44t62 84z" />
    <glyph glyph-name="nacute" unicode="&#x144;" horiz-adv-x="293" 
d="M218 165l-3 -30q-11 -107 10 -108q14 -5 30.5 14t33.5 64.5t29 110.5q2 11 9 11t5 -11q-12 -99 -46 -157t-78 -65q-39 -7 -57 25.5t-13 95.5q1 26 8 77q6 48 0 50q-4 1 -11 -3q-43 -23 -75 -138q-4 -53 -19 -74q-14 -20 -40 -30q-15 -6 -16 4q-2 13 1 93q10 187 31 249
q6 16 84 16q17 0 12 -12q-34 -84 -46 -173q28 69 62.5 106.5t69.5 33.5q23 -3 26 -30q3 -29 -7 -119zM232 454q8 12 23 -14q19 -37 9 -58q-2 -4 -4 -5q-25 -22 -132 -55q-17 -3 -17 4q34 17 59 44t62 84z" />
    <glyph glyph-name="Ncommaaccent" unicode="&#x145;" horiz-adv-x="542" 
d="M480 202l-9 -67q-15 -105 10 -108q14 -5 32 14t36.5 65.5t30.5 109.5q0 7 4 10t7 0t3 -10q-13 -99 -55 -161q-40 -60 -82 -67q-39 -5 -55.5 28.5t-8.5 98.5q10 81 19 136l18 123q8 48 12 92q10 86 -13 97q-26 11 -57 -35q-52 -75 -153 -452q-6 -41 -16 -54
q-10 -15 -37 -25q-14 -6 -17 6q-1 13 3 91q3 45 20 249q22 267 -27 283q-14 5 -35 -7q-39 -22 -58 -81q-19 -58 -4 -138q15 -79 68 -141q5 -6 3 -12.5t-7.5 -7.5t-10.5 3q-60 63 -75 152q-15 88 14 161q28 71 88 94q44 16 74.5 -3.5t47.5 -90t-1 -208.5q-9 -73 -14 -134
q24 87 48 156.5t44 115t40 80t36 50.5t31.5 26t28 8t23.5 -5q36 -14 26 -147q-6 -88 -11 -131zM349 -89q-21 -51 -94 -67q-11 -3 -12 3q-2 5 8 8q1 1 2 1q37 11 44 35q5 12 -5 20t-23.5 19t-15.5 27q-1 23 21 39q23 15 50 2q23 -10 30 -34.5t-5 -52.5z" />
    <glyph glyph-name="ncommaaccent" unicode="&#x146;" horiz-adv-x="293" 
d="M218 165l-3 -30q-11 -107 10 -108q14 -5 30.5 14t33.5 64.5t29 110.5q2 11 9 11t5 -11q-12 -99 -46 -157t-78 -65q-39 -7 -57 25.5t-13 95.5q1 26 8 77q6 48 0 50q-4 1 -11 -3q-43 -23 -75 -138q-4 -53 -19 -74q-14 -20 -40 -30q-15 -6 -16 4q-2 13 1 93q10 187 31 249
q6 16 84 16q17 0 12 -12q-34 -84 -46 -173q28 69 62.5 106.5t69.5 33.5q23 -3 26 -30q3 -29 -7 -119zM137 -93q-21 -51 -94 -67q-11 -3 -12 3q-2 5 8 8q1 1 2 1q37 11 44 35q5 12 -5 20t-23.5 19t-15.5 27q-1 23 21 39q23 15 50 2q23 -10 30 -34.5t-5 -52.5z" />
    <glyph glyph-name="Ncaron" unicode="&#x147;" horiz-adv-x="542" 
d="M480 202l-9 -67q-15 -105 10 -108q14 -5 32 14t36.5 65.5t30.5 109.5q0 7 4 10t7 0t3 -10q-13 -99 -55 -161q-40 -60 -82 -67q-39 -5 -55.5 28.5t-8.5 98.5q10 81 19 136l18 123q8 48 12 92q10 86 -13 97q-26 11 -57 -35q-52 -75 -153 -452q-6 -41 -16 -54
q-10 -15 -37 -25q-14 -6 -17 6q-1 13 3 91q3 45 20 249q22 267 -27 283q-14 5 -35 -7q-39 -22 -58 -81q-19 -58 -4 -138q15 -79 68 -141q5 -6 3 -12.5t-7.5 -7.5t-10.5 3q-60 63 -75 152q-15 88 14 161q28 71 88 94q44 16 74.5 -3.5t47.5 -90t-1 -208.5q-9 -73 -14 -134
q24 87 48 156.5t44 115t40 80t36 50.5t31.5 26t28 8t23.5 -5q36 -14 26 -147q-6 -88 -11 -131zM510 725q-106 -36 -141 -69l-1 -1q-1 0 -1 1q-33 39 -83 75q-9 7 18 19q40 17 51 4q15 -24 20 -80q34 50 73 78q17 11 53 -9q24 -14 11 -18z" />
    <glyph glyph-name="ncaron" unicode="&#x148;" horiz-adv-x="293" 
d="M218 165l-3 -30q-11 -107 10 -108q14 -5 30.5 14t33.5 64.5t29 110.5q2 11 9 11t5 -11q-12 -99 -46 -157t-78 -65q-39 -7 -57 25.5t-13 95.5q1 26 8 77q6 48 0 50q-4 1 -11 -3q-43 -23 -75 -138q-4 -53 -19 -74q-14 -20 -40 -30q-15 -6 -16 4q-2 13 1 93q10 187 31 249
q6 16 84 16q17 0 12 -12q-34 -84 -46 -173q28 69 62.5 106.5t69.5 33.5q23 -3 26 -30q3 -29 -7 -119zM293 415q-107 -36 -141 -69l-1 -1q-1 0 -1 1q-33 39 -83 75q-9 7 18 19q40 17 51 4q15 -24 20 -80q34 50 73 78q17 11 53 -9q24 -14 11 -18z" />
    <glyph glyph-name="napostrophe" unicode="&#x149;" horiz-adv-x="293" 
d="M218 165l-3 -30q-11 -107 10 -108q14 -5 30.5 14t33.5 64.5t29 110.5q2 11 9 11t5 -11q-12 -99 -46 -157t-78 -65q-39 -7 -57 25.5t-13 95.5q1 26 8 77q6 48 0 50q-4 1 -11 -3q-43 -23 -75 -138q-4 -53 -19 -74q-14 -20 -40 -30q-15 -6 -16 4q-2 13 1 93q10 187 31 249
q6 16 84 16q17 0 12 -12q-34 -84 -46 -173q28 69 62.5 106.5t69.5 33.5q23 -3 26 -30q3 -29 -7 -119zM230 404q-21 -51 -94 -67q-10 -3 -12 3q-2 5 8 8q1 1 2 1q37 11 44 35q5 12 -5 20t-23.5 19t-15.5 27q-2 23 21 38q23 17 50 3q23 -10 30 -34.5t-5 -52.5z" />
    <glyph glyph-name="Omacron" unicode="&#x14c;" horiz-adv-x="442" 
d="M450 335q-19 -125 -93 -226q40 3 71.5 34t45.5 83q3 9 10 9q6 -1 3 -11q-15 -63 -54 -97.5t-90 -34.5q-73 -88 -154 -93q-86 -5 -133 88q-46 91 -31 217q18 155 110 255q93 99 196 103q17 0 23.5 -6t2 -14t-17.5 -13q-6 -5 -19.5 0t-14.5 5q-56 0 -113 -91
q-57 -92 -76 -226q-9 -80 -8 -143q1 -69 26 -112t69 -38q55 6 92 76q-43 15 -71 49q-57 64 -64 164t32 180q40 80 105 97q76 18 123 -62q46 -79 30 -193zM245 158q26 -29 58 -42q31 67 56 212q19 105 -4 179q-22 73 -70 60q-46 -13 -77 -85q-32 -71 -24 -166q7 -94 61 -158z
M227 697q-14 3 -21.5 5t-10.5 3.5t1 3.5t11.5 4t22.5 5q118 19 143 22q15 0 19 -3t2 -15q-8 -47 -23 -49q-13 -1 -144 24z" />
    <glyph glyph-name="omacron" unicode="&#x14d;" 
d="M256 166q-7 -31 -11 -44q40 24 56 91q1 4 5.5 6.5t7.5 0t1 -9.5q-21 -87 -79 -112q-21 -46 -59 -74t-85 -31q-56 -4 -88 38t-24 104q11 94 63.5 143.5t135.5 51.5q19 0 19 -7.5t-17 -13.5q-8 -3 -12.5 -2.5t-11 2.5t-9.5 2q-61 0 -83 -163q-9 -60 1 -97.5t38 -33.5
q37 3 56 84q-13 8 -20 15q-44 41 -34 102q11 62 64 77q51 15 73 -25t13 -104zM159 131l7 -6l6 34q5 28 2.5 46.5t-10.5 26.5t-19 4q-20 -8 -15 -46t29 -59zM82 369q-14 3 -21.5 5t-10.5 3.5t1 3.5t11.5 4t22.5 5q118 19 143 22q15 0 19 -3t2 -15q-8 -47 -23 -49
q-14 -1 -144 24z" />
    <glyph glyph-name="Obreve" unicode="&#x14e;" horiz-adv-x="442" 
d="M450 335q-19 -125 -93 -226q40 3 71.5 34t45.5 83q3 9 10 9q6 -1 3 -11q-15 -63 -54 -97.5t-90 -34.5q-73 -88 -154 -93q-86 -5 -133 88q-46 91 -31 217q18 155 110 255q93 99 196 103q17 0 23.5 -6t2 -14t-17.5 -13q-6 -5 -19.5 0t-14.5 5q-56 0 -113 -91
q-57 -92 -76 -226q-9 -80 -8 -143q1 -69 26 -112t69 -38q55 6 92 76q-43 15 -71 49q-57 64 -64 164t32 180q40 80 105 97q76 18 123 -62q46 -79 30 -193zM245 158q26 -29 58 -42q31 67 56 212q19 105 -4 179q-22 73 -70 60q-46 -13 -77 -85q-32 -71 -24 -166q7 -94 61 -158z
M363 763q3 7 9 6.5t1 -14.5q-13 -35 -42 -64q-28 -27 -53 -21q-29 6 -27 41q1 35 27 52q10 7 12 5q0 -3 -8 -14q-11 -13 -3 -20t28 -4q42 7 56 33z" />
    <glyph glyph-name="obreve" unicode="&#x14f;" 
d="M256 166q-7 -31 -11 -44q40 24 56 91q1 4 5.5 6.5t7.5 0t1 -9.5q-21 -87 -79 -112q-21 -46 -59 -74t-85 -31q-56 -4 -88 38t-24 104q11 94 63.5 143.5t135.5 51.5q19 0 19 -7.5t-17 -13.5q-8 -3 -12.5 -2.5t-11 2.5t-9.5 2q-61 0 -83 -163q-9 -60 1 -97.5t38 -33.5
q37 3 56 84q-13 8 -20 15q-44 41 -34 102q11 62 64 77q51 15 73 -25t13 -104zM159 131l7 -6l6 34q5 28 2.5 46.5t-10.5 26.5t-19 4q-20 -8 -15 -46t29 -59zM218 432q3 7 9 6.5t1 -14.5q-13 -35 -42 -64q-28 -27 -53 -21q-29 6 -27 41q1 35 27 52q10 7 12 5q2 -4 -8 -14
q-11 -13 -3 -20t28 -4q42 7 56 33z" />
    <glyph glyph-name="Ohungarumlaut" unicode="&#x150;" horiz-adv-x="442" 
d="M450 335q-19 -125 -93 -226q40 3 71.5 34t45.5 83q3 9 10 9q6 -1 3 -11q-15 -63 -54 -97.5t-90 -34.5q-73 -88 -154 -93q-86 -5 -133 88q-46 91 -31 217q18 155 110 255q93 99 196 103q17 0 23.5 -6t2 -14t-17.5 -13q-6 -5 -19.5 0t-14.5 5q-56 0 -113 -91
q-57 -92 -76 -226q-9 -80 -8 -143q1 -69 26 -112t69 -38q55 6 92 76q-43 15 -71 49q-57 64 -64 164t32 180q40 80 105 97q76 18 123 -62q46 -79 30 -193zM245 158q26 -29 58 -42q31 67 56 212q19 105 -4 179q-22 73 -70 60q-46 -13 -77 -85q-32 -71 -24 -166q7 -94 61 -158z
M300 822q5 15 25 -11q26 -32 19 -54l-3 -5q-20 -27 -119 -80q-16 -7 -17 -1q0 1 1 2q30 23 49 54t45 95zM395 815q8 14 24 -14q23 -36 12 -56l-4 -5q-27 -27 -128 -63q-19 -5 -17 3q34 18 57 47q26 33 56 88z" />
    <glyph glyph-name="ohungarumlaut" unicode="&#x151;" 
d="M256 166q-7 -31 -11 -44q40 24 56 91q1 4 5.5 6.5t7.5 0t1 -9.5q-21 -87 -79 -112q-21 -46 -59 -74t-85 -31q-56 -4 -88 38t-24 104q11 94 63.5 143.5t135.5 51.5q19 0 19 -7.5t-17 -13.5q-8 -3 -12.5 -2.5t-11 2.5t-9.5 2q-61 0 -83 -163q-9 -60 1 -97.5t38 -33.5
q37 3 56 84q-13 8 -20 15q-44 41 -34 102q11 62 64 77q51 15 73 -25t13 -104zM159 131l7 -6l6 34q5 28 2.5 46.5t-10.5 26.5t-19 4q-20 -8 -15 -46t29 -59zM136 486q5 15 25 -11q26 -32 19 -54l-3 -5q-20 -27 -119 -80q-16 -7 -17 -1q0 1 1 2q30 23 49 54t45 95zM231 479
q8 14 24 -14q23 -36 12 -56l-4 -5q-27 -27 -128 -63q-19 -5 -17 3q34 18 57 47q26 33 56 88z" />
    <glyph glyph-name="OE" unicode="&#x152;" horiz-adv-x="671" 
d="M662 640q39 -9 63.5 -40.5t16.5 -68.5q-15 -71 -72 -111q-26 -15 -57 -8q-31 8 -57 24q-25 17 -20 27l22 3q45 5 81.5 26.5t46.5 48.5q9 27 -2 50t-42 28q-51 9 -93.5 -25t-57.5 -102q-11 -48 -1.5 -88.5t35.5 -61.5q39 6 77 3q30 -1 28 -16q-2 -17 -36 -21h-4
q-33 -4 -66 2q-95 -33 -112 -149q-12 -86 37 -129q49 -42 141 -19q52 14 93 66t56 137q2 11 9 11t5 -11q-14 -97 -61 -155.5t-112 -74.5q-91 -22 -162 2q-70 24 -94 83q-66 -67 -135 -72q-86 -5 -133 88q-46 91 -31 217q18 155 110 255q93 99 196 103q17 0 23.5 -6t2 -14
t-17.5 -13q-6 -5 -19.5 0t-14.5 5q-56 0 -113 -91q-57 -92 -76 -226q-9 -80 -8 -143q1 -69 26 -112t69 -38q58 6 95 81q-48 -8 -86 38q-42 47 -56 121q-13 72 2 141t52 120q38 53 87 65q74 18 120 -58q38 67 109 95q73 29 136 13zM233 152q35 -43 73 -29l12 31q5 28 14 49
q13 45 27 125q19 105 -4 179q-22 73 -70 60q-46 -13 -80 -86t-30 -169q5 -96 58 -160zM450 342v-7l-3 -18q5 3 26 10q-10 5 -23 15z" />
    <glyph glyph-name="oe" unicode="&#x153;" horiz-adv-x="448" 
d="M479 216q-13 -99 -69 -155q-53 -55 -111 -61q-59 -8 -102 42q-45 -45 -105 -49q-56 -4 -88 38t-24 104q11 94 63.5 143.5t135.5 51.5q19 0 19 -7.5t-17 -13.5q-8 -3 -12.5 -2.5t-11 2.5t-9.5 2q-61 0 -83 -163q-9 -60 1 -97.5t38 -33.5q38 3 57 90q-9 4 -24 17
q-43 40 -32 98q12 58 65 73q53 16 76 -32q62 47 124 50q31 2 47 -15t7 -46q-22 -68 -171 -159q7 -33 25 -52.5t39 -15.5q32 5 77 44q53 48 71 147q2 11 9 11t5 -11zM328 281q-22 7 -44 -31t-33 -108q-3 -12 -1 -32q24 19 43 42.5t29 44.5t14.5 39t2 30t-10.5 15zM159 131
l7 -6v3v1l5 27v1q0 1 1 2q5 28 2.5 46.5t-10.5 26.5t-19 4q-20 -8 -15 -46t29 -59z" />
    <glyph glyph-name="Racute" unicode="&#x154;" horiz-adv-x="670" 
d="M314 365q4 61 4 239q0 12 81 22q14 2 14 -10q0 -158 -10 -242q-8 -55 -16 -89q30 -9 54 -27q117 43 139 200q13 109 -51 161t-171 34q-87 -13 -141 -73q-52 -59 -59 -125q-8 -66 12 -126t60 -81q7 -3 7.5 -9t-5 -9.5t-12.5 -0.5q-44 20 -70 67.5t-25 105.5q2 62 23 115
q24 59 84.5 103t142.5 58q79 13 151 -6q74 -18 117 -72q45 -55 35 -131q-12 -88 -69.5 -148.5t-144.5 -84.5q27 -27 55 -80q49 -88 64 -103q10 -10 20 -10q60 0 93 177q1 10 8 11q2 1 3.5 -0.5t1.5 -4.5q1 -3 0 -6q-15 -110 -55 -176q-40 -68 -81 -69q-20 -2 -43 30
q-22 31 -42 72t-51 84q-32 44 -66 62q-43 -138 -124 -213q-79 -73 -155 -57q-41 9 -63.5 44t-19.5 78t36.5 80t87.5 49q35 8 68 5q16 -4 14 -17t-12 -28t-13 -14q-37 5 -60 2q-49 -7 -77.5 -45.5t-16 -79.5t67.5 -51q61 -11 113 56t79 194q-4 0 -5 1q-21 4 -28 15t2.5 23
t30.5 18l2 1q1 0 3.5 0.5t4.5 0.5q7 52 8 80zM509 836q8 12 23 -14q19 -37 9 -58q-2 -4 -4 -5q-25 -22 -132 -55q-17 -3 -17 4q34 17 59 44t62 84z" />
    <glyph glyph-name="racute" unicode="&#x155;" horiz-adv-x="235" 
d="M18 191q2 8 5 30q-26 23 -18 94q3 27 11 43t14.5 19.5t11.5 0.5q24 -14 17 -69q-1 -8 -8 -42q37 -1 93 67q4 4 25 -3q20 -7 31 -18q1 -1 -7 -24q-9 -26 -20 -67q-13 -46 -17 -87q-14 -107 9 -108q14 -5 31 14t34 64.5t29 110.5q1 10 8 11q2 1 3.5 -0.5t1.5 -4.5
q2 -3 0 -6q-12 -99 -46 -157t-78 -65q-40 -7 -57.5 24.5t-12.5 96.5q7 83 33 136l-4 -5q-1 -1 -8.5 -7t-12 -9t-13 -8t-17 -6.5t-17.5 -0.5l-6 -27q-2 -9 -6.5 -12.5t-7.5 1t-1 14.5zM195 466q8 12 23 -14q19 -37 9 -58q-2 -4 -4 -5q-25 -22 -132 -55q-17 -3 -17 4
q34 17 59 44t62 84z" />
    <glyph glyph-name="Rcommaaccent" unicode="&#x156;" horiz-adv-x="670" 
d="M314 365q4 61 4 239q0 12 81 22q14 2 14 -10q0 -158 -10 -242q-8 -55 -16 -89q30 -9 54 -27q117 43 139 200q13 109 -51 161t-171 34q-87 -13 -141 -73q-52 -59 -59 -125q-8 -66 12 -126t60 -81q7 -3 7.5 -9t-5 -9.5t-12.5 -0.5q-44 20 -70 67.5t-25 105.5q2 62 23 115
q24 59 84.5 103t142.5 58q79 13 151 -6q74 -18 117 -72q45 -55 35 -131q-12 -88 -69.5 -148.5t-144.5 -84.5q27 -27 55 -80q49 -88 64 -103q10 -10 20 -10q60 0 93 177q1 10 8 11q2 1 3.5 -0.5t1.5 -4.5q1 -3 0 -6q-15 -110 -55 -176q-40 -68 -81 -69q-20 -2 -43 30
q-22 31 -42 72t-51 84q-32 44 -66 62q-43 -138 -124 -213q-79 -73 -155 -57q-41 9 -63.5 44t-19.5 78t36.5 80t87.5 49q35 8 68 5q16 -4 14 -17t-12 -28t-13 -14q-37 5 -60 2q-49 -7 -77.5 -45.5t-16 -79.5t67.5 -51q61 -11 113 56t79 194q-4 0 -5 1q-21 4 -28 15t2.5 23
t30.5 18l2 1q1 0 3.5 0.5t4.5 0.5q7 52 8 80zM427 -106q-21 -51 -94 -67q-11 -3 -12 3q-2 5 8 8q1 1 2 1q37 11 44 35q5 12 -5 20t-23.5 19t-15.5 27q-1 22 21 39q23 15 50 2q23 -10 30 -34.5t-5 -52.5z" />
    <glyph glyph-name="rcommaaccent" unicode="&#x157;" horiz-adv-x="235" 
d="M18 191q2 8 5 30q-26 23 -18 94q3 27 11 43t14.5 19.5t11.5 0.5q24 -14 17 -69q-1 -8 -8 -42q37 -1 93 67q4 4 25 -3q20 -7 31 -18q1 -1 -7 -24q-9 -26 -20 -67q-13 -46 -17 -87q-14 -107 9 -108q14 -5 31 14t34 64.5t29 110.5q1 10 8 11q2 1 3.5 -0.5t1.5 -4.5
q2 -3 0 -6q-12 -99 -46 -157t-78 -65q-40 -7 -57.5 24.5t-12.5 96.5q7 83 33 136l-4 -5q-1 -1 -8.5 -7t-12 -9t-13 -8t-17 -6.5t-17.5 -0.5l-6 -27q-2 -9 -6.5 -12.5t-7.5 1t-1 14.5zM179 409q-21 -51 -94 -67q-11 -3 -12 3q-2 5 8 8q1 1 2 1q37 11 44 35q5 12 -5 20
t-23.5 19t-15.5 27q-2 23 21 38q23 17 50 3q23 -10 30 -34.5t-5 -52.5z" />
    <glyph glyph-name="Rcaron" unicode="&#x158;" horiz-adv-x="670" 
d="M314 365q4 61 4 239q0 12 81 22q14 2 14 -10q0 -158 -10 -242q-8 -55 -16 -89q30 -9 54 -27q117 43 139 200q13 109 -51 161t-171 34q-87 -13 -141 -73q-52 -59 -59 -125q-8 -66 12 -126t60 -81q7 -3 7.5 -9t-5 -9.5t-12.5 -0.5q-44 20 -70 67.5t-25 105.5q2 62 23 115
q24 59 84.5 103t142.5 58q79 13 151 -6q74 -18 117 -72q45 -55 35 -131q-12 -88 -69.5 -148.5t-144.5 -84.5q27 -27 55 -80q49 -88 64 -103q10 -10 20 -10q60 0 93 177q1 10 8 11q2 1 3.5 -0.5t1.5 -4.5q1 -3 0 -6q-15 -110 -55 -176q-40 -68 -81 -69q-20 -2 -43 30
q-22 31 -42 72t-51 84q-32 44 -66 62q-43 -138 -124 -213q-79 -73 -155 -57q-41 9 -63.5 44t-19.5 78t36.5 80t87.5 49q35 8 68 5q16 -4 14 -17t-12 -28t-13 -14q-37 5 -60 2q-49 -7 -77.5 -45.5t-16 -79.5t67.5 -51q61 -11 113 56t79 194q-4 0 -5 1q-21 4 -28 15t2.5 23
t30.5 18l2 1q1 0 3.5 0.5t4.5 0.5q7 52 8 80zM583 775q-107 -36 -141 -69l-1 -1q-1 0 -1 1q-33 39 -83 75q-9 7 18 19q40 17 51 4q15 -24 20 -80q34 50 73 78q17 11 53 -9q24 -14 11 -18z" />
    <glyph glyph-name="rcaron" unicode="&#x159;" horiz-adv-x="235" 
d="M18 191q2 8 5 30q-26 23 -18 94q3 27 11 43t14.5 19.5t11.5 0.5q24 -14 17 -69q-1 -8 -8 -42q37 -1 93 67q4 4 25 -3q20 -7 31 -18q1 -1 -7 -24q-9 -26 -20 -67q-13 -46 -17 -87q-14 -107 9 -108q14 -5 31 14t34 64.5t29 110.5q1 10 8 11q2 1 3.5 -0.5t1.5 -4.5
q2 -3 0 -6q-12 -99 -46 -157t-78 -65q-40 -7 -57.5 24.5t-12.5 96.5q7 83 33 136l-4 -5q-1 -1 -8.5 -7t-12 -9t-13 -8t-17 -6.5t-17.5 -0.5l-6 -27q-2 -9 -6.5 -12.5t-7.5 1t-1 14.5zM247 417q-107 -36 -141 -69l-1 -1q-1 0 -1 1q-33 39 -83 75q-9 7 18 19q40 17 51 4
q15 -24 20 -80q34 50 73 78q17 11 53 -9q24 -14 11 -18z" />
    <glyph glyph-name="Sacute" unicode="&#x15a;" horiz-adv-x="505" 
d="M375 11q12 49 -6 91q-17 41 -96 167l-22 36q-69 121 -59 202q11 84 78 121q68 39 159 18q44 -11 70 -43.5t26 -72.5q0 -38 -26 -74t-70 -53q-23 -11 -53.5 3.5t-48 35.5t-9.5 29l13 -2q13 -2 31 -3t38 1t37 13t25 30q17 35 3 70q-13 36 -58 46q-45 9 -80 -6.5t-51 -50.5
q-17 -32 -4 -91t54 -123q90 -140 110 -199q21 -62 2 -130q-22 -85 -116 -117q-92 -31 -182 10q-61 27 -96.5 78t-36.5 106q-1 56 23 105t67 73q30 13 64 6q34 -6 62 -23q27 -17 20 -25l-16 -1q-25 0 -52 -6t-58.5 -28t-41.5 -58q-19 -71 5.5 -128.5t86.5 -83.5
q65 -28 130 -4q65 22 78 81zM432 797q8 12 23 -14q19 -37 9 -58q-2 -4 -4 -5q-25 -22 -132 -55q-17 -3 -17 4q34 17 59 44t62 84z" />
    <glyph glyph-name="sacute" unicode="&#x15b;" horiz-adv-x="243" 
d="M13 191l11 68q-30 36 -34 75q-2 30 25 48q26 17 39 -5q7 -13 6 -38q0 -2 -3 -18t-4 -22q136 -101 143 -182h37q11 -1 12 -8t-11 -6q-29 0 -37 -1l-1 -3v-5q-4 -54 -47 -86q-41 -31 -91 -29q-51 2 -56 40q-5 40 46 65q28 13 69 23q-5 74 -77 136q-1 -5 -6 -27.5t-6 -27.5
q-2 -9 -6.5 -12.5t-7.5 1t-1 14.5zM117 83v8q-20 -4 -54 -17q-18 -8 -24.5 -19.5t1 -20t26.5 -7.5q46 1 51 56zM190 454q8 12 23 -14q19 -37 9 -58q-2 -4 -4 -5q-25 -22 -132 -55q-17 -3 -17 4q34 17 59 44t62 84z" />
    <glyph glyph-name="Scircumflex" unicode="&#x15c;" horiz-adv-x="505" 
d="M375 11q12 49 -6 91q-17 41 -96 167l-22 36q-69 121 -59 202q11 84 78 121q68 39 159 18q44 -11 70 -43.5t26 -72.5q0 -38 -26 -74t-70 -53q-23 -11 -53.5 3.5t-48 35.5t-9.5 29l13 -2q13 -2 31 -3t38 1t37 13t25 30q17 35 3 70q-13 36 -58 46q-45 9 -80 -6.5t-51 -50.5
q-17 -32 -4 -91t54 -123q90 -140 110 -199q21 -62 2 -130q-22 -85 -116 -117q-92 -31 -182 10q-61 27 -96.5 78t-36.5 106q-1 56 23 105t67 73q30 13 64 6q34 -6 62 -23q27 -17 20 -25l-16 -1q-25 0 -52 -6t-58.5 -28t-41.5 -58q-19 -71 5.5 -128.5t86.5 -83.5
q65 -28 130 -4q65 22 78 81zM267 708l59 20q53 20 81 49h2h1q33 -39 83 -75q9 -7 -18 -19q-40 -17 -51 -4q-15 21 -20 79q-34 -50 -73 -78q-17 -11 -53 10q-24 14 -11 18z" />
    <glyph glyph-name="scircumflex" unicode="&#x15d;" horiz-adv-x="243" 
d="M20 191l11 68q-30 36 -34 75q-2 30 25 48q26 17 39 -5q7 -13 6 -38q0 -2 -3 -18t-4 -22q136 -101 143 -182h37q11 -1 12 -8t-11 -6q-29 0 -37 -1v-3q-1 -3 -1 -5q-4 -54 -47 -86q-41 -31 -91 -29q-51 2 -56 40q-5 40 46 65q28 13 69 23q-5 74 -77 136q-1 -5 -6 -27.5
t-6 -27.5q-2 -9 -6.5 -12.5t-7.5 1t-1 14.5zM124 83v8q-20 -4 -54 -17q-18 -8 -24.5 -19.5t1 -20t26.5 -7.5q46 1 51 56zM1 426l59 20q53 20 81 49h2h1q33 -39 83 -75q9 -7 -18 -19q-40 -17 -51 -4q-15 21 -20 79q-34 -50 -73 -78q-17 -11 -53 10q-24 14 -11 18z" />
    <glyph glyph-name="Scedilla" unicode="&#x15e;" horiz-adv-x="505" 
d="M375 11q12 49 -6 91q-17 41 -96 167l-22 36q-69 121 -59 202q11 84 78 121q68 39 159 18q44 -11 70 -43.5t26 -72.5q0 -38 -26 -74t-70 -53q-23 -11 -53.5 3.5t-48 35.5t-9.5 29l13 -2q13 -2 31 -3t38 1t37 13t25 30q17 35 3 70q-13 36 -58 46q-45 9 -80 -6.5t-51 -50.5
q-17 -32 -4 -91t54 -123q90 -140 110 -199q21 -62 2 -130q-22 -85 -116 -117q-92 -31 -182 10q-61 27 -96.5 78t-36.5 106q-1 56 23 105t67 73q30 13 64 6q34 -6 62 -23q27 -17 20 -25l-16 -1q-25 0 -52 -6t-58.5 -28t-41.5 -58q-19 -71 5.5 -128.5t86.5 -83.5
q65 -28 130 -4q65 22 78 81zM207 -135l1 1q20 20 27 32q6 9 12 6q1 -3 0 -7l-17 -19q26 7 48 -3t21 -30q-2 -26 -36 -47q-33 -21 -71 -26q-12 -1 -14 1.5t2 6t7 4.5q29 6 45 42q13 25 1 35q-5 5 -16 -1q-15 -8 -17 -4q-1 1 7 9z" />
    <glyph glyph-name="scedilla" unicode="&#x15f;" horiz-adv-x="243" 
d="M13 191l11 68q-30 36 -34 75q-2 30 25 48q26 17 39 -5q7 -13 6 -38q0 -2 -3 -18t-4 -22q136 -101 143 -182h37q11 -1 12 -8t-11 -6q-29 0 -37 -1l-1 -3v-5q-4 -54 -47 -86q-41 -31 -91 -29q-51 2 -56 40q-5 40 46 65q28 13 69 23q-5 74 -77 136q-1 -5 -6 -27.5t-6 -27.5
q-2 -9 -6.5 -12.5t-7.5 1t-1 14.5zM117 83v8q-20 -4 -54 -17q-18 -8 -24.5 -19.5t1 -20t26.5 -7.5q46 1 51 56zM36 -44l1 1q20 20 27 32q6 9 12 6q5 -2 0 -7l-17 -19q26 7 48 -3t21 -30q-2 -26 -36 -47q-33 -21 -71 -26q-12 -1 -14 1.5t2 6t7 4.5q28 6 45 42q13 25 1 35
q-5 5 -16 -1q-15 -8 -17 -4q-1 1 7 9z" />
    <glyph glyph-name="Scaron" unicode="&#x160;" horiz-adv-x="505" 
d="M375 11q12 49 -6 91q-17 41 -96 167l-22 36q-69 121 -59 202q11 84 78 121q68 39 159 18q44 -11 70 -43.5t26 -72.5q0 -38 -26 -74t-70 -53q-23 -11 -53.5 3.5t-48 35.5t-9.5 29l13 -2q13 -2 31 -3t38 1t37 13t25 30q17 35 3 70q-13 36 -58 46q-45 9 -80 -6.5t-51 -50.5
q-17 -32 -4 -91t54 -123q90 -140 110 -199q21 -62 2 -130q-22 -85 -116 -117q-92 -31 -182 10q-61 27 -96.5 78t-36.5 106q-1 56 23 105t67 73q30 13 64 6q34 -6 62 -23q27 -17 20 -25l-16 -1q-25 0 -52 -6t-58.5 -28t-41.5 -58q-19 -71 5.5 -128.5t86.5 -83.5
q65 -28 130 -4q65 22 78 81zM518 737q-106 -36 -141 -69l-1 -1q-1 0 -1 1q-33 39 -83 75q-9 7 18 19q40 17 51 4q15 -24 20 -80q34 50 73 78q17 11 53 -9q24 -14 11 -18z" />
    <glyph glyph-name="scaron" unicode="&#x161;" horiz-adv-x="243" 
d="M13 191l11 68q-30 36 -34 75q-2 30 25 48q26 17 39 -5q7 -13 6 -38q0 -2 -3 -18t-4 -22q136 -101 143 -182h37q11 -1 12 -8t-11 -6q-29 0 -37 -1l-1 -3v-5q-4 -54 -47 -86q-41 -31 -91 -29q-51 2 -56 40q-5 40 46 65q28 13 69 23q-5 74 -77 136q-1 -5 -6 -27.5t-6 -27.5
q-2 -9 -6.5 -12.5t-7.5 1t-1 14.5zM117 83v8q-20 -4 -54 -17q-18 -8 -24.5 -19.5t1 -20t26.5 -7.5q46 1 51 56zM236 412q-106 -36 -141 -69l-1 -1q-1 0 -1 1q-33 39 -83 75q-9 7 18 19q40 17 51 4q15 -24 20 -80q34 50 73 78q17 11 53 -9q24 -14 11 -18z" />
    <glyph glyph-name="Tcommaaccent" unicode="&#x162;" horiz-adv-x="438" 
d="M318 327q4 63 4 203q0 12 81 22q14 0 14 -11q0 -121 -10 -204q-12 -101 -44.5 -182t-77.5 -128q-92 -94 -189 -74q-41 9 -66 43.5t-24 74.5q2 41 37.5 77t93.5 50q41 8 69 5q16 -4 13.5 -17t-12.5 -28t-13 -14q-37 5 -60 2q-44 -6 -72.5 -30t-32.5 -54q-3 -30 18 -55
t61 -31q79 -13 139 75q61 91 71 276zM216 537q-91 -29 -132.5 -70.5t-27.5 -87.5q15 -46 69 -67.5t131 -13.5q7 0 11 -4.5t2 -9.5t-9 -6q-80 -11 -140.5 14t-80.5 76q-28 69 21.5 150t187.5 119q182 48 480 18q18 -1 -8 -51l-2 -4q-16 -33 -26 -33q-309 21 -476 -30z
M252 -146q-21 -51 -94 -67q-10 -3 -12 3q-2 5 8 8q1 1 2 1q37 11 44 35q5 12 -5 20t-23.5 19t-15.5 27q-2 22 21 39q23 15 50 2q23 -10 30 -34.5t-5 -52.5z" />
    <glyph glyph-name="tcommaaccent" unicode="&#x163;" horiz-adv-x="157" 
d="M126 431l76 -3q94 -4 94 -10q0 -1 -2 -3q-10 -9 -103 -21q-19 -2 -43 -6l-34 -5q-32 -134 -40 -279q-5 -69 11 -70q13 -4 29 13t33.5 61.5t28.5 107.5q1 7 4.5 10t7 0t3.5 -10q-15 -100 -47.5 -155t-76.5 -62q-36 -6 -52.5 18t-14.5 71q4 147 27 285l-31 -2q-4 0 -12 17
q-8 15 -10 24q-4 24 21 25q28 0 44 -1q13 58 27 106q4 16 79 16q11 0 16 -3t3 -9q-16 -44 -38 -115zM104 -107q-21 -51 -94 -67q-10 -3 -12 3q-2 5 8 8q1 1 2 1q37 11 44 35q5 12 -5 20t-23.5 19t-15.5 27q-2 23 21 39q23 15 50 2q23 -10 30 -34.5t-5 -52.5z" />
    <glyph glyph-name="Tcaron" unicode="&#x164;" horiz-adv-x="438" 
d="M318 327q4 63 4 203q0 12 81 22q14 0 14 -11q0 -121 -10 -204q-12 -101 -44.5 -182t-77.5 -128q-92 -94 -189 -74q-41 9 -66 43.5t-24 74.5q2 41 37.5 77t93.5 50q41 8 69 5q16 -4 13.5 -17t-12.5 -28t-13 -14q-37 5 -60 2q-44 -6 -72.5 -30t-32.5 -54q-3 -30 18 -55
t61 -31q79 -13 139 75q61 91 71 276zM216 537q-91 -29 -132.5 -70.5t-27.5 -87.5q15 -46 69 -67.5t131 -13.5q7 0 11 -4.5t2 -9.5t-9 -6q-80 -11 -140.5 14t-80.5 76q-28 69 21.5 150t187.5 119q182 48 480 18q18 -1 -8 -51l-2 -4q-16 -33 -26 -33q-309 21 -476 -30z
M500 739q-106 -36 -141 -69l-1 -1q-1 0 -1 1q-33 39 -83 75q-9 7 18 19q40 17 51 4q15 -24 20 -80q34 50 73 78q17 11 53 -9q24 -14 11 -18z" />
    <glyph glyph-name="tcaron" unicode="&#x165;" horiz-adv-x="157" 
d="M126 431l76 -3q94 -4 94 -10q0 -1 -2 -3q-10 -9 -103 -21q-19 -2 -43 -6l-34 -5q-32 -134 -40 -279q-5 -69 11 -70q13 -4 29 13t33.5 61.5t28.5 107.5q1 7 4.5 10t7 0t3.5 -10q-15 -100 -47.5 -155t-76.5 -62q-36 -6 -52.5 18t-14.5 71q4 147 27 285l-31 -2q-4 0 -12 17
q-8 15 -10 24q-4 24 21 25q28 0 44 -1q13 58 27 106q4 16 79 16q11 0 16 -3t3 -9q-16 -44 -38 -115zM189 635q-2 16 25 8q32 -8 40 -31q2 -8 1 -13q-8 -43 -83 -124q-13 -12 -16 -5q42 66 33 165z" />
    <glyph glyph-name="Tbar" unicode="&#x166;" horiz-adv-x="438" 
d="M318 327q4 63 4 203q0 12 81 22q14 0 14 -11q0 -121 -10 -204q-12 -101 -44.5 -182t-77.5 -128q-92 -94 -189 -74q-41 9 -66 43.5t-24 74.5q2 41 37.5 77t93.5 50q41 8 69 5q16 -4 13.5 -17t-12.5 -28t-13 -14q-37 5 -60 2q-44 -6 -72.5 -30t-32.5 -54q-3 -30 18 -55
t61 -31q79 -13 139 75q61 91 71 276zM216 537q-91 -29 -132.5 -70.5t-27.5 -87.5q15 -46 69 -67.5t131 -13.5q7 0 11 -4.5t2 -9.5t-9 -6q-80 -11 -140.5 14t-80.5 76q-28 69 21.5 150t187.5 119q182 48 480 18q18 -1 -8 -51l-2 -4q-16 -33 -26 -33q-309 21 -476 -30z
M302 468q-14 3 -21.5 5t-10.5 3.5t1 3.5t11.5 4t22.5 5q118 19 143 22q15 0 19 -3t2 -15q-8 -47 -23 -49q-14 -2 -144 24z" />
    <glyph glyph-name="tbar" unicode="&#x167;" horiz-adv-x="160" 
d="M127 431l76 -3q94 -4 94 -10l-2 -3q-13 -9 -103 -21q-16 -2 -41 -6q-8 -1 -15 -2t-13.5 -2t-8.5 -1l-4 -17l40 4q15 1 18.5 -2.5t2.5 -15.5q-3 -19 -10 -33.5t-14 -14.5q-6 -2 -48 6q-20 -101 -24 -206q-5 -69 10 -70q14 -4 30 13t33 61t29 108q2 11 8.5 11t5.5 -11
q-14 -100 -46.5 -155t-76.5 -62q-70 -11 -68 89q5 130 20 236l-17 3q-33 8 -32.5 11t36.5 10l17 4l3 21l-31 -2q-4 0 -12 17q-8 15 -10 24q-4 24 21 25q29 0 44 -1q7 39 27 106q4 16 80 16q22 0 18 -12q-24 -67 -37 -115z" />
    <glyph glyph-name="Utilde" unicode="&#x168;" horiz-adv-x="443" 
d="M198 -21q-131 53 15 643q3 10 34 14q28 4 50 4q15 0 12 -12q-60 -237 -84 -366q-23 -133 -19 -174q4 -45 31 -54q19 -7 37 11.5t42 71.5q44 97 130 389q15 63 32 112q4 15 74 15q22 0 18 -12q-96 -277 -87 -523q0 -41 2 -54t12 -17q15 -4 31 13.5t32.5 61.5t28.5 109
q0 7 4 10t7 0t3 -10q-14 -103 -51 -165.5t-80 -64.5q-32 -2 -49.5 23t-20.5 78q-7 85 8 218q-64 -194 -115 -267.5t-97 -53.5zM309 699q13 13 36 8q3 0 6 -1l6 -2t4 -1l43 -14q53 -14 71 21q1 2 13 -7.5t18 -22t-5 -28.5q-12 -12 -36 -9q-9 1 -33 10q-4 2 -19.5 8t-19.5 8
q-38 14 -66 -22q-1 -2 -11 7.5t-14 21t7 23.5z" />
    <glyph glyph-name="utilde" unicode="&#x169;" horiz-adv-x="295" 
d="M213 97q-4 -67 12 -70q14 -5 30.5 13.5t33.5 64.5t29 111q2 11 8.5 11t5.5 -11q-14 -102 -49 -160.5t-76 -62.5q-31 -4 -50 23t-18 72q0 2 0.5 12.5t0.5 14.5q-48 -133 -108 -120q-24 5 -35 51t-4 126q7 97 20 121q4 8 33 13q24 4 45 2q10 -1 13.5 -3.5t-0.5 -8.5
q-22 -37 -33 -106q-12 -79 -13 -109q-2 -37 12 -39q16 -4 35 32.5t34 101.5q1 4 7 35q6 65 15 80q4 9 31 14q22 4 46 2q16 -3 12 -12q-27 -33 -37 -198zM36 391q13 13 36 8l16 -4l43 -14q53 -14 71 21q1 2 13 -7.5t18 -22t-5 -28.5q-12 -12 -36 -9q-10 1 -33 10
q-4 2 -19.5 8t-19.5 8q-38 14 -66 -22q-1 -2 -11 7.5t-14 21t7 23.5z" />
    <glyph glyph-name="Umacron" unicode="&#x16a;" horiz-adv-x="443" 
d="M198 -21q-131 53 15 643q3 10 34 14q28 4 50 4q15 0 12 -12q-60 -237 -84 -366q-23 -133 -19 -174q4 -45 31 -54q19 -7 37 11.5t42 71.5q44 97 130 389q15 63 32 112q4 15 74 15q22 0 18 -12q-96 -277 -87 -523q0 -41 2 -54t12 -17q15 -4 31 13.5t32.5 61.5t28.5 109
q0 7 4 10t7 0t3 -10q-14 -103 -51 -165.5t-80 -64.5q-32 -2 -49.5 23t-20.5 78q-7 85 8 218q-64 -194 -115 -267.5t-97 -53.5zM345 675q-14 3 -21.5 5t-10.5 3.5t1 3.5t11.5 4t22.5 5q118 19 143 22q15 0 19 -3t2 -15q-8 -47 -23 -49q-13 -1 -144 24z" />
    <glyph glyph-name="umacron" unicode="&#x16b;" horiz-adv-x="295" 
d="M213 97q-4 -67 12 -70q14 -5 30.5 13.5t33.5 64.5t29 111q2 11 8.5 11t5.5 -11q-14 -102 -49 -160.5t-76 -62.5q-31 -4 -50 23t-18 72q0 2 0.5 12.5t0.5 14.5q-48 -133 -108 -120q-24 5 -35 51t-4 126q7 97 20 121q4 8 33 13q24 4 45 2q10 -1 13.5 -3.5t-0.5 -8.5
q-22 -37 -33 -106q-12 -79 -13 -109q-2 -37 12 -39q16 -4 35 32.5t34 101.5q1 4 7 35q6 65 15 80q4 9 31 14q22 4 46 2q16 -3 12 -12q-27 -33 -37 -198zM72 363q-14 3 -21.5 5t-10.5 3.5t1 3.5t11.5 4t22.5 5q118 19 143 22q15 0 19 -3t2 -15q-8 -47 -23 -49q-14 -1 -144 24
z" />
    <glyph glyph-name="Ubreve" unicode="&#x16c;" horiz-adv-x="443" 
d="M198 -21q-131 53 15 643q3 10 34 14q28 4 50 4q15 0 12 -12q-60 -237 -84 -366q-23 -133 -19 -174q4 -45 31 -54q19 -7 37 11.5t42 71.5q44 97 130 389q15 63 32 112q4 15 74 15q22 0 18 -12q-96 -277 -87 -523q0 -41 2 -54t12 -17q15 -4 31 13.5t32.5 61.5t28.5 109
q0 7 4 10t7 0t3 -10q-14 -103 -51 -165.5t-80 -64.5q-32 -2 -49.5 23t-20.5 78q-7 85 8 218q-64 -194 -115 -267.5t-97 -53.5zM465 730q3 7 9 6.5t1 -14.5q-13 -35 -42 -64q-28 -27 -53 -21q-29 6 -27 41q1 35 27 52q10 7 12 5q0 -3 -8 -14q-11 -13 -3 -20t28 -4q42 7 56 33
z" />
    <glyph glyph-name="ubreve" unicode="&#x16d;" horiz-adv-x="295" 
d="M213 97q-4 -67 12 -70q14 -5 30.5 13.5t33.5 64.5t29 111q2 11 8.5 11t5.5 -11q-14 -102 -49 -160.5t-76 -62.5q-31 -4 -50 23t-18 72q0 2 0.5 12.5t0.5 14.5q-48 -133 -108 -120q-24 5 -35 51t-4 126q7 97 20 121q4 8 33 13q24 4 45 2q10 -1 13.5 -3.5t-0.5 -8.5
q-22 -37 -33 -106q-12 -79 -13 -109q-2 -37 12 -39q16 -4 35 32.5t34 101.5q1 4 7 35q6 65 15 80q4 9 31 14q22 4 46 2q16 -3 12 -12q-27 -33 -37 -198zM206 410q3 7 9 6.5t1 -14.5q-13 -35 -42 -64q-28 -27 -53 -21q-29 6 -27 41q1 35 27 52q10 7 12 5q2 -4 -8 -14
q-11 -13 -3 -20t28 -4q42 7 56 33z" />
    <glyph glyph-name="Uring" unicode="&#x16e;" horiz-adv-x="443" 
d="M198 -21q-131 53 15 643q3 10 34 14q28 4 50 4q15 0 12 -12q-60 -237 -84 -366q-23 -133 -19 -174q4 -45 31 -54q19 -7 37 11.5t42 71.5q44 97 130 389q15 63 32 112q4 15 74 15q22 0 18 -12q-96 -277 -87 -523q0 -41 2 -54t12 -17q15 -4 31 13.5t32.5 61.5t28.5 109
q0 7 4 10t7 0t3 -10q-14 -103 -51 -165.5t-80 -64.5q-32 -2 -49.5 23t-20.5 78q-7 85 8 218q-64 -194 -115 -267.5t-97 -53.5zM414 733q26 0 42.5 -11.5t13.5 -27.5q-3 -17 -23.5 -28.5t-46.5 -11.5q-27 0 -43 11.5t-14 28.5q3 16 23.5 27.5t47.5 11.5zM419 690q8 29 -6 32
q-5 2 -11 -5.5t-8 -18.5q-9 -27 5 -33q5 -1 11 6t9 19z" />
    <glyph glyph-name="uring" unicode="&#x16f;" horiz-adv-x="295" 
d="M213 97q-4 -67 12 -70q14 -5 30.5 13.5t33.5 64.5t29 111q2 11 8.5 11t5.5 -11q-14 -102 -49 -160.5t-76 -62.5q-31 -4 -50 23t-18 72q0 2 0.5 12.5t0.5 14.5q-48 -133 -108 -120q-24 5 -35 51t-4 126q7 97 20 121q4 8 33 13q24 4 45 2q10 -1 13.5 -3.5t-0.5 -8.5
q-22 -37 -33 -106q-12 -79 -13 -109q-2 -37 12 -39q16 -4 35 32.5t34 101.5q1 4 7 35q6 65 15 80q4 9 31 14q22 4 46 2q16 -3 12 -12q-27 -33 -37 -198zM149 416q26 0 42.5 -11.5t13.5 -27.5q-3 -17 -23.5 -28.5t-46.5 -11.5q-27 0 -43 11.5t-14 28.5q3 16 23.5 27.5
t47.5 11.5zM154 373q8 29 -6 32q-5 2 -11 -5.5t-8 -18.5q-9 -27 5 -33q5 -1 11 6t9 19z" />
    <glyph glyph-name="Uhungarumlaut" unicode="&#x170;" horiz-adv-x="443" 
d="M198 -21q-131 53 15 643q3 10 34 14q28 4 50 4q15 0 12 -12q-60 -237 -84 -366q-23 -133 -19 -174q4 -45 31 -54q19 -7 37 11.5t42 71.5q44 97 130 389q15 63 32 112q4 15 74 15q22 0 18 -12q-96 -277 -87 -523q0 -41 2 -54t12 -17q15 -4 31 13.5t32.5 61.5t28.5 109
q0 7 4 10t7 0t3 -10q-14 -103 -51 -165.5t-80 -64.5q-32 -2 -49.5 23t-20.5 78q-7 85 8 218q-64 -194 -115 -267.5t-97 -53.5zM401 776q5 15 25 -11q26 -32 19 -54l-3 -5q-20 -27 -119 -80q-16 -7 -17 -1q0 1 1 2q30 23 49 54t45 95zM496 769q8 14 24 -14q23 -36 12 -56
l-4 -5q-27 -27 -128 -63q-19 -5 -17 3q34 18 57 47q26 33 56 88z" />
    <glyph glyph-name="uhungarumlaut" unicode="&#x171;" horiz-adv-x="295" 
d="M213 97q-4 -67 12 -70q14 -5 30.5 13.5t33.5 64.5t29 111q2 11 8.5 11t5.5 -11q-14 -102 -49 -160.5t-76 -62.5q-31 -4 -50 23t-18 72q0 2 0.5 12.5t0.5 14.5q-48 -133 -108 -120q-24 5 -35 51t-4 126q7 97 20 121q4 8 33 13q24 4 45 2q10 -1 13.5 -3.5t-0.5 -8.5
q-22 -37 -33 -106q-12 -79 -13 -109q-2 -37 12 -39q16 -4 35 32.5t34 101.5q1 4 7 35q6 65 15 80q4 9 31 14q22 4 46 2q16 -3 12 -12q-27 -33 -37 -198zM128 479q5 15 25 -11q26 -32 19 -54l-3 -5q-20 -27 -119 -80q-16 -7 -17 -1q0 1 1 2q30 23 49 54t45 95zM223 472
q8 14 24 -14q23 -36 12 -56l-4 -5q-27 -27 -128 -63q-19 -5 -17 3q34 18 57 47q26 33 56 88z" />
    <glyph glyph-name="Uogonek" unicode="&#x172;" horiz-adv-x="443" 
d="M198 -21q-131 53 15 643q3 10 34 14q28 4 50 4q15 0 12 -12q-60 -237 -84 -366q-23 -133 -19 -174q4 -45 31 -54q19 -7 37 11.5t42 71.5q44 97 130 389q15 63 32 112q4 15 74 15q22 0 18 -12q-96 -277 -87 -523q0 -41 2 -54t12 -17q15 -4 31 13.5t32.5 61.5t28.5 109
q0 7 4 10t7 0t3 -10q-14 -103 -51 -165.5t-80 -64.5q-32 -2 -49.5 23t-20.5 78q-7 85 8 218q-64 -194 -115 -267.5t-97 -53.5zM385 -77q2 26 32 51q31 25 66 34q7 1 10 -1t1 -5.5t-9 -5.5q-17 -4 -33 -39q-7 -15 0 -24t22 0q15 6 15 1q0 -11 -25 -32q-25 -20 -53 -13
q-27 7 -26 34z" />
    <glyph glyph-name="uogonek" unicode="&#x173;" horiz-adv-x="295" 
d="M213 97q-4 -67 12 -70q14 -5 30.5 13.5t33.5 64.5t29 111q2 11 8.5 11t5.5 -11q-14 -102 -49 -160.5t-76 -62.5q-31 -4 -50 23t-18 72q0 2 0.5 12.5t0.5 14.5q-48 -133 -108 -120q-24 5 -35 51t-4 126q7 97 20 121q4 8 33 13q24 4 45 2q10 -1 13.5 -3.5t-0.5 -8.5
q-22 -37 -33 -106q-12 -79 -13 -109q-2 -37 12 -39q16 -4 35 32.5t34 101.5q1 4 7 35q6 65 15 80q4 9 31 14q22 4 46 2q16 -3 12 -12q-27 -33 -37 -198zM110 -77q2 26 32 51q31 25 66 34q7 1 10 -1t1 -5.5t-9 -5.5q-16 -4 -33 -39q-7 -15 0 -24t22 0q15 6 15 1
q-2 -12 -25 -32q-25 -20 -53 -13q-27 7 -26 34z" />
    <glyph glyph-name="Wcircumflex" unicode="&#x174;" horiz-adv-x="742" 
d="M514 -21q-74 29 -95 161q-54 -85 -118 -133q-61 -46 -104 -28q-146 59 -40 642q3 10 83 21q6 0 10 -3t3 -9q-52 -271 -57 -415q-3 -161 52 -175q50 -18 92 47t72 201q0 26 3 56q4 65 31 125q25 58 55 66q14 4 23.5 -5.5t13.5 -31.5q10 -62 -23 -149q-4 -12 -7 -18l-6 -15
q-2 -2 -2 -4q-6 -83 -4.5 -134.5t14.5 -79.5q14 -29 25 -40.5t30 -17.5q58 -21 123 98q-32 15 -54 39q-52 52 -64 129q-10 76 12 144q22 67 68 122q47 56 100 72q56 17 92 -18t41.5 -103.5t-18.5 -159.5q-35 -121 -110 -222q47 0 83.5 31.5t51.5 89.5q4 8 11 8q4 -3 2 -11
q-17 -68 -60 -103t-101 -31q-62 -82 -124 -121q-64 -41 -104 -25zM655 187q21 -21 42 -32q38 79 72 202q68 259 -5 266q-11 2 -25 -3q-53 -16 -100 -92q-46 -73 -51 -166q-4 -90 67 -175zM387 592l59 20q53 20 81 49h2h1q33 -39 83 -75q9 -7 -18 -19q-40 -17 -51 -4
q-15 21 -20 79q-34 -50 -73 -78q-17 -11 -53 10q-24 14 -11 18z" />
    <glyph glyph-name="wcircumflex" unicode="&#x175;" horiz-adv-x="417" 
d="M388 209q-8 -48 -32 -92q28 3 50.5 29.5t34.5 72.5q1 4 5 6.5t7 0t1 -9.5q-12 -53 -42 -83.5t-66 -32.5q-34 -51 -80 -79q-47 -29 -74 -23q-26 4 -46 48q-53 -56 -101 -48q-29 6 -46 53.5t-11 120.5q7 97 20 121q4 8 35 13q26 4 46 2q10 -1 13 -3.5t0 -8.5
q-22 -37 -33 -106q-12 -83 -13 -118q-1 -47 18 -48q13 -2 30.5 11.5t32.5 39.5q-11 47 -7 103q4 52 27.5 81.5t49.5 20.5q10 -3 13 -9q10 -13 2 -62q-10 -58 -37 -109q3 -73 33 -76q18 -3 40.5 21.5t39.5 68.5q-9 6 -19 16q-30 28 -34.5 77t15 88.5t51.5 43.5q37 7 62 -27
t15 -103zM300 137l5 -4q9 26 14 67q12 67 -10 74q-3 1 -10 -1q-25 -10 -25 -62q0 -51 26 -74zM61 358l59 20q53 20 81 49h2h1q33 -39 83 -75q9 -7 -18 -19q-40 -17 -51 -4q-15 21 -20 79q-34 -50 -73 -78q-17 -11 -53 10q-24 14 -11 18z" />
    <glyph glyph-name="Ycircumflex" unicode="&#x176;" horiz-adv-x="414" 
d="M82 -21q-26 10 -37 67q-20 125 47 573q4 13 71 19l11 1q7 0 10.5 -3t2.5 -8q-70 -458 -71 -528q-2 -53 17 -60q22 -9 57 47q20 32 41 85q49 125 100 361q7 41 18 84q3 15 86 15q8 0 11 -2.5t2 -7.5q-12 -32 -39 -189q-54 -319 -108 -523q35 9 79 14q9 1 11 -5
q-1 -7 -11 -10q-44 -6 -84 -18q-93 -354 -196 -367q-44 -6 -68 41q-23 48 -13 106q15 73 74 130t149 90q27 156 59 415q-16 -59 -34.5 -108.5t-35.5 -83.5t-35 -61t-33.5 -41.5t-31 -25t-27.5 -10t-22 2.5zM123 -414q63 4 115 280q-62 -32 -100.5 -78t-48.5 -98
q-9 -42 3 -73.5t31 -30.5zM170 673l59 20q53 20 81 49h2h1q33 -39 83 -75q9 -7 -18 -19q-40 -17 -51 -4q-15 21 -20 79q-34 -50 -73 -78q-17 -11 -53 10q-24 14 -11 18z" />
    <glyph glyph-name="ycircumflex" unicode="&#x177;" horiz-adv-x="282" 
d="M9 172q10 104 21 121q4 8 33 13q24 4 45 2q17 -2 11 -12q-22 -37 -32 -106q-12 -79 -13 -109q-1 -37 11 -39q17 -4 39.5 60t39.5 139q0 3 1.5 9t4 16.5t4.5 19.5q4 16 78 16q7 0 11 -2.5t2 -8.5q-17 -42 -41 -184q-12 -73 -31 -163q40 10 70 13q7 0 10 -3.5t0 -7
t-10 -4.5q-17 -1 -75 -16q-78 -348 -193 -364q-38 -5 -64 41q-27 43 -16 101q12 68 67.5 125t138.5 92q17 112 23 167l3 29q-47 -130 -96 -119q-55 14 -42 174zM19 -381q55 3 98 274q-98 -59 -120 -170q-6 -32 -5 -55.5t8 -36.5t19 -12zM35 358l59 20q53 20 81 49h2h1
q33 -39 83 -75q9 -7 -18 -19q-40 -17 -51 -4q-15 21 -20 79q-34 -50 -73 -78q-17 -11 -53 10q-24 14 -11 18z" />
    <glyph glyph-name="Ydieresis" unicode="&#x178;" horiz-adv-x="414" 
d="M82 -21q-26 10 -37 67q-20 125 47 573q4 13 71 19l11 1q7 0 10.5 -3t2.5 -8q-70 -458 -71 -528q-2 -53 17 -60q22 -9 57 47q20 32 41 85q49 125 100 361q7 41 18 84q3 15 86 15q8 0 11 -2.5t2 -7.5q-12 -32 -39 -189q-54 -319 -108 -523q35 9 79 14q9 1 11 -5
q-1 -7 -11 -10q-44 -6 -84 -18q-93 -354 -196 -367q-44 -6 -68 41q-23 48 -13 106q15 73 74 130t149 90q27 156 59 415q-16 -59 -34.5 -108.5t-35.5 -83.5t-35 -61t-33.5 -41.5t-31 -25t-27.5 -10t-22 2.5zM123 -414q63 4 115 280q-62 -32 -100.5 -78t-48.5 -98
q-9 -42 3 -73.5t31 -30.5zM191 628q-29 8 -21 55q11 62 80 56q25 -2 33 -20t-6 -44q-16 -26 -42.5 -38.5t-43.5 -8.5zM315 628q-29 8 -21 55q11 62 80 56q25 -2 33 -20t-6 -44q-16 -26 -42.5 -38.5t-43.5 -8.5z" />
    <glyph glyph-name="Zacute" unicode="&#x179;" horiz-adv-x="633" 
d="M252 655q67 2 101 -5q17 -2 50 -10q15 -3 52 -11.5t46 -10.5q78 76 150 66q16 -2 27 -13.5t13 -27.5t-2.5 -32.5t-18.5 -31t-35 -20.5q-34 -10 -103 -7q-16 -33 -78 -176q-78 -182 -153 -288q43 -16 92 -37q124 -50 159 -49q45 2 74 51.5t50 162.5q1 10 8 11
q2 1 3.5 -0.5t1.5 -4.5q1 -3 0 -6q-19 -140 -67.5 -218t-116.5 -75q-42 1 -117 36l-72 33l-68 31q-87 -94 -155 -76q-32 7 -43.5 43.5t6 74.5t58.5 47q50 14 129 -5q50 97 122 279q40 103 89 173q-167 17 -241 -3q-90 -25 -132 -77.5t-28 -124.5q13 -65 71.5 -93.5
t141.5 -13.5q7 1 11 -3.5t2.5 -9.5t-9.5 -6q-85 -19 -154 12q-68 32 -87 103q-16 64 5 132q23 70 80 120q58 51 138 60zM106 -33q44 -8 98 74q-66 25 -94 14q-38 -16 -40 -49q0 -32 36 -39zM640 669q-23 2 -41 -11.5t-38 -49.5q41 -3 74 5q22 5 30 18.5t0 25t-25 12.5z
M496 799q8 12 23 -14q19 -37 9 -58q-2 -4 -4 -5q-25 -22 -132 -55q-17 -3 -17 4q34 17 59 44t62 84z" />
    <glyph glyph-name="zacute" unicode="&#x17a;" horiz-adv-x="237" 
d="M49 -100l-20 54q-3 6 -6 13t-5 11l-3 6q-5 5 12 14q57 35 86 107q29 75 29 156v9l-2 -2l-3 -4q-42 -54 -82 -54q-9 0 -11 1q-1 -5 -5 -23q-2 -9 -6.5 -12.5t-7.5 1t-1 14.5l5 30q-26 29 -18 94q3 26 11 44.5t17 24t15 0.5q15 -12 10 -74l-3 -24q61 -4 93 62q5 8 30 -2
q27 -9 43 -25q5 -2 0 -53q-5 -63 -43 -131q-37 -67 -98 -120l12 -24q11 -26 18 -65q61 22 127 29q10 1 11 -6q0 -7 -12 -9q-58 -7 -123 -34q14 -101 -4 -194q-14 -74 -56.5 -111.5t-95.5 -34.5q-42 3 -70 42t-18 94q22 117 174 196zM74 -288q12 69 -16 160
q-82 -59 -100 -149q-9 -47 -0.5 -84t28.5 -39q30 -4 54 26t34 86zM199 483q8 12 23 -14q19 -37 9 -58q-2 -4 -4 -5q-25 -22 -132 -55q-17 -3 -17 4q34 17 59 44t62 84z" />
    <glyph glyph-name="Zdotaccent" unicode="&#x17b;" horiz-adv-x="633" 
d="M252 655q67 2 101 -5q17 -2 50 -10q15 -3 52 -11.5t46 -10.5q78 76 150 66q16 -2 27 -13.5t13 -27.5t-2.5 -32.5t-18.5 -31t-35 -20.5q-34 -10 -103 -7q-16 -33 -78 -176q-78 -182 -153 -288q43 -16 92 -37q124 -50 159 -49q45 2 74 51.5t50 162.5q1 10 8 11
q2 1 3.5 -0.5t1.5 -4.5q1 -3 0 -6q-19 -140 -67.5 -218t-116.5 -75q-42 1 -117 36l-72 33l-68 31q-87 -94 -155 -76q-32 7 -43.5 43.5t6 74.5t58.5 47q50 14 129 -5q50 97 122 279q40 103 89 173q-167 17 -241 -3q-90 -25 -132 -77.5t-28 -124.5q13 -65 71.5 -93.5
t141.5 -13.5q7 1 11 -3.5t2.5 -9.5t-9.5 -6q-85 -19 -154 12q-68 32 -87 103q-16 64 5 132q23 70 80 120q58 51 138 60zM106 -33q44 -8 98 74q-66 25 -94 14q-38 -16 -40 -49q0 -32 36 -39zM640 669q-23 2 -41 -11.5t-38 -49.5q41 -3 74 5q22 5 30 18.5t0 25t-25 12.5z
M400 664q-29 8 -21 55q11 62 80 56q25 -2 33 -20t-6 -44q-16 -26 -42.5 -38.5t-43.5 -8.5z" />
    <glyph glyph-name="zdotaccent" unicode="&#x17c;" horiz-adv-x="237" 
d="M49 -100l-20 54q-3 6 -6 13t-5 11l-3 6q-5 5 12 14q57 35 86 107q29 75 29 156v9l-2 -2l-3 -4q-42 -54 -82 -54q-9 0 -11 1q-1 -5 -5 -23q-2 -9 -6.5 -12.5t-7.5 1t-1 14.5l5 30q-26 29 -18 94q3 26 11 44.5t17 24t15 0.5q15 -12 10 -74l-3 -24q61 -4 93 62q5 8 30 -2
q27 -9 43 -25q5 -2 0 -53q-5 -63 -43 -131q-37 -67 -98 -120l12 -24q11 -26 18 -65q61 22 127 29q10 1 11 -6q0 -7 -12 -9q-58 -7 -123 -34q14 -101 -4 -194q-14 -74 -56.5 -111.5t-95.5 -34.5q-42 3 -70 42t-18 94q22 117 174 196zM74 -288q12 69 -16 160
q-82 -59 -100 -149q-9 -47 -0.5 -84t28.5 -39q30 -4 54 26t34 86zM91 361q-29 8 -21 55q11 62 80 56q25 -2 33 -20t-6 -44q-16 -26 -42.5 -38.5t-43.5 -8.5z" />
    <glyph glyph-name="Zcaron" unicode="&#x17d;" horiz-adv-x="633" 
d="M252 655q67 2 101 -5q17 -2 50 -10q15 -3 52 -11.5t46 -10.5q78 76 150 66q16 -2 27 -13.5t13 -27.5t-2.5 -32.5t-18.5 -31t-35 -20.5q-34 -10 -103 -7q-16 -33 -78 -176q-78 -182 -153 -288q43 -16 92 -37q124 -50 159 -49q45 2 74 51.5t50 162.5q1 10 8 11
q2 1 3.5 -0.5t1.5 -4.5q1 -3 0 -6q-19 -140 -67.5 -218t-116.5 -75q-42 1 -117 36l-72 33l-68 31q-87 -94 -155 -76q-32 7 -43.5 43.5t6 74.5t58.5 47q50 14 129 -5q50 97 122 279q40 103 89 173q-167 17 -241 -3q-90 -25 -132 -77.5t-28 -124.5q13 -65 71.5 -93.5
t141.5 -13.5q7 1 11 -3.5t2.5 -9.5t-9.5 -6q-85 -19 -154 12q-68 32 -87 103q-16 64 5 132q23 70 80 120q58 51 138 60zM106 -33q44 -8 98 74q-66 25 -94 14q-38 -16 -40 -49q0 -32 36 -39zM640 669q-23 2 -41 -11.5t-38 -49.5q41 -3 74 5q22 5 30 18.5t0 25t-25 12.5z
M536 732q-106 -36 -141 -69l-1 -1q-1 0 -1 1q-33 39 -83 75q-9 7 18 19q40 17 51 4q15 -24 20 -80q34 50 73 78q17 11 53 -9q24 -14 11 -18z" />
    <glyph glyph-name="zcaron" unicode="&#x17e;" horiz-adv-x="237" 
d="M49 -100l-20 54q-3 6 -6 13t-5 11l-3 6q-5 5 12 14q57 35 86 107q29 75 29 156v9l-2 -2l-3 -4q-42 -54 -82 -54q-9 0 -11 1q-1 -5 -5 -23q-2 -9 -6.5 -12.5t-7.5 1t-1 14.5l5 30q-26 29 -18 94q3 26 11 44.5t17 24t15 0.5q15 -12 10 -74l-3 -24q61 -4 93 62q5 8 30 -2
q27 -9 43 -25q5 -2 0 -53q-5 -63 -43 -131q-37 -67 -98 -120l12 -24q11 -26 18 -65q61 22 127 29q10 1 11 -6q0 -7 -12 -9q-58 -7 -123 -34q14 -101 -4 -194q-14 -74 -56.5 -111.5t-95.5 -34.5q-42 3 -70 42t-18 94q22 117 174 196zM74 -288q12 69 -16 160
q-82 -59 -100 -149q-9 -47 -0.5 -84t28.5 -39q30 -4 54 26t34 86zM243 417q-107 -36 -141 -69l-1 -1q-1 0 -1 1q-33 39 -83 75q-9 7 18 19q40 17 51 4q15 -24 20 -80q34 50 73 78q17 11 53 -9q24 -14 11 -18z" />
    <glyph glyph-name="florin" unicode="&#x192;" horiz-adv-x="174" 
d="M107 260l-7 -55q-47 -327 -81 -461q-42 -162 -124 -217q-50 -35 -82 -10q-10 7 -15 20q-12 26 6 43t43 13.5t30 -25.5q6 -20 9 -20q9 2 54 186q19 78 79 474l9 55l-18 2q-4 0 -2 -7q-14 0 -16 17t15 21l27 6q26 152 53 264q42 162 124 217q50 35 82 10q10 -7 15 -20
q12 -26 -6 -43t-43 -13.5t-30 25.5q-6 20 -9 20q-8 -2 -54 -186q-26 -109 -49 -258l51 9q16 1 20 -1.5t2 -10.5q-8 -53 -21 -56q-2 -1 -62 1z" />
    <glyph glyph-name="AEacute" unicode="&#x1fc;" horiz-adv-x="740" 
d="M422 611q8 23 28 26h7q26 2 61 2q22 0 18 -12q-4 -11 -4 -13q78 46 162 26q39 -9 61.5 -34t18.5 -62q-10 -86 -70 -129q-34 -26 -108 2q-46 17 -48 30q0 2 1 3q-1 1 3 1.5t13 1.5t19 2.5t22.5 4.5t22.5 7q82 32 88 74q12 71 -43 78q-50 8 -96 -25q-45 -31 -62 -102
q-10 -48 1 -89.5t40 -62.5q45 8 76 5q30 -1 28 -16q-1 -17 -36 -21h-4q-36 -5 -68 3q-92 -31 -109 -144q-13 -92 33 -135t139 -19q51 14 92 66t57 137q0 7 4 10t7 0t3 -10q-13 -101 -64 -159q-50 -56 -109 -71q-99 -24 -178 21q-78 45 -81 122l-117 -16q-100 -151 -180 -138
q-52 9 -54 66q-1 61 55 122q37 41 87 60q12 5 15 -1q2 -6 -7 -10q-86 -39 -93 -100q-6 -41 24 -59q9 -5 19 -6q46 -5 102 63l-54 -5q-24 0 -19 20q15 46 24 47q7 2 90 -3q84 142 183 442zM263 167l85 -6q5 124 47 293q-62 -166 -132 -287zM457 365q-11 -48 -14 -69
q27 18 62 31q-28 15 -48 38zM629 797q8 12 23 -14q19 -37 9 -58q-2 -4 -4 -5q-25 -22 -132 -55q-17 -3 -17 4q34 17 59 44t62 84z" />
    <glyph glyph-name="aeacute" unicode="&#x1fd;" horiz-adv-x="407" 
d="M439 216q-14 -104 -76 -161q-51 -49 -105 -55q-39 -5 -77 20q-39 26 -51 66q-26 -82 -66 -86q-38 -5 -66 34q-30 40 -23 95q9 82 69 133q62 51 122 51q19 0 39.5 -9.5t27.5 -21.5q47 28 96 31q31 2 47 -15t7 -46q-23 -68 -171 -159q7 -33 25 -52.5t39 -15.5q32 5 77 44
q53 48 71 147q1 7 4.5 10t7 0t3.5 -10zM145 228q1 8 36 13q7 9 16 16q-47 -5 -48 3q16 31 -6 31q-62 0 -83 -149q-5 -33 -4 -57t8 -37t18 -10q14 5 31 46q1 2 15 63q2 9 7.5 39t7.5 38q0 1 1 2q0 2 1 2zM210 142q-3 -12 -1 -32q24 19 43 42.5t29 44.5t14.5 39t2 30t-10.5 15
q-22 7 -44 -31t-33 -108zM235 454q8 12 23 -14q19 -37 9 -58q-2 -4 -4 -5q-25 -22 -132 -55q-17 -3 -17 4q34 17 59 44t62 84z" />
    <glyph glyph-name="Oslashacute" unicode="&#x1fe;" horiz-adv-x="442" 
d="M164 -13l2 13q-76 9 -117 98q-39 90 -26 206q17 137 91 231q77 95 170 120l20 75q4 16 85 16q7 0 11 -3t2 -8q-22 -58 -53 -147q54 -16 83 -90q28 -71 16 -163q-19 -125 -93 -226q40 3 71.5 34t45.5 83q3 9 10 9q6 -1 3 -11q-15 -63 -54 -97.5t-90 -34.5
q-73 -88 -154 -93h-4q0 -1 -1 -4v-3q-1 -2 -1 -9q-4 -27 -12 -32q-1 -1 -2 -1q-7 -3 -7 6q0 10 4 31zM243 158q26 -29 58 -42q31 67 56 212q25 153 -22 218q-56 -167 -109 -366q5 -9 17 -22zM169 27l25 161q-35 62 -37 145q-1 82 29 149.5t80 95.5l12 51q-53 -20 -100 -106
q-48 -88 -64 -206q-17 -95 -4.5 -184t59.5 -106zM261 557q-52 -34 -73 -133q-20 -99 13 -193q29 176 60 326zM497 761q8 14 23 -15q20 -38 8 -58l-4 -5q-28 -25 -132 -54q-16 -3 -16 3q34 17 59.5 44t61.5 85zM222 149l-3 3l-19 -77q-10 -48 -12 -51h13q55 6 92 76
q-43 15 -71 49z" />
    <glyph glyph-name="oslashacute" unicode="&#x1ff;" 
d="M255 166q-7 -31 -11 -44q40 24 56 91q1 4 5.5 6.5t7.5 0t1 -9.5q-21 -87 -79 -112q-21 -46 -59 -74t-85 -31h-5l-9 -38q-7 -36 -18 -41q-4 -1 -5.5 0.5t-1.5 6.5q0 6 5 31l9 42q-45 7 -69 46.5t-18 94.5q19 165 161 191l17 47q3 10 25 11q21 3 35 1q7 0 11 -3.5t1 -8.5
l-34 -74q37 -1 52 -41t8 -92zM116 250q8 32 18 59q-50 -15 -70 -161q-12 -78 8 -115q26 146 32 173q1 24 12 44zM258 523q8 13 19 -7q14 -27 -2 -44l-2 -2q-16 -16 -56 -36q-41 -21 -70 -31q-15 -6 -17 2q0 1 1 2q43 19 70.5 44t56.5 72zM126 130q-18 -50 -33 -113h10
q37 3 56 84q-13 8 -20 15q-9 8 -13 14zM158 131l7 -6l6 34q9 51 -6 71q-27 -66 -28 -69q7 -19 21 -30z" />
    <glyph glyph-name="Scommaaccent" unicode="&#x218;" horiz-adv-x="505" 
d="M375 11q12 49 -6 91q-17 41 -96 167l-22 36q-69 121 -59 202q11 84 78 121q68 39 159 18q44 -11 70 -43.5t26 -72.5q0 -38 -26 -74t-70 -53q-23 -11 -53.5 3.5t-48 35.5t-9.5 29l13 -2q13 -2 31 -3t38 1t37 13t25 30q17 35 3 70q-13 36 -58 46q-45 9 -80 -6.5t-51 -50.5
q-17 -32 -4 -91t54 -123q90 -140 110 -199q21 -62 2 -130q-22 -85 -116 -117q-92 -31 -182 10q-61 27 -96.5 78t-36.5 106q-1 56 23 105t67 73q30 13 64 6q34 -6 62 -23q27 -17 20 -25l-16 -1q-25 0 -52 -6t-58.5 -28t-41.5 -58q-19 -71 5.5 -128.5t86.5 -83.5
q65 -28 130 -4q65 22 78 81zM278 -209q-21 -51 -94 -67q-10 -3 -12 3q-2 5 8 8q1 1 2 1q37 11 44 35q5 12 -5 20t-23.5 19t-15.5 27q-2 23 21 39q23 15 50 2q23 -10 30 -34.5t-5 -52.5z" />
    </font>
</defs>
</svg>
